G75*
%MOIN*%
%OFA0B0*%
%FSLAX25Y25*%
%IPPOS*%
%LPD*%
%AMOC8*
5,1,8,0,0,1.08239X$1,22.5*
%
%ADD10C,0.00000*%
%ADD11C,0.00600*%
%ADD12C,0.00400*%
%ADD13C,0.00394*%
%ADD14C,0.00300*%
%ADD15C,0.00500*%
%ADD16R,0.01181X0.07874*%
D10*
X0009483Y0006895D02*
X0096098Y0006895D01*
X0096250Y0006897D01*
X0096402Y0006903D01*
X0096554Y0006913D01*
X0096705Y0006926D01*
X0096856Y0006944D01*
X0097007Y0006965D01*
X0097157Y0006991D01*
X0097306Y0007020D01*
X0097455Y0007053D01*
X0097602Y0007090D01*
X0097749Y0007130D01*
X0097894Y0007175D01*
X0098038Y0007223D01*
X0098181Y0007275D01*
X0098323Y0007330D01*
X0098463Y0007389D01*
X0098602Y0007452D01*
X0098739Y0007518D01*
X0098874Y0007588D01*
X0099007Y0007661D01*
X0099138Y0007738D01*
X0099268Y0007818D01*
X0099395Y0007901D01*
X0099520Y0007987D01*
X0099643Y0008077D01*
X0099763Y0008170D01*
X0099881Y0008266D01*
X0099997Y0008365D01*
X0100110Y0008467D01*
X0100220Y0008571D01*
X0100328Y0008679D01*
X0100432Y0008789D01*
X0100534Y0008902D01*
X0100633Y0009018D01*
X0100729Y0009136D01*
X0100822Y0009256D01*
X0100912Y0009379D01*
X0100998Y0009504D01*
X0101081Y0009631D01*
X0101161Y0009761D01*
X0101238Y0009892D01*
X0101311Y0010025D01*
X0101381Y0010160D01*
X0101447Y0010297D01*
X0101510Y0010436D01*
X0101569Y0010576D01*
X0101624Y0010718D01*
X0101676Y0010861D01*
X0101724Y0011005D01*
X0101769Y0011150D01*
X0101809Y0011297D01*
X0101846Y0011444D01*
X0101879Y0011593D01*
X0101908Y0011742D01*
X0101934Y0011892D01*
X0101955Y0012043D01*
X0101973Y0012194D01*
X0101986Y0012345D01*
X0101996Y0012497D01*
X0102002Y0012649D01*
X0102004Y0012801D01*
X0102003Y0012801D02*
X0102003Y0099415D01*
X0102004Y0099415D02*
X0102002Y0099567D01*
X0101996Y0099719D01*
X0101986Y0099871D01*
X0101973Y0100022D01*
X0101955Y0100173D01*
X0101934Y0100324D01*
X0101908Y0100474D01*
X0101879Y0100623D01*
X0101846Y0100772D01*
X0101809Y0100919D01*
X0101769Y0101066D01*
X0101724Y0101211D01*
X0101676Y0101355D01*
X0101624Y0101498D01*
X0101569Y0101640D01*
X0101510Y0101780D01*
X0101447Y0101919D01*
X0101381Y0102056D01*
X0101311Y0102191D01*
X0101238Y0102324D01*
X0101161Y0102455D01*
X0101081Y0102585D01*
X0100998Y0102712D01*
X0100912Y0102837D01*
X0100822Y0102960D01*
X0100729Y0103080D01*
X0100633Y0103198D01*
X0100534Y0103314D01*
X0100432Y0103427D01*
X0100328Y0103537D01*
X0100220Y0103645D01*
X0100110Y0103749D01*
X0099997Y0103851D01*
X0099881Y0103950D01*
X0099763Y0104046D01*
X0099643Y0104139D01*
X0099520Y0104229D01*
X0099395Y0104315D01*
X0099268Y0104398D01*
X0099138Y0104478D01*
X0099007Y0104555D01*
X0098874Y0104628D01*
X0098739Y0104698D01*
X0098602Y0104764D01*
X0098463Y0104827D01*
X0098323Y0104886D01*
X0098181Y0104941D01*
X0098038Y0104993D01*
X0097894Y0105041D01*
X0097749Y0105086D01*
X0097602Y0105126D01*
X0097455Y0105163D01*
X0097306Y0105196D01*
X0097157Y0105225D01*
X0097007Y0105251D01*
X0096856Y0105272D01*
X0096705Y0105290D01*
X0096554Y0105303D01*
X0096402Y0105313D01*
X0096250Y0105319D01*
X0096098Y0105321D01*
X0096098Y0105320D02*
X0009483Y0105320D01*
X0009483Y0105321D02*
X0009331Y0105319D01*
X0009179Y0105313D01*
X0009027Y0105303D01*
X0008876Y0105290D01*
X0008725Y0105272D01*
X0008574Y0105251D01*
X0008424Y0105225D01*
X0008275Y0105196D01*
X0008126Y0105163D01*
X0007979Y0105126D01*
X0007832Y0105086D01*
X0007687Y0105041D01*
X0007543Y0104993D01*
X0007400Y0104941D01*
X0007258Y0104886D01*
X0007118Y0104827D01*
X0006979Y0104764D01*
X0006842Y0104698D01*
X0006707Y0104628D01*
X0006574Y0104555D01*
X0006443Y0104478D01*
X0006313Y0104398D01*
X0006186Y0104315D01*
X0006061Y0104229D01*
X0005938Y0104139D01*
X0005818Y0104046D01*
X0005700Y0103950D01*
X0005584Y0103851D01*
X0005471Y0103749D01*
X0005361Y0103645D01*
X0005253Y0103537D01*
X0005149Y0103427D01*
X0005047Y0103314D01*
X0004948Y0103198D01*
X0004852Y0103080D01*
X0004759Y0102960D01*
X0004669Y0102837D01*
X0004583Y0102712D01*
X0004500Y0102585D01*
X0004420Y0102455D01*
X0004343Y0102324D01*
X0004270Y0102191D01*
X0004200Y0102056D01*
X0004134Y0101919D01*
X0004071Y0101780D01*
X0004012Y0101640D01*
X0003957Y0101498D01*
X0003905Y0101355D01*
X0003857Y0101211D01*
X0003812Y0101066D01*
X0003772Y0100919D01*
X0003735Y0100772D01*
X0003702Y0100623D01*
X0003673Y0100474D01*
X0003647Y0100324D01*
X0003626Y0100173D01*
X0003608Y0100022D01*
X0003595Y0099871D01*
X0003585Y0099719D01*
X0003579Y0099567D01*
X0003577Y0099415D01*
X0003578Y0099415D02*
X0003578Y0012801D01*
X0003577Y0012801D02*
X0003579Y0012649D01*
X0003585Y0012497D01*
X0003595Y0012345D01*
X0003608Y0012194D01*
X0003626Y0012043D01*
X0003647Y0011892D01*
X0003673Y0011742D01*
X0003702Y0011593D01*
X0003735Y0011444D01*
X0003772Y0011297D01*
X0003812Y0011150D01*
X0003857Y0011005D01*
X0003905Y0010861D01*
X0003957Y0010718D01*
X0004012Y0010576D01*
X0004071Y0010436D01*
X0004134Y0010297D01*
X0004200Y0010160D01*
X0004270Y0010025D01*
X0004343Y0009892D01*
X0004420Y0009761D01*
X0004500Y0009631D01*
X0004583Y0009504D01*
X0004669Y0009379D01*
X0004759Y0009256D01*
X0004852Y0009136D01*
X0004948Y0009018D01*
X0005047Y0008902D01*
X0005149Y0008789D01*
X0005253Y0008679D01*
X0005361Y0008571D01*
X0005471Y0008467D01*
X0005584Y0008365D01*
X0005700Y0008266D01*
X0005818Y0008170D01*
X0005938Y0008077D01*
X0006061Y0007987D01*
X0006186Y0007901D01*
X0006313Y0007818D01*
X0006443Y0007738D01*
X0006574Y0007661D01*
X0006707Y0007588D01*
X0006842Y0007518D01*
X0006979Y0007452D01*
X0007118Y0007389D01*
X0007258Y0007330D01*
X0007400Y0007275D01*
X0007543Y0007223D01*
X0007687Y0007175D01*
X0007832Y0007130D01*
X0007979Y0007090D01*
X0008126Y0007053D01*
X0008275Y0007020D01*
X0008424Y0006991D01*
X0008574Y0006965D01*
X0008725Y0006944D01*
X0008876Y0006926D01*
X0009027Y0006913D01*
X0009179Y0006903D01*
X0009331Y0006897D01*
X0009483Y0006895D01*
D11*
X0008891Y0020975D02*
X0008891Y0023201D01*
X0008891Y0024600D02*
X0008891Y0026270D01*
X0009448Y0026826D01*
X0010005Y0026826D01*
X0010561Y0026270D01*
X0010561Y0024600D01*
X0007221Y0024600D01*
X0007221Y0026270D01*
X0007778Y0026826D01*
X0008335Y0026826D01*
X0008891Y0026270D01*
X0008891Y0028225D02*
X0008891Y0030451D01*
X0008335Y0030451D02*
X0010561Y0030451D01*
X0010561Y0028225D02*
X0008335Y0028225D01*
X0007221Y0029338D01*
X0008335Y0030451D01*
X0007221Y0031850D02*
X0007221Y0034077D01*
X0007221Y0032963D02*
X0010561Y0032963D01*
X0008891Y0035475D02*
X0008891Y0037702D01*
X0007778Y0036588D02*
X0010005Y0036588D01*
X0010820Y0048539D02*
X0010820Y0050739D01*
X0010820Y0048539D02*
X0014020Y0048539D01*
X0010820Y0057539D02*
X0010820Y0059739D01*
X0014020Y0059739D01*
X0014498Y0069400D02*
X0014498Y0071070D01*
X0013942Y0071626D01*
X0012828Y0071626D01*
X0012272Y0071070D01*
X0012272Y0069400D01*
X0015612Y0069400D01*
X0014498Y0073025D02*
X0012272Y0073025D01*
X0013385Y0073025D02*
X0012272Y0074138D01*
X0012272Y0074695D01*
X0012828Y0076046D02*
X0013942Y0076046D01*
X0014498Y0076602D01*
X0014498Y0077716D01*
X0013942Y0078272D01*
X0012828Y0078272D01*
X0012272Y0077716D01*
X0012272Y0076602D01*
X0012828Y0076046D01*
X0012828Y0079671D02*
X0013942Y0079671D01*
X0014498Y0080228D01*
X0014498Y0081898D01*
X0015055Y0081898D02*
X0012272Y0081898D01*
X0012272Y0080228D01*
X0012828Y0079671D01*
X0015612Y0080784D02*
X0015612Y0081341D01*
X0015055Y0081898D01*
X0064114Y0018409D02*
X0065227Y0017296D01*
X0066341Y0018409D01*
X0066341Y0015069D01*
X0067739Y0015626D02*
X0068296Y0015069D01*
X0069409Y0015069D01*
X0069966Y0015626D01*
X0069966Y0017852D01*
X0069409Y0018409D01*
X0068296Y0018409D01*
X0067739Y0017852D01*
X0067739Y0015626D01*
X0064114Y0015069D02*
X0064114Y0018409D01*
X0071364Y0018409D02*
X0073591Y0018409D01*
X0072478Y0018409D02*
X0072478Y0015069D01*
X0074989Y0015626D02*
X0074989Y0017852D01*
X0075546Y0018409D01*
X0076659Y0018409D01*
X0077216Y0017852D01*
X0077216Y0015626D01*
X0076659Y0015069D01*
X0075546Y0015069D01*
X0074989Y0015626D01*
X0078615Y0016182D02*
X0080285Y0016182D01*
X0080841Y0016739D01*
X0080841Y0017852D01*
X0080285Y0018409D01*
X0078615Y0018409D01*
X0078615Y0015069D01*
X0079728Y0016182D02*
X0080841Y0015069D01*
X0082240Y0015626D02*
X0082796Y0015069D01*
X0083910Y0015069D01*
X0084466Y0015626D01*
X0084466Y0016182D01*
X0083910Y0016739D01*
X0082796Y0016739D01*
X0082240Y0017296D01*
X0082240Y0017852D01*
X0082796Y0018409D01*
X0083910Y0018409D01*
X0084466Y0017852D01*
D12*
X0081630Y0023630D02*
X0080778Y0023630D01*
X0080353Y0024056D01*
X0081204Y0024908D02*
X0081630Y0024908D01*
X0082056Y0024482D01*
X0082056Y0024056D01*
X0081630Y0023630D01*
X0081630Y0024908D02*
X0082056Y0025334D01*
X0082056Y0025760D01*
X0081630Y0026185D01*
X0080778Y0026185D01*
X0080353Y0025760D01*
X0072017Y0025760D02*
X0071591Y0026185D01*
X0070739Y0026185D01*
X0070313Y0025760D01*
X0072017Y0025760D02*
X0072017Y0025334D01*
X0070313Y0023630D01*
X0072017Y0023630D01*
X0062568Y0023827D02*
X0060864Y0023827D01*
X0061716Y0023827D02*
X0061716Y0026382D01*
X0060864Y0025531D01*
X0089605Y0024908D02*
X0091308Y0024908D01*
X0090882Y0026185D02*
X0089605Y0024908D01*
X0090882Y0026185D02*
X0090882Y0023630D01*
X0096298Y0017231D02*
X0098001Y0017231D01*
X0097575Y0018508D02*
X0097575Y0015953D01*
X0096298Y0017231D02*
X0097575Y0018508D01*
X0074638Y0081898D02*
X0072083Y0081898D01*
X0072083Y0083176D01*
X0072509Y0083601D01*
X0073360Y0083601D01*
X0073786Y0083176D01*
X0073786Y0081898D01*
X0074212Y0084617D02*
X0074638Y0084617D01*
X0074638Y0086320D01*
X0074212Y0087336D02*
X0072509Y0087336D01*
X0072083Y0087762D01*
X0072083Y0088613D01*
X0072509Y0089039D01*
X0074212Y0089039D01*
X0074638Y0088613D01*
X0074638Y0087762D01*
X0074212Y0087336D01*
X0072509Y0086320D02*
X0074212Y0084617D01*
X0072509Y0086320D02*
X0072083Y0086320D01*
X0072083Y0084617D01*
X0096298Y0094332D02*
X0096723Y0093906D01*
X0097575Y0093906D01*
X0098001Y0094332D01*
X0098001Y0094758D01*
X0097575Y0095183D01*
X0097149Y0095183D01*
X0097575Y0095183D02*
X0098001Y0095609D01*
X0098001Y0096035D01*
X0097575Y0096461D01*
X0096723Y0096461D01*
X0096298Y0096035D01*
X0015437Y0041679D02*
X0012368Y0041679D01*
X0013903Y0040145D02*
X0013903Y0043214D01*
X0013903Y0014214D02*
X0013903Y0011145D01*
X0013881Y0011032D02*
X0013881Y0013587D01*
X0013030Y0012735D01*
X0013030Y0011032D02*
X0014733Y0011032D01*
X0013946Y0099024D02*
X0012242Y0099024D01*
X0013946Y0100727D01*
X0013946Y0101153D01*
X0013520Y0101579D01*
X0012668Y0101579D01*
X0012242Y0101153D01*
D13*
X0024247Y0097446D02*
X0030153Y0097446D01*
X0030153Y0085635D01*
X0030153Y0073824D01*
X0024247Y0073824D01*
X0024247Y0062013D01*
X0030153Y0062013D01*
X0030153Y0073824D01*
X0024247Y0073824D01*
X0024247Y0085635D01*
X0030153Y0085635D01*
X0024247Y0085635D01*
X0024247Y0097446D01*
X0033105Y0094493D02*
X0033105Y0093509D01*
X0033105Y0094493D02*
X0036255Y0094493D01*
X0037042Y0098430D02*
X0037042Y0104336D01*
X0048853Y0104336D01*
X0048853Y0098430D01*
X0037042Y0098430D01*
X0041767Y0094493D02*
X0044916Y0094493D01*
X0044916Y0093509D01*
X0050822Y0088391D02*
X0050822Y0082486D01*
X0062633Y0082486D01*
X0062633Y0088391D01*
X0050822Y0088391D01*
X0044916Y0085635D02*
X0044916Y0085241D01*
X0043671Y0084060D02*
X0043673Y0084130D01*
X0043679Y0084201D01*
X0043689Y0084270D01*
X0043703Y0084339D01*
X0043721Y0084408D01*
X0043742Y0084475D01*
X0043767Y0084541D01*
X0043796Y0084605D01*
X0043829Y0084667D01*
X0043865Y0084728D01*
X0043905Y0084786D01*
X0043947Y0084842D01*
X0043993Y0084896D01*
X0044042Y0084947D01*
X0044093Y0084995D01*
X0044148Y0085040D01*
X0044204Y0085082D01*
X0044263Y0085120D01*
X0044324Y0085155D01*
X0044387Y0085187D01*
X0044452Y0085215D01*
X0044518Y0085240D01*
X0044585Y0085260D01*
X0044654Y0085277D01*
X0044723Y0085290D01*
X0044793Y0085299D01*
X0044863Y0085304D01*
X0044934Y0085305D01*
X0045004Y0085302D01*
X0045074Y0085295D01*
X0045144Y0085284D01*
X0045213Y0085269D01*
X0045281Y0085250D01*
X0045347Y0085228D01*
X0045413Y0085202D01*
X0045477Y0085172D01*
X0045539Y0085138D01*
X0045599Y0085101D01*
X0045656Y0085061D01*
X0045712Y0085017D01*
X0045765Y0084971D01*
X0045815Y0084921D01*
X0045862Y0084869D01*
X0045906Y0084814D01*
X0045947Y0084757D01*
X0045985Y0084698D01*
X0046020Y0084636D01*
X0046050Y0084573D01*
X0046078Y0084508D01*
X0046101Y0084441D01*
X0046121Y0084374D01*
X0046137Y0084305D01*
X0046149Y0084236D01*
X0046157Y0084166D01*
X0046161Y0084095D01*
X0046161Y0084025D01*
X0046157Y0083954D01*
X0046149Y0083884D01*
X0046137Y0083815D01*
X0046121Y0083746D01*
X0046101Y0083679D01*
X0046078Y0083612D01*
X0046050Y0083547D01*
X0046020Y0083484D01*
X0045985Y0083422D01*
X0045947Y0083363D01*
X0045906Y0083306D01*
X0045862Y0083251D01*
X0045815Y0083199D01*
X0045765Y0083149D01*
X0045712Y0083103D01*
X0045656Y0083059D01*
X0045599Y0083019D01*
X0045538Y0082982D01*
X0045477Y0082948D01*
X0045413Y0082918D01*
X0045347Y0082892D01*
X0045281Y0082870D01*
X0045213Y0082851D01*
X0045144Y0082836D01*
X0045074Y0082825D01*
X0045004Y0082818D01*
X0044934Y0082815D01*
X0044863Y0082816D01*
X0044793Y0082821D01*
X0044723Y0082830D01*
X0044654Y0082843D01*
X0044585Y0082860D01*
X0044518Y0082880D01*
X0044452Y0082905D01*
X0044387Y0082933D01*
X0044324Y0082965D01*
X0044263Y0083000D01*
X0044204Y0083038D01*
X0044148Y0083080D01*
X0044093Y0083125D01*
X0044042Y0083173D01*
X0043993Y0083224D01*
X0043947Y0083278D01*
X0043905Y0083334D01*
X0043865Y0083392D01*
X0043829Y0083453D01*
X0043796Y0083515D01*
X0043767Y0083579D01*
X0043742Y0083645D01*
X0043721Y0083712D01*
X0043703Y0083781D01*
X0043689Y0083850D01*
X0043679Y0083919D01*
X0043673Y0083990D01*
X0043671Y0084060D01*
X0043735Y0084651D02*
X0041767Y0084651D01*
X0036255Y0084651D02*
X0033105Y0084651D01*
X0033105Y0085635D01*
X0032318Y0074612D02*
X0032320Y0074668D01*
X0032326Y0074723D01*
X0032336Y0074777D01*
X0032349Y0074831D01*
X0032367Y0074884D01*
X0032388Y0074935D01*
X0032412Y0074985D01*
X0032440Y0075033D01*
X0032472Y0075079D01*
X0032506Y0075123D01*
X0032544Y0075164D01*
X0032584Y0075202D01*
X0032627Y0075237D01*
X0032672Y0075269D01*
X0032720Y0075298D01*
X0032769Y0075324D01*
X0032820Y0075346D01*
X0032872Y0075364D01*
X0032926Y0075378D01*
X0032981Y0075389D01*
X0033036Y0075396D01*
X0033091Y0075399D01*
X0033147Y0075398D01*
X0033202Y0075393D01*
X0033257Y0075384D01*
X0033311Y0075372D01*
X0033364Y0075355D01*
X0033416Y0075335D01*
X0033466Y0075311D01*
X0033514Y0075284D01*
X0033561Y0075254D01*
X0033605Y0075220D01*
X0033647Y0075183D01*
X0033685Y0075143D01*
X0033722Y0075101D01*
X0033755Y0075056D01*
X0033784Y0075010D01*
X0033811Y0074961D01*
X0033833Y0074910D01*
X0033853Y0074858D01*
X0033868Y0074804D01*
X0033880Y0074750D01*
X0033888Y0074695D01*
X0033892Y0074640D01*
X0033892Y0074584D01*
X0033888Y0074529D01*
X0033880Y0074474D01*
X0033868Y0074420D01*
X0033853Y0074366D01*
X0033833Y0074314D01*
X0033811Y0074263D01*
X0033784Y0074214D01*
X0033755Y0074168D01*
X0033722Y0074123D01*
X0033685Y0074081D01*
X0033647Y0074041D01*
X0033605Y0074004D01*
X0033561Y0073970D01*
X0033514Y0073940D01*
X0033466Y0073913D01*
X0033416Y0073889D01*
X0033364Y0073869D01*
X0033311Y0073852D01*
X0033257Y0073840D01*
X0033202Y0073831D01*
X0033147Y0073826D01*
X0033091Y0073825D01*
X0033036Y0073828D01*
X0032981Y0073835D01*
X0032926Y0073846D01*
X0032872Y0073860D01*
X0032820Y0073878D01*
X0032769Y0073900D01*
X0032720Y0073926D01*
X0032672Y0073955D01*
X0032627Y0073987D01*
X0032584Y0074022D01*
X0032544Y0074060D01*
X0032506Y0074101D01*
X0032472Y0074145D01*
X0032440Y0074191D01*
X0032412Y0074239D01*
X0032388Y0074289D01*
X0032367Y0074340D01*
X0032349Y0074393D01*
X0032336Y0074447D01*
X0032326Y0074501D01*
X0032320Y0074556D01*
X0032318Y0074612D01*
X0033499Y0073824D02*
X0035074Y0073824D01*
X0039011Y0073824D02*
X0040979Y0073824D01*
X0040979Y0065950D02*
X0039011Y0065950D01*
X0035074Y0065950D02*
X0033105Y0065950D01*
X0032121Y0060045D02*
X0038027Y0060045D01*
X0038027Y0048234D01*
X0032121Y0048234D01*
X0032121Y0060045D01*
X0028184Y0060045D02*
X0022279Y0060045D01*
X0022279Y0048234D01*
X0028184Y0048234D01*
X0028184Y0060045D01*
X0038027Y0060045D02*
X0043932Y0060045D01*
X0043932Y0048234D01*
X0038027Y0048234D01*
X0038027Y0060045D01*
X0043932Y0060045D02*
X0049838Y0060045D01*
X0049838Y0048234D01*
X0043932Y0048234D01*
X0043932Y0060045D01*
X0053578Y0052171D02*
X0053578Y0050989D01*
X0051609Y0049021D02*
X0051611Y0049109D01*
X0051617Y0049197D01*
X0051627Y0049285D01*
X0051641Y0049373D01*
X0051658Y0049459D01*
X0051680Y0049545D01*
X0051705Y0049629D01*
X0051735Y0049713D01*
X0051767Y0049795D01*
X0051804Y0049875D01*
X0051844Y0049954D01*
X0051888Y0050031D01*
X0051935Y0050106D01*
X0051985Y0050178D01*
X0052039Y0050249D01*
X0052095Y0050316D01*
X0052155Y0050382D01*
X0052217Y0050444D01*
X0052283Y0050504D01*
X0052350Y0050560D01*
X0052421Y0050614D01*
X0052493Y0050664D01*
X0052568Y0050711D01*
X0052645Y0050755D01*
X0052724Y0050795D01*
X0052804Y0050832D01*
X0052886Y0050864D01*
X0052970Y0050894D01*
X0053054Y0050919D01*
X0053140Y0050941D01*
X0053226Y0050958D01*
X0053314Y0050972D01*
X0053402Y0050982D01*
X0053490Y0050988D01*
X0053578Y0050990D01*
X0053666Y0050988D01*
X0053754Y0050982D01*
X0053842Y0050972D01*
X0053930Y0050958D01*
X0054016Y0050941D01*
X0054102Y0050919D01*
X0054186Y0050894D01*
X0054270Y0050864D01*
X0054352Y0050832D01*
X0054432Y0050795D01*
X0054511Y0050755D01*
X0054588Y0050711D01*
X0054663Y0050664D01*
X0054735Y0050614D01*
X0054806Y0050560D01*
X0054873Y0050504D01*
X0054939Y0050444D01*
X0055001Y0050382D01*
X0055061Y0050316D01*
X0055117Y0050249D01*
X0055171Y0050178D01*
X0055221Y0050106D01*
X0055268Y0050031D01*
X0055312Y0049954D01*
X0055352Y0049875D01*
X0055389Y0049795D01*
X0055421Y0049713D01*
X0055451Y0049629D01*
X0055476Y0049545D01*
X0055498Y0049459D01*
X0055515Y0049373D01*
X0055529Y0049285D01*
X0055539Y0049197D01*
X0055545Y0049109D01*
X0055547Y0049021D01*
X0055545Y0048933D01*
X0055539Y0048845D01*
X0055529Y0048757D01*
X0055515Y0048669D01*
X0055498Y0048583D01*
X0055476Y0048497D01*
X0055451Y0048413D01*
X0055421Y0048329D01*
X0055389Y0048247D01*
X0055352Y0048167D01*
X0055312Y0048088D01*
X0055268Y0048011D01*
X0055221Y0047936D01*
X0055171Y0047864D01*
X0055117Y0047793D01*
X0055061Y0047726D01*
X0055001Y0047660D01*
X0054939Y0047598D01*
X0054873Y0047538D01*
X0054806Y0047482D01*
X0054735Y0047428D01*
X0054663Y0047378D01*
X0054588Y0047331D01*
X0054511Y0047287D01*
X0054432Y0047247D01*
X0054352Y0047210D01*
X0054270Y0047178D01*
X0054186Y0047148D01*
X0054102Y0047123D01*
X0054016Y0047101D01*
X0053930Y0047084D01*
X0053842Y0047070D01*
X0053754Y0047060D01*
X0053666Y0047054D01*
X0053578Y0047052D01*
X0053490Y0047054D01*
X0053402Y0047060D01*
X0053314Y0047070D01*
X0053226Y0047084D01*
X0053140Y0047101D01*
X0053054Y0047123D01*
X0052970Y0047148D01*
X0052886Y0047178D01*
X0052804Y0047210D01*
X0052724Y0047247D01*
X0052645Y0047287D01*
X0052568Y0047331D01*
X0052493Y0047378D01*
X0052421Y0047428D01*
X0052350Y0047482D01*
X0052283Y0047538D01*
X0052217Y0047598D01*
X0052155Y0047660D01*
X0052095Y0047726D01*
X0052039Y0047793D01*
X0051985Y0047864D01*
X0051935Y0047936D01*
X0051888Y0048011D01*
X0051844Y0048088D01*
X0051804Y0048167D01*
X0051767Y0048247D01*
X0051735Y0048329D01*
X0051705Y0048413D01*
X0051680Y0048497D01*
X0051658Y0048583D01*
X0051641Y0048669D01*
X0051627Y0048757D01*
X0051617Y0048845D01*
X0051611Y0048933D01*
X0051609Y0049021D01*
X0055546Y0049021D02*
X0056727Y0049021D01*
X0052790Y0043312D02*
X0064601Y0043312D01*
X0064601Y0037407D01*
X0052790Y0037407D01*
X0052790Y0043312D01*
X0046885Y0036423D02*
X0062633Y0036423D01*
X0062633Y0028549D01*
X0046885Y0028549D01*
X0046885Y0036423D01*
X0036058Y0042328D02*
X0036058Y0030517D01*
X0030153Y0030517D01*
X0030153Y0042328D01*
X0036058Y0042328D01*
X0030153Y0042328D02*
X0030153Y0030517D01*
X0024247Y0030517D01*
X0024247Y0042328D01*
X0030153Y0042328D01*
X0021294Y0041344D02*
X0009483Y0041344D01*
X0009483Y0047249D01*
X0021294Y0047249D01*
X0021294Y0041344D01*
X0023263Y0029533D02*
X0035074Y0029533D01*
X0035074Y0023627D01*
X0035074Y0017722D01*
X0023263Y0017722D01*
X0023263Y0023627D01*
X0035074Y0023627D01*
X0023263Y0023627D01*
X0023263Y0029533D01*
X0035074Y0019690D02*
X0035074Y0013785D01*
X0035074Y0007879D01*
X0046885Y0007879D01*
X0046885Y0013785D01*
X0035074Y0013785D01*
X0046885Y0013785D01*
X0046885Y0019690D01*
X0035074Y0019690D01*
X0027790Y0012604D02*
X0026609Y0011816D01*
X0026609Y0015360D01*
X0027790Y0012604D02*
X0027790Y0011029D01*
X0026609Y0011816D01*
X0026609Y0008273D01*
X0080350Y0049021D02*
X0083499Y0049021D01*
X0083499Y0052171D01*
X0095113Y0048234D02*
X0101019Y0048234D01*
X0101019Y0060045D01*
X0095113Y0060045D01*
X0095113Y0048234D01*
X0095113Y0067919D02*
X0095113Y0079730D01*
X0101019Y0079730D01*
X0101019Y0067919D01*
X0095113Y0067919D01*
X0093145Y0067919D02*
X0087239Y0067919D01*
X0087239Y0079730D01*
X0093145Y0079730D01*
X0093145Y0067919D01*
X0083499Y0075793D02*
X0083499Y0078942D01*
X0080350Y0078942D01*
X0082318Y0080714D02*
X0082318Y0086619D01*
X0094129Y0086619D01*
X0094129Y0080714D01*
X0082318Y0080714D01*
X0077200Y0085635D02*
X0077200Y0087604D01*
X0078381Y0088588D02*
X0078381Y0094493D01*
X0090192Y0094493D01*
X0090192Y0088588D01*
X0078381Y0088588D01*
X0075625Y0087604D02*
X0075625Y0085635D01*
X0073460Y0089572D02*
X0067554Y0089572D01*
X0067554Y0101383D01*
X0073460Y0101383D01*
X0073460Y0089572D01*
X0084877Y0096856D02*
X0084877Y0100399D01*
X0084877Y0103942D01*
X0083696Y0101186D02*
X0084877Y0100399D01*
X0083696Y0099612D01*
X0083696Y0101186D01*
X0056727Y0078942D02*
X0053578Y0078942D01*
X0053578Y0075793D01*
D14*
X0044511Y0075991D02*
X0044511Y0076434D01*
X0044069Y0076876D01*
X0042741Y0076876D01*
X0042741Y0075991D01*
X0043184Y0075549D01*
X0044069Y0075549D01*
X0044511Y0075991D01*
X0043626Y0077761D02*
X0042741Y0076876D01*
X0043626Y0077761D02*
X0044511Y0078204D01*
X0044511Y0079092D02*
X0042741Y0079092D01*
X0044511Y0080862D01*
X0044511Y0081305D01*
X0044069Y0081747D01*
X0043184Y0081747D01*
X0042741Y0081305D01*
X0041792Y0081747D02*
X0041792Y0079535D01*
X0041350Y0079092D01*
X0040465Y0079092D01*
X0040022Y0079535D01*
X0040022Y0081747D01*
X0040022Y0078204D02*
X0040022Y0075991D01*
X0040465Y0075549D01*
X0041350Y0075549D01*
X0041792Y0075991D01*
X0041792Y0078204D01*
X0033089Y0077996D02*
X0032204Y0077111D01*
X0032204Y0077554D02*
X0032204Y0076226D01*
X0033089Y0076226D02*
X0030434Y0076226D01*
X0030434Y0077554D01*
X0030877Y0077996D01*
X0031762Y0077996D01*
X0032204Y0077554D01*
X0031762Y0078945D02*
X0030434Y0078945D01*
X0030434Y0080715D01*
X0031319Y0080272D02*
X0031319Y0079830D01*
X0031762Y0078945D01*
X0032647Y0078945D02*
X0033089Y0079387D01*
X0033089Y0080272D01*
X0032647Y0080715D01*
X0031762Y0080715D01*
X0031319Y0080272D01*
X0023001Y0093746D02*
X0021231Y0093746D01*
X0020789Y0094188D01*
X0020789Y0095073D01*
X0021231Y0095516D01*
X0021674Y0096465D02*
X0020789Y0097350D01*
X0023444Y0097350D01*
X0023444Y0096465D02*
X0023444Y0098235D01*
X0022116Y0099183D02*
X0022116Y0100953D01*
X0020789Y0100511D02*
X0022116Y0099183D01*
X0020789Y0100511D02*
X0023444Y0100511D01*
X0023001Y0095516D02*
X0023444Y0095073D01*
X0023444Y0094188D01*
X0023001Y0093746D01*
X0029208Y0100070D02*
X0029651Y0099628D01*
X0030536Y0099628D01*
X0030978Y0100070D01*
X0031927Y0099628D02*
X0033697Y0099628D01*
X0032812Y0099628D02*
X0032812Y0102283D01*
X0031927Y0101398D01*
X0030978Y0101840D02*
X0030536Y0102283D01*
X0029651Y0102283D01*
X0029208Y0101840D01*
X0029208Y0100070D01*
X0034646Y0100070D02*
X0035088Y0099628D01*
X0035973Y0099628D01*
X0036416Y0100070D01*
X0036416Y0100955D01*
X0035973Y0101398D01*
X0035531Y0101398D01*
X0034646Y0100955D01*
X0034646Y0102283D01*
X0036416Y0102283D01*
X0051562Y0101779D02*
X0052005Y0101336D01*
X0052890Y0101336D01*
X0053333Y0101779D01*
X0053333Y0103991D01*
X0054281Y0102664D02*
X0056051Y0102664D01*
X0055609Y0103991D02*
X0054281Y0102664D01*
X0055609Y0103991D02*
X0055609Y0101336D01*
X0051562Y0101779D02*
X0051562Y0103991D01*
X0067594Y0104399D02*
X0067594Y0102629D01*
X0068036Y0102187D01*
X0068922Y0102187D01*
X0069364Y0102629D01*
X0070313Y0102629D02*
X0070755Y0102187D01*
X0071640Y0102187D01*
X0072083Y0102629D01*
X0072083Y0103072D01*
X0071640Y0103514D01*
X0070313Y0103514D01*
X0070313Y0102629D01*
X0070313Y0103514D02*
X0071198Y0104399D01*
X0072083Y0104842D01*
X0073938Y0103820D02*
X0073938Y0102935D01*
X0074381Y0102493D01*
X0074381Y0101544D02*
X0073938Y0101102D01*
X0073938Y0099774D01*
X0076593Y0099774D01*
X0076593Y0101102D01*
X0076151Y0101544D01*
X0074381Y0101544D01*
X0073938Y0103820D02*
X0074381Y0104263D01*
X0074823Y0104263D01*
X0076593Y0102493D01*
X0076593Y0104263D01*
X0076593Y0098825D02*
X0076593Y0097055D01*
X0073938Y0097055D01*
X0073938Y0098825D01*
X0075266Y0097940D02*
X0075266Y0097055D01*
X0076593Y0096106D02*
X0076593Y0094336D01*
X0073938Y0094336D01*
X0065570Y0087716D02*
X0065127Y0088158D01*
X0063357Y0088158D01*
X0062915Y0087716D01*
X0062915Y0086831D01*
X0063357Y0086388D01*
X0063800Y0086388D01*
X0064242Y0086831D01*
X0064242Y0088158D01*
X0065570Y0087716D02*
X0065570Y0086831D01*
X0065127Y0086388D01*
X0065570Y0085439D02*
X0065570Y0083669D01*
X0065570Y0084554D02*
X0062915Y0084554D01*
X0063800Y0083669D01*
X0063357Y0082721D02*
X0062915Y0082278D01*
X0062915Y0081393D01*
X0063357Y0080951D01*
X0065127Y0080951D01*
X0065570Y0081393D01*
X0065570Y0082278D01*
X0065127Y0082721D01*
X0078137Y0082535D02*
X0078137Y0080322D01*
X0078580Y0079880D01*
X0079465Y0079880D01*
X0079907Y0080322D01*
X0079907Y0082535D01*
X0080856Y0081650D02*
X0081741Y0082535D01*
X0081741Y0079880D01*
X0080856Y0079880D02*
X0082626Y0079880D01*
X0093775Y0087669D02*
X0094218Y0087226D01*
X0095103Y0087226D01*
X0095545Y0087669D01*
X0096494Y0087226D02*
X0098264Y0088996D01*
X0098264Y0089439D01*
X0097821Y0089881D01*
X0096936Y0089881D01*
X0096494Y0089439D01*
X0095545Y0089439D02*
X0095103Y0089881D01*
X0094218Y0089881D01*
X0093775Y0089439D01*
X0093775Y0087669D01*
X0093255Y0089513D02*
X0090600Y0089513D01*
X0090600Y0090840D01*
X0091042Y0091283D01*
X0091927Y0091283D01*
X0092370Y0090840D01*
X0092370Y0089513D01*
X0092370Y0090398D02*
X0093255Y0091283D01*
X0092812Y0092232D02*
X0093255Y0092674D01*
X0093255Y0093559D01*
X0092812Y0094002D01*
X0092370Y0094002D01*
X0091927Y0093559D01*
X0091927Y0093117D01*
X0091927Y0093559D02*
X0091485Y0094002D01*
X0091042Y0094002D01*
X0090600Y0093559D01*
X0090600Y0092674D01*
X0091042Y0092232D01*
X0096494Y0087226D02*
X0098264Y0087226D01*
X0099213Y0087226D02*
X0100983Y0087226D01*
X0100098Y0087226D02*
X0100098Y0089881D01*
X0099213Y0088996D01*
X0097930Y0067033D02*
X0097488Y0067033D01*
X0097045Y0066591D01*
X0097045Y0065263D01*
X0097930Y0065263D01*
X0098373Y0065706D01*
X0098373Y0066591D01*
X0097930Y0067033D01*
X0096160Y0066148D02*
X0097045Y0065263D01*
X0097045Y0064314D02*
X0097488Y0063872D01*
X0097488Y0062544D01*
X0098373Y0062544D02*
X0095718Y0062544D01*
X0095718Y0063872D01*
X0096160Y0064314D01*
X0097045Y0064314D01*
X0097488Y0063429D02*
X0098373Y0064314D01*
X0096160Y0066148D02*
X0095718Y0067033D01*
X0091089Y0066788D02*
X0091089Y0065902D01*
X0090647Y0065460D01*
X0088877Y0067230D01*
X0090647Y0067230D01*
X0091089Y0066788D01*
X0090647Y0065460D02*
X0088877Y0065460D01*
X0088434Y0065902D01*
X0088434Y0066788D01*
X0088877Y0067230D01*
X0091089Y0064511D02*
X0091089Y0062741D01*
X0091089Y0063626D02*
X0088434Y0063626D01*
X0089319Y0062741D01*
X0088877Y0061792D02*
X0088434Y0061350D01*
X0088434Y0060465D01*
X0088877Y0060022D01*
X0090647Y0060022D01*
X0091089Y0060465D01*
X0091089Y0061350D01*
X0090647Y0061792D01*
X0092294Y0052762D02*
X0092737Y0052762D01*
X0093179Y0052320D01*
X0093622Y0052762D01*
X0094064Y0052762D01*
X0094507Y0052320D01*
X0094507Y0051435D01*
X0094064Y0050992D01*
X0094064Y0050043D02*
X0094507Y0049601D01*
X0094507Y0048716D01*
X0094064Y0048273D01*
X0092294Y0048273D01*
X0091852Y0048716D01*
X0091852Y0049601D01*
X0092294Y0050043D01*
X0092294Y0050992D02*
X0091852Y0051435D01*
X0091852Y0052320D01*
X0092294Y0052762D01*
X0093179Y0052320D02*
X0093179Y0051877D01*
X0089270Y0046314D02*
X0088385Y0046314D01*
X0087943Y0045872D01*
X0086994Y0046314D02*
X0086994Y0044102D01*
X0086551Y0043659D01*
X0085666Y0043659D01*
X0085224Y0044102D01*
X0085224Y0046314D01*
X0087943Y0044102D02*
X0088385Y0043659D01*
X0089270Y0043659D01*
X0089713Y0044102D01*
X0089713Y0044544D01*
X0089270Y0044987D01*
X0088828Y0044987D01*
X0089270Y0044987D02*
X0089713Y0045429D01*
X0089713Y0045872D01*
X0089270Y0046314D01*
X0071996Y0046314D02*
X0070226Y0046314D01*
X0070226Y0044987D01*
X0071111Y0045429D01*
X0071554Y0045429D01*
X0071996Y0044987D01*
X0071996Y0044102D01*
X0071554Y0043659D01*
X0070669Y0043659D01*
X0070226Y0044102D01*
X0069277Y0044102D02*
X0068835Y0043659D01*
X0067950Y0043659D01*
X0067507Y0044102D01*
X0067507Y0046314D01*
X0069277Y0046314D02*
X0069277Y0044102D01*
X0064110Y0044432D02*
X0063667Y0043990D01*
X0062782Y0043990D01*
X0062340Y0044432D01*
X0061391Y0043990D02*
X0059621Y0043990D01*
X0061391Y0045760D01*
X0061391Y0046202D01*
X0060948Y0046645D01*
X0060063Y0046645D01*
X0059621Y0046202D01*
X0058672Y0046202D02*
X0058230Y0046645D01*
X0057344Y0046645D01*
X0056902Y0046202D01*
X0056902Y0044432D01*
X0057344Y0043990D01*
X0058230Y0043990D01*
X0058672Y0044432D01*
X0062340Y0046202D02*
X0062782Y0046645D01*
X0063667Y0046645D01*
X0064110Y0046202D01*
X0064110Y0045760D01*
X0063667Y0045317D01*
X0064110Y0044875D01*
X0064110Y0044432D01*
X0063667Y0045317D02*
X0063225Y0045317D01*
X0051770Y0045346D02*
X0051328Y0044903D01*
X0050443Y0044903D01*
X0050000Y0045346D01*
X0051770Y0047116D01*
X0051770Y0045346D01*
X0051770Y0047116D02*
X0051328Y0047558D01*
X0050443Y0047558D01*
X0050000Y0047116D01*
X0050000Y0045346D01*
X0049051Y0044903D02*
X0047281Y0044903D01*
X0049051Y0046673D01*
X0049051Y0047116D01*
X0048609Y0047558D01*
X0047724Y0047558D01*
X0047281Y0047116D01*
X0046333Y0047116D02*
X0045890Y0047558D01*
X0045005Y0047558D01*
X0044562Y0047116D01*
X0044562Y0045346D01*
X0045005Y0044903D01*
X0045890Y0044903D01*
X0046333Y0045346D01*
X0043637Y0044974D02*
X0041867Y0044974D01*
X0043637Y0046744D01*
X0043637Y0047187D01*
X0043195Y0047629D01*
X0042310Y0047629D01*
X0041867Y0047187D01*
X0040918Y0047187D02*
X0040476Y0047629D01*
X0039591Y0047629D01*
X0039148Y0047187D01*
X0038200Y0047187D02*
X0037757Y0047629D01*
X0036872Y0047629D01*
X0036430Y0047187D01*
X0036430Y0045417D01*
X0036872Y0044974D01*
X0037757Y0044974D01*
X0038200Y0045417D01*
X0039148Y0044974D02*
X0040918Y0046744D01*
X0040918Y0047187D01*
X0040918Y0044974D02*
X0039148Y0044974D01*
X0034385Y0046302D02*
X0032615Y0046302D01*
X0033943Y0047629D01*
X0033943Y0044974D01*
X0031666Y0044974D02*
X0030781Y0045859D01*
X0031224Y0045859D02*
X0029896Y0045859D01*
X0029896Y0044974D02*
X0029896Y0047629D01*
X0031224Y0047629D01*
X0031666Y0047187D01*
X0031666Y0046302D01*
X0031224Y0045859D01*
X0027692Y0044974D02*
X0025922Y0044974D01*
X0027692Y0046744D01*
X0027692Y0047187D01*
X0027250Y0047629D01*
X0026365Y0047629D01*
X0025922Y0047187D01*
X0024974Y0047187D02*
X0024531Y0047629D01*
X0023646Y0047629D01*
X0023204Y0047187D01*
X0023204Y0045417D01*
X0023646Y0044974D01*
X0024531Y0044974D01*
X0024974Y0045417D01*
X0023640Y0038552D02*
X0023640Y0036782D01*
X0023640Y0037667D02*
X0020985Y0037667D01*
X0021870Y0036782D01*
X0023640Y0035833D02*
X0023640Y0034063D01*
X0023640Y0034948D02*
X0020985Y0034948D01*
X0021870Y0034063D01*
X0021428Y0033114D02*
X0020985Y0032672D01*
X0020985Y0031787D01*
X0021428Y0031344D01*
X0023198Y0031344D01*
X0023640Y0031787D01*
X0023640Y0032672D01*
X0023198Y0033114D01*
X0035507Y0023739D02*
X0036835Y0023739D01*
X0037277Y0023297D01*
X0037277Y0022412D01*
X0036835Y0021969D01*
X0035507Y0021969D01*
X0035507Y0021084D02*
X0035507Y0023739D01*
X0035704Y0025218D02*
X0035704Y0027873D01*
X0037032Y0027873D01*
X0037474Y0027431D01*
X0037474Y0026546D01*
X0037032Y0026103D01*
X0035704Y0026103D01*
X0036589Y0026103D02*
X0037474Y0025218D01*
X0038423Y0025218D02*
X0038423Y0025661D01*
X0040193Y0027431D01*
X0040193Y0027873D01*
X0038423Y0027873D01*
X0038749Y0030360D02*
X0036979Y0030360D01*
X0036537Y0030802D01*
X0036537Y0031687D01*
X0036979Y0032130D01*
X0036537Y0033079D02*
X0037864Y0033079D01*
X0037422Y0033964D01*
X0037422Y0034406D01*
X0037864Y0034849D01*
X0038749Y0034849D01*
X0039192Y0034406D01*
X0039192Y0033521D01*
X0038749Y0033079D01*
X0038749Y0032130D02*
X0039192Y0031687D01*
X0039192Y0030802D01*
X0038749Y0030360D01*
X0036537Y0033079D02*
X0036537Y0034849D01*
X0043623Y0033028D02*
X0044951Y0031701D01*
X0044951Y0033471D01*
X0046278Y0033028D02*
X0043623Y0033028D01*
X0044066Y0030752D02*
X0043623Y0030310D01*
X0043623Y0029425D01*
X0044066Y0028982D01*
X0045836Y0028982D01*
X0046278Y0029425D01*
X0046278Y0030310D01*
X0045836Y0030752D01*
X0039554Y0023739D02*
X0038669Y0023739D01*
X0038226Y0023297D01*
X0038226Y0022854D01*
X0038669Y0022412D01*
X0039554Y0022412D01*
X0039996Y0021969D01*
X0039996Y0021527D01*
X0039554Y0021084D01*
X0038669Y0021084D01*
X0038226Y0021527D01*
X0038226Y0021969D01*
X0038669Y0022412D01*
X0039554Y0022412D02*
X0039996Y0022854D01*
X0039996Y0023297D01*
X0039554Y0023739D01*
X0037277Y0021084D02*
X0036392Y0021969D01*
X0047293Y0018510D02*
X0048178Y0017625D01*
X0048620Y0016677D02*
X0047735Y0016677D01*
X0047293Y0016234D01*
X0047293Y0014907D01*
X0049948Y0014907D01*
X0049063Y0014907D02*
X0049063Y0016234D01*
X0048620Y0016677D01*
X0049063Y0015792D02*
X0049948Y0016677D01*
X0049948Y0017625D02*
X0049948Y0019395D01*
X0049948Y0018510D02*
X0047293Y0018510D01*
X0047932Y0012899D02*
X0047489Y0012457D01*
X0047489Y0011572D01*
X0047932Y0011129D01*
X0047932Y0010180D02*
X0048817Y0010180D01*
X0049259Y0009738D01*
X0049259Y0008410D01*
X0050144Y0008410D02*
X0047489Y0008410D01*
X0047489Y0009738D01*
X0047932Y0010180D01*
X0049259Y0009295D02*
X0050144Y0010180D01*
X0050144Y0011129D02*
X0048374Y0012899D01*
X0047932Y0012899D01*
X0050144Y0012899D02*
X0050144Y0011129D01*
X0022796Y0017147D02*
X0021026Y0017147D01*
X0021911Y0017147D02*
X0021911Y0019802D01*
X0021026Y0018917D01*
X0020077Y0019360D02*
X0020077Y0017590D01*
X0019635Y0017147D01*
X0018307Y0017147D01*
X0018307Y0019802D01*
X0019635Y0019802D01*
X0020077Y0019360D01*
X0017358Y0019802D02*
X0015588Y0019802D01*
X0015588Y0017147D01*
X0017358Y0017147D01*
X0016473Y0018475D02*
X0015588Y0018475D01*
X0014640Y0017147D02*
X0012870Y0017147D01*
X0012870Y0019802D01*
X0009288Y0041163D02*
X0007518Y0041163D01*
X0008403Y0041163D02*
X0008403Y0043818D01*
X0007518Y0042933D01*
X0006569Y0043376D02*
X0006126Y0043818D01*
X0005241Y0043818D01*
X0004799Y0043376D01*
X0004799Y0041606D01*
X0005241Y0041163D01*
X0006126Y0041163D01*
X0006569Y0041606D01*
X0007356Y0044577D02*
X0005586Y0044577D01*
X0007356Y0044577D02*
X0008241Y0045462D01*
X0007356Y0046347D01*
X0005586Y0046347D01*
X0005586Y0047296D02*
X0005586Y0048624D01*
X0006028Y0049066D01*
X0006913Y0049066D01*
X0007356Y0048624D01*
X0007356Y0047296D01*
X0008241Y0047296D02*
X0005586Y0047296D01*
X0007356Y0048181D02*
X0008241Y0049066D01*
X0008241Y0050015D02*
X0008241Y0051785D01*
X0008241Y0050900D02*
X0005586Y0050900D01*
X0006471Y0050015D01*
X0030586Y0061487D02*
X0031029Y0061045D01*
X0031914Y0061045D01*
X0032356Y0061487D01*
X0033305Y0061487D02*
X0033305Y0061045D01*
X0033305Y0061487D02*
X0035075Y0063258D01*
X0035075Y0063700D01*
X0033305Y0063700D01*
X0032356Y0063258D02*
X0031914Y0063700D01*
X0031029Y0063700D01*
X0030586Y0063258D01*
X0030586Y0061487D01*
X0067594Y0104399D02*
X0068036Y0104842D01*
X0068922Y0104842D01*
X0069364Y0104399D01*
D15*
X0062633Y0100596D02*
X0062635Y0100665D01*
X0062641Y0100733D01*
X0062651Y0100801D01*
X0062665Y0100868D01*
X0062683Y0100935D01*
X0062704Y0101000D01*
X0062730Y0101064D01*
X0062759Y0101126D01*
X0062791Y0101186D01*
X0062827Y0101245D01*
X0062867Y0101301D01*
X0062909Y0101355D01*
X0062955Y0101406D01*
X0063004Y0101455D01*
X0063055Y0101501D01*
X0063109Y0101543D01*
X0063165Y0101583D01*
X0063223Y0101619D01*
X0063284Y0101651D01*
X0063346Y0101680D01*
X0063410Y0101706D01*
X0063475Y0101727D01*
X0063542Y0101745D01*
X0063609Y0101759D01*
X0063677Y0101769D01*
X0063745Y0101775D01*
X0063814Y0101777D01*
X0063883Y0101775D01*
X0063951Y0101769D01*
X0064019Y0101759D01*
X0064086Y0101745D01*
X0064153Y0101727D01*
X0064218Y0101706D01*
X0064282Y0101680D01*
X0064344Y0101651D01*
X0064404Y0101619D01*
X0064463Y0101583D01*
X0064519Y0101543D01*
X0064573Y0101501D01*
X0064624Y0101455D01*
X0064673Y0101406D01*
X0064719Y0101355D01*
X0064761Y0101301D01*
X0064801Y0101245D01*
X0064837Y0101186D01*
X0064869Y0101126D01*
X0064898Y0101064D01*
X0064924Y0101000D01*
X0064945Y0100935D01*
X0064963Y0100868D01*
X0064977Y0100801D01*
X0064987Y0100733D01*
X0064993Y0100665D01*
X0064995Y0100596D01*
X0064993Y0100527D01*
X0064987Y0100459D01*
X0064977Y0100391D01*
X0064963Y0100324D01*
X0064945Y0100257D01*
X0064924Y0100192D01*
X0064898Y0100128D01*
X0064869Y0100066D01*
X0064837Y0100005D01*
X0064801Y0099947D01*
X0064761Y0099891D01*
X0064719Y0099837D01*
X0064673Y0099786D01*
X0064624Y0099737D01*
X0064573Y0099691D01*
X0064519Y0099649D01*
X0064463Y0099609D01*
X0064405Y0099573D01*
X0064344Y0099541D01*
X0064282Y0099512D01*
X0064218Y0099486D01*
X0064153Y0099465D01*
X0064086Y0099447D01*
X0064019Y0099433D01*
X0063951Y0099423D01*
X0063883Y0099417D01*
X0063814Y0099415D01*
X0063745Y0099417D01*
X0063677Y0099423D01*
X0063609Y0099433D01*
X0063542Y0099447D01*
X0063475Y0099465D01*
X0063410Y0099486D01*
X0063346Y0099512D01*
X0063284Y0099541D01*
X0063223Y0099573D01*
X0063165Y0099609D01*
X0063109Y0099649D01*
X0063055Y0099691D01*
X0063004Y0099737D01*
X0062955Y0099786D01*
X0062909Y0099837D01*
X0062867Y0099891D01*
X0062827Y0099947D01*
X0062791Y0100005D01*
X0062759Y0100066D01*
X0062730Y0100128D01*
X0062704Y0100192D01*
X0062683Y0100257D01*
X0062665Y0100324D01*
X0062651Y0100391D01*
X0062641Y0100459D01*
X0062635Y0100527D01*
X0062633Y0100596D01*
X0061058Y0100596D01*
X0063814Y0099415D02*
X0063814Y0099021D01*
X0063814Y0091934D02*
X0063814Y0090360D01*
X0061058Y0090360D01*
X0056334Y0090360D02*
X0053578Y0090360D01*
X0053578Y0091934D01*
X0053578Y0099021D02*
X0053578Y0100596D01*
X0056334Y0100596D01*
X0077287Y0104399D02*
X0077287Y0096399D01*
X0091287Y0096399D01*
X0091287Y0104399D02*
X0077287Y0104399D01*
X0023499Y0092604D02*
X0023499Y0062604D01*
X0003499Y0062604D01*
X0003499Y0092604D01*
X0023499Y0092604D01*
X0013499Y0092604D02*
X0013499Y0082604D01*
X0003499Y0082604D01*
X0003381Y0040360D02*
X0021098Y0040360D01*
X0021098Y0030517D01*
X0023066Y0030517D01*
X0023066Y0026580D01*
X0021098Y0026580D01*
X0021098Y0016738D01*
X0003381Y0016738D01*
X0003381Y0040360D01*
X0020200Y0015816D02*
X0034200Y0015816D01*
X0034200Y0007816D01*
X0020200Y0007816D01*
X0052475Y0006738D02*
X0052475Y0026738D01*
X0092475Y0026738D01*
X0092475Y0006738D01*
X0052475Y0006738D01*
X0062475Y0006738D02*
X0062475Y0016738D01*
X0052475Y0016738D01*
X0067594Y0029730D02*
X0082121Y0029730D01*
X0082121Y0043115D01*
X0066570Y0043115D01*
X0066570Y0032486D01*
X0064995Y0030911D02*
X0064997Y0030990D01*
X0065003Y0031069D01*
X0065013Y0031148D01*
X0065027Y0031226D01*
X0065044Y0031303D01*
X0065066Y0031379D01*
X0065091Y0031454D01*
X0065121Y0031527D01*
X0065153Y0031599D01*
X0065190Y0031670D01*
X0065230Y0031738D01*
X0065273Y0031804D01*
X0065319Y0031868D01*
X0065369Y0031930D01*
X0065422Y0031989D01*
X0065477Y0032045D01*
X0065536Y0032099D01*
X0065597Y0032149D01*
X0065660Y0032197D01*
X0065726Y0032241D01*
X0065794Y0032282D01*
X0065864Y0032319D01*
X0065935Y0032353D01*
X0066009Y0032383D01*
X0066083Y0032409D01*
X0066159Y0032431D01*
X0066236Y0032450D01*
X0066314Y0032465D01*
X0066392Y0032476D01*
X0066471Y0032483D01*
X0066550Y0032486D01*
X0066629Y0032485D01*
X0066708Y0032480D01*
X0066787Y0032471D01*
X0066865Y0032458D01*
X0066942Y0032441D01*
X0067019Y0032421D01*
X0067094Y0032396D01*
X0067168Y0032368D01*
X0067241Y0032336D01*
X0067311Y0032301D01*
X0067380Y0032262D01*
X0067447Y0032219D01*
X0067512Y0032173D01*
X0067574Y0032125D01*
X0067634Y0032073D01*
X0067691Y0032018D01*
X0067745Y0031960D01*
X0067796Y0031900D01*
X0067844Y0031837D01*
X0067889Y0031772D01*
X0067931Y0031704D01*
X0067969Y0031635D01*
X0068003Y0031564D01*
X0068034Y0031491D01*
X0068062Y0031416D01*
X0068085Y0031341D01*
X0068105Y0031264D01*
X0068121Y0031187D01*
X0068133Y0031108D01*
X0068141Y0031030D01*
X0068145Y0030951D01*
X0068145Y0030871D01*
X0068141Y0030792D01*
X0068133Y0030714D01*
X0068121Y0030635D01*
X0068105Y0030558D01*
X0068085Y0030481D01*
X0068062Y0030406D01*
X0068034Y0030331D01*
X0068003Y0030258D01*
X0067969Y0030187D01*
X0067931Y0030118D01*
X0067889Y0030050D01*
X0067844Y0029985D01*
X0067796Y0029922D01*
X0067745Y0029862D01*
X0067691Y0029804D01*
X0067634Y0029749D01*
X0067574Y0029697D01*
X0067512Y0029649D01*
X0067447Y0029603D01*
X0067380Y0029560D01*
X0067311Y0029521D01*
X0067241Y0029486D01*
X0067168Y0029454D01*
X0067094Y0029426D01*
X0067019Y0029401D01*
X0066942Y0029381D01*
X0066865Y0029364D01*
X0066787Y0029351D01*
X0066708Y0029342D01*
X0066629Y0029337D01*
X0066550Y0029336D01*
X0066471Y0029339D01*
X0066392Y0029346D01*
X0066314Y0029357D01*
X0066236Y0029372D01*
X0066159Y0029391D01*
X0066083Y0029413D01*
X0066009Y0029439D01*
X0065935Y0029469D01*
X0065864Y0029503D01*
X0065794Y0029540D01*
X0065726Y0029581D01*
X0065660Y0029625D01*
X0065597Y0029673D01*
X0065536Y0029723D01*
X0065477Y0029777D01*
X0065422Y0029833D01*
X0065369Y0029892D01*
X0065319Y0029954D01*
X0065273Y0030018D01*
X0065230Y0030084D01*
X0065190Y0030152D01*
X0065153Y0030223D01*
X0065121Y0030295D01*
X0065091Y0030368D01*
X0065066Y0030443D01*
X0065044Y0030519D01*
X0065027Y0030596D01*
X0065013Y0030674D01*
X0065003Y0030753D01*
X0064997Y0030832D01*
X0064995Y0030911D01*
X0082712Y0030911D02*
X0082714Y0030990D01*
X0082720Y0031069D01*
X0082730Y0031148D01*
X0082744Y0031226D01*
X0082761Y0031303D01*
X0082783Y0031379D01*
X0082808Y0031454D01*
X0082838Y0031527D01*
X0082870Y0031599D01*
X0082907Y0031670D01*
X0082947Y0031738D01*
X0082990Y0031804D01*
X0083036Y0031868D01*
X0083086Y0031930D01*
X0083139Y0031989D01*
X0083194Y0032045D01*
X0083253Y0032099D01*
X0083314Y0032149D01*
X0083377Y0032197D01*
X0083443Y0032241D01*
X0083511Y0032282D01*
X0083581Y0032319D01*
X0083652Y0032353D01*
X0083726Y0032383D01*
X0083800Y0032409D01*
X0083876Y0032431D01*
X0083953Y0032450D01*
X0084031Y0032465D01*
X0084109Y0032476D01*
X0084188Y0032483D01*
X0084267Y0032486D01*
X0084346Y0032485D01*
X0084425Y0032480D01*
X0084504Y0032471D01*
X0084582Y0032458D01*
X0084659Y0032441D01*
X0084736Y0032421D01*
X0084811Y0032396D01*
X0084885Y0032368D01*
X0084958Y0032336D01*
X0085028Y0032301D01*
X0085097Y0032262D01*
X0085164Y0032219D01*
X0085229Y0032173D01*
X0085291Y0032125D01*
X0085351Y0032073D01*
X0085408Y0032018D01*
X0085462Y0031960D01*
X0085513Y0031900D01*
X0085561Y0031837D01*
X0085606Y0031772D01*
X0085648Y0031704D01*
X0085686Y0031635D01*
X0085720Y0031564D01*
X0085751Y0031491D01*
X0085779Y0031416D01*
X0085802Y0031341D01*
X0085822Y0031264D01*
X0085838Y0031187D01*
X0085850Y0031108D01*
X0085858Y0031030D01*
X0085862Y0030951D01*
X0085862Y0030871D01*
X0085858Y0030792D01*
X0085850Y0030714D01*
X0085838Y0030635D01*
X0085822Y0030558D01*
X0085802Y0030481D01*
X0085779Y0030406D01*
X0085751Y0030331D01*
X0085720Y0030258D01*
X0085686Y0030187D01*
X0085648Y0030118D01*
X0085606Y0030050D01*
X0085561Y0029985D01*
X0085513Y0029922D01*
X0085462Y0029862D01*
X0085408Y0029804D01*
X0085351Y0029749D01*
X0085291Y0029697D01*
X0085229Y0029649D01*
X0085164Y0029603D01*
X0085097Y0029560D01*
X0085028Y0029521D01*
X0084958Y0029486D01*
X0084885Y0029454D01*
X0084811Y0029426D01*
X0084736Y0029401D01*
X0084659Y0029381D01*
X0084582Y0029364D01*
X0084504Y0029351D01*
X0084425Y0029342D01*
X0084346Y0029337D01*
X0084267Y0029336D01*
X0084188Y0029339D01*
X0084109Y0029346D01*
X0084031Y0029357D01*
X0083953Y0029372D01*
X0083876Y0029391D01*
X0083800Y0029413D01*
X0083726Y0029439D01*
X0083652Y0029469D01*
X0083581Y0029503D01*
X0083511Y0029540D01*
X0083443Y0029581D01*
X0083377Y0029625D01*
X0083314Y0029673D01*
X0083253Y0029723D01*
X0083194Y0029777D01*
X0083139Y0029833D01*
X0083086Y0029892D01*
X0083036Y0029954D01*
X0082990Y0030018D01*
X0082947Y0030084D01*
X0082907Y0030152D01*
X0082870Y0030223D01*
X0082838Y0030295D01*
X0082808Y0030368D01*
X0082783Y0030443D01*
X0082761Y0030519D01*
X0082744Y0030596D01*
X0082730Y0030674D01*
X0082720Y0030753D01*
X0082714Y0030832D01*
X0082712Y0030911D01*
X0084287Y0032486D02*
X0084287Y0043115D01*
X0099838Y0043115D01*
X0099838Y0029730D01*
X0085310Y0029730D01*
D16*
X0020310Y0011816D03*
X0091176Y0100399D03*
M02*
