G75*
%MOIN*%
%OFA0B0*%
%FSLAX25Y25*%
%IPPOS*%
%LPD*%
%AMOC8*
5,1,8,0,0,1.08239X$1,22.5*
%
%ADD10C,0.00000*%
%ADD11C,0.04724*%
%ADD12C,0.06000*%
%ADD13C,0.03000*%
%ADD14C,0.02178*%
%ADD15C,0.02953*%
%ADD16C,0.00984*%
%ADD17C,0.05906*%
%ADD18C,0.02953*%
%ADD19C,0.01969*%
D10*
X0009483Y0006895D02*
X0096098Y0006895D01*
X0096250Y0006897D01*
X0096402Y0006903D01*
X0096554Y0006913D01*
X0096705Y0006926D01*
X0096856Y0006944D01*
X0097007Y0006965D01*
X0097157Y0006991D01*
X0097306Y0007020D01*
X0097455Y0007053D01*
X0097602Y0007090D01*
X0097749Y0007130D01*
X0097894Y0007175D01*
X0098038Y0007223D01*
X0098181Y0007275D01*
X0098323Y0007330D01*
X0098463Y0007389D01*
X0098602Y0007452D01*
X0098739Y0007518D01*
X0098874Y0007588D01*
X0099007Y0007661D01*
X0099138Y0007738D01*
X0099268Y0007818D01*
X0099395Y0007901D01*
X0099520Y0007987D01*
X0099643Y0008077D01*
X0099763Y0008170D01*
X0099881Y0008266D01*
X0099997Y0008365D01*
X0100110Y0008467D01*
X0100220Y0008571D01*
X0100328Y0008679D01*
X0100432Y0008789D01*
X0100534Y0008902D01*
X0100633Y0009018D01*
X0100729Y0009136D01*
X0100822Y0009256D01*
X0100912Y0009379D01*
X0100998Y0009504D01*
X0101081Y0009631D01*
X0101161Y0009761D01*
X0101238Y0009892D01*
X0101311Y0010025D01*
X0101381Y0010160D01*
X0101447Y0010297D01*
X0101510Y0010436D01*
X0101569Y0010576D01*
X0101624Y0010718D01*
X0101676Y0010861D01*
X0101724Y0011005D01*
X0101769Y0011150D01*
X0101809Y0011297D01*
X0101846Y0011444D01*
X0101879Y0011593D01*
X0101908Y0011742D01*
X0101934Y0011892D01*
X0101955Y0012043D01*
X0101973Y0012194D01*
X0101986Y0012345D01*
X0101996Y0012497D01*
X0102002Y0012649D01*
X0102004Y0012801D01*
X0102003Y0012801D02*
X0102003Y0099415D01*
X0102004Y0099415D02*
X0102002Y0099567D01*
X0101996Y0099719D01*
X0101986Y0099871D01*
X0101973Y0100022D01*
X0101955Y0100173D01*
X0101934Y0100324D01*
X0101908Y0100474D01*
X0101879Y0100623D01*
X0101846Y0100772D01*
X0101809Y0100919D01*
X0101769Y0101066D01*
X0101724Y0101211D01*
X0101676Y0101355D01*
X0101624Y0101498D01*
X0101569Y0101640D01*
X0101510Y0101780D01*
X0101447Y0101919D01*
X0101381Y0102056D01*
X0101311Y0102191D01*
X0101238Y0102324D01*
X0101161Y0102455D01*
X0101081Y0102585D01*
X0100998Y0102712D01*
X0100912Y0102837D01*
X0100822Y0102960D01*
X0100729Y0103080D01*
X0100633Y0103198D01*
X0100534Y0103314D01*
X0100432Y0103427D01*
X0100328Y0103537D01*
X0100220Y0103645D01*
X0100110Y0103749D01*
X0099997Y0103851D01*
X0099881Y0103950D01*
X0099763Y0104046D01*
X0099643Y0104139D01*
X0099520Y0104229D01*
X0099395Y0104315D01*
X0099268Y0104398D01*
X0099138Y0104478D01*
X0099007Y0104555D01*
X0098874Y0104628D01*
X0098739Y0104698D01*
X0098602Y0104764D01*
X0098463Y0104827D01*
X0098323Y0104886D01*
X0098181Y0104941D01*
X0098038Y0104993D01*
X0097894Y0105041D01*
X0097749Y0105086D01*
X0097602Y0105126D01*
X0097455Y0105163D01*
X0097306Y0105196D01*
X0097157Y0105225D01*
X0097007Y0105251D01*
X0096856Y0105272D01*
X0096705Y0105290D01*
X0096554Y0105303D01*
X0096402Y0105313D01*
X0096250Y0105319D01*
X0096098Y0105321D01*
X0096098Y0105320D02*
X0009483Y0105320D01*
X0009483Y0105321D02*
X0009331Y0105319D01*
X0009179Y0105313D01*
X0009027Y0105303D01*
X0008876Y0105290D01*
X0008725Y0105272D01*
X0008574Y0105251D01*
X0008424Y0105225D01*
X0008275Y0105196D01*
X0008126Y0105163D01*
X0007979Y0105126D01*
X0007832Y0105086D01*
X0007687Y0105041D01*
X0007543Y0104993D01*
X0007400Y0104941D01*
X0007258Y0104886D01*
X0007118Y0104827D01*
X0006979Y0104764D01*
X0006842Y0104698D01*
X0006707Y0104628D01*
X0006574Y0104555D01*
X0006443Y0104478D01*
X0006313Y0104398D01*
X0006186Y0104315D01*
X0006061Y0104229D01*
X0005938Y0104139D01*
X0005818Y0104046D01*
X0005700Y0103950D01*
X0005584Y0103851D01*
X0005471Y0103749D01*
X0005361Y0103645D01*
X0005253Y0103537D01*
X0005149Y0103427D01*
X0005047Y0103314D01*
X0004948Y0103198D01*
X0004852Y0103080D01*
X0004759Y0102960D01*
X0004669Y0102837D01*
X0004583Y0102712D01*
X0004500Y0102585D01*
X0004420Y0102455D01*
X0004343Y0102324D01*
X0004270Y0102191D01*
X0004200Y0102056D01*
X0004134Y0101919D01*
X0004071Y0101780D01*
X0004012Y0101640D01*
X0003957Y0101498D01*
X0003905Y0101355D01*
X0003857Y0101211D01*
X0003812Y0101066D01*
X0003772Y0100919D01*
X0003735Y0100772D01*
X0003702Y0100623D01*
X0003673Y0100474D01*
X0003647Y0100324D01*
X0003626Y0100173D01*
X0003608Y0100022D01*
X0003595Y0099871D01*
X0003585Y0099719D01*
X0003579Y0099567D01*
X0003577Y0099415D01*
X0003578Y0099415D02*
X0003578Y0012801D01*
X0003577Y0012801D02*
X0003579Y0012649D01*
X0003585Y0012497D01*
X0003595Y0012345D01*
X0003608Y0012194D01*
X0003626Y0012043D01*
X0003647Y0011892D01*
X0003673Y0011742D01*
X0003702Y0011593D01*
X0003735Y0011444D01*
X0003772Y0011297D01*
X0003812Y0011150D01*
X0003857Y0011005D01*
X0003905Y0010861D01*
X0003957Y0010718D01*
X0004012Y0010576D01*
X0004071Y0010436D01*
X0004134Y0010297D01*
X0004200Y0010160D01*
X0004270Y0010025D01*
X0004343Y0009892D01*
X0004420Y0009761D01*
X0004500Y0009631D01*
X0004583Y0009504D01*
X0004669Y0009379D01*
X0004759Y0009256D01*
X0004852Y0009136D01*
X0004948Y0009018D01*
X0005047Y0008902D01*
X0005149Y0008789D01*
X0005253Y0008679D01*
X0005361Y0008571D01*
X0005471Y0008467D01*
X0005584Y0008365D01*
X0005700Y0008266D01*
X0005818Y0008170D01*
X0005938Y0008077D01*
X0006061Y0007987D01*
X0006186Y0007901D01*
X0006313Y0007818D01*
X0006443Y0007738D01*
X0006574Y0007661D01*
X0006707Y0007588D01*
X0006842Y0007518D01*
X0006979Y0007452D01*
X0007118Y0007389D01*
X0007258Y0007330D01*
X0007400Y0007275D01*
X0007543Y0007223D01*
X0007687Y0007175D01*
X0007832Y0007130D01*
X0007979Y0007090D01*
X0008126Y0007053D01*
X0008275Y0007020D01*
X0008424Y0006991D01*
X0008574Y0006965D01*
X0008725Y0006944D01*
X0008876Y0006926D01*
X0009027Y0006913D01*
X0009179Y0006903D01*
X0009331Y0006897D01*
X0009483Y0006895D01*
D11*
X0014405Y0024612D03*
X0014405Y0032486D03*
D12*
X0018499Y0067604D03*
X0018499Y0077604D03*
X0008499Y0077604D03*
X0008499Y0067604D03*
X0008499Y0087604D03*
X0018499Y0087604D03*
X0057475Y0021738D03*
X0067475Y0021738D03*
X0077475Y0021738D03*
X0087475Y0021738D03*
X0087475Y0011738D03*
X0077475Y0011738D03*
X0067475Y0011738D03*
X0057475Y0011738D03*
D13*
X0076413Y0083667D03*
X0076413Y0089572D03*
D14*
X0074641Y0092328D03*
X0070901Y0087013D03*
X0067554Y0088391D03*
X0063814Y0085438D03*
X0050822Y0079730D03*
X0046688Y0081108D03*
X0049838Y0085438D03*
X0050428Y0091344D03*
X0050428Y0094493D03*
X0047082Y0096462D03*
X0050428Y0098037D03*
X0034090Y0097446D03*
X0031334Y0094887D03*
X0027200Y0099415D03*
X0019326Y0101383D03*
X0008499Y0094887D03*
X0034090Y0081501D03*
X0043735Y0072840D03*
X0046688Y0066738D03*
X0050822Y0070871D03*
X0043932Y0061226D03*
X0037042Y0063982D03*
X0031137Y0063982D03*
X0037042Y0069887D03*
X0050625Y0057486D03*
X0050822Y0050989D03*
X0046885Y0047052D03*
X0040979Y0047249D03*
X0035074Y0047052D03*
X0037239Y0039572D03*
X0040586Y0030714D03*
X0037042Y0026580D03*
X0043932Y0023824D03*
X0050035Y0010832D03*
X0022869Y0033273D03*
X0018342Y0037407D03*
X0022869Y0039572D03*
X0025625Y0044100D03*
X0008499Y0037604D03*
X0006727Y0060241D03*
X0049050Y0037801D03*
X0051216Y0037801D03*
X0051609Y0040360D03*
X0064601Y0036423D03*
X0072475Y0036423D03*
X0076413Y0036423D03*
X0083302Y0039178D03*
X0083302Y0041541D03*
X0083302Y0044887D03*
X0088617Y0050005D03*
X0093342Y0055320D03*
X0090586Y0058076D03*
X0087042Y0058076D03*
X0091373Y0064375D03*
X0087633Y0066147D03*
X0098066Y0061423D03*
X0099050Y0065950D03*
X0094129Y0076974D03*
X0094916Y0083667D03*
X0096098Y0086816D03*
X0099050Y0089572D03*
X0091373Y0087801D03*
X0085074Y0087801D03*
X0081137Y0086816D03*
X0081137Y0083667D03*
X0092751Y0096856D03*
X0074838Y0102171D03*
X0074641Y0098627D03*
X0072475Y0067919D03*
X0064601Y0067919D03*
X0064601Y0060045D03*
X0072475Y0060045D03*
X0076019Y0045084D03*
X0065586Y0044297D03*
X0090192Y0036423D03*
X0094129Y0036423D03*
X0098066Y0047052D03*
X0098066Y0022643D03*
X0018342Y0011816D03*
D15*
X0015389Y0008864D03*
X0015389Y0014769D03*
X0047672Y0026974D03*
X0064601Y0032486D03*
X0078381Y0027958D03*
X0082909Y0028155D03*
X0094129Y0018706D03*
X0100035Y0018706D03*
X0096098Y0027958D03*
X0029759Y0050989D03*
X0029562Y0057289D03*
X0015389Y0097446D03*
X0015389Y0103352D03*
X0094129Y0093509D03*
X0100035Y0093509D03*
D16*
X0097087Y0092395D02*
X0097077Y0092395D01*
X0097082Y0092407D02*
X0097345Y0091773D01*
X0096709Y0091137D01*
X0096288Y0090122D01*
X0096288Y0089578D01*
X0095548Y0089578D01*
X0094533Y0089158D01*
X0094015Y0088640D01*
X0093715Y0089365D01*
X0092938Y0090142D01*
X0091923Y0090563D01*
X0090824Y0090563D01*
X0089808Y0090142D01*
X0089031Y0089365D01*
X0088611Y0088350D01*
X0088611Y0087251D01*
X0089031Y0086236D01*
X0089808Y0085459D01*
X0090824Y0085038D01*
X0091923Y0085038D01*
X0092706Y0085363D01*
X0092575Y0085231D01*
X0092154Y0084216D01*
X0092154Y0083117D01*
X0092575Y0082102D01*
X0093352Y0081325D01*
X0094367Y0080904D01*
X0095466Y0080904D01*
X0096481Y0081325D01*
X0097258Y0082102D01*
X0097679Y0083117D01*
X0097679Y0084216D01*
X0097585Y0084443D01*
X0097662Y0084475D01*
X0098439Y0085252D01*
X0098860Y0086267D01*
X0098860Y0086810D01*
X0099600Y0086810D01*
X0100011Y0086980D01*
X0100011Y0068542D01*
X0099600Y0068712D01*
X0098501Y0068712D01*
X0097486Y0068292D01*
X0096709Y0067515D01*
X0096288Y0066500D01*
X0096288Y0065401D01*
X0096709Y0064385D01*
X0097087Y0064007D01*
X0096501Y0063764D01*
X0095724Y0062987D01*
X0095304Y0061972D01*
X0095304Y0060873D01*
X0095724Y0059858D01*
X0096501Y0059081D01*
X0097517Y0058660D01*
X0098615Y0058660D01*
X0099631Y0059081D01*
X0100011Y0059461D01*
X0100011Y0024604D01*
X0099631Y0024985D01*
X0098615Y0025405D01*
X0097999Y0025405D01*
X0098768Y0026174D01*
X0099247Y0027331D01*
X0099247Y0028584D01*
X0098768Y0029742D01*
X0097882Y0030628D01*
X0096724Y0031108D01*
X0095471Y0031108D01*
X0094313Y0030628D01*
X0093427Y0029742D01*
X0092948Y0028584D01*
X0092948Y0027331D01*
X0093427Y0026174D01*
X0094313Y0025288D01*
X0095471Y0024808D01*
X0096325Y0024808D01*
X0095724Y0024208D01*
X0095304Y0023192D01*
X0095304Y0022094D01*
X0095536Y0021532D01*
X0094756Y0021856D01*
X0093503Y0021856D01*
X0092345Y0021376D01*
X0092149Y0021180D01*
X0092149Y0022667D01*
X0091437Y0024385D01*
X0090123Y0025699D01*
X0088405Y0026411D01*
X0086546Y0026411D01*
X0084963Y0025755D01*
X0085579Y0026371D01*
X0086058Y0027528D01*
X0086058Y0030947D01*
X0085579Y0032104D01*
X0084693Y0032990D01*
X0083413Y0034270D01*
X0082527Y0035156D01*
X0081370Y0035635D01*
X0079076Y0035635D01*
X0079175Y0035873D01*
X0079175Y0036972D01*
X0078754Y0037987D01*
X0077977Y0038764D01*
X0076962Y0039185D01*
X0075863Y0039185D01*
X0074848Y0038764D01*
X0074444Y0038360D01*
X0074040Y0038764D01*
X0073025Y0039185D01*
X0071926Y0039185D01*
X0070911Y0038764D01*
X0070134Y0037987D01*
X0069713Y0036972D01*
X0069713Y0035873D01*
X0069812Y0035635D01*
X0067265Y0035635D01*
X0067364Y0035873D01*
X0067364Y0036972D01*
X0066943Y0037987D01*
X0066166Y0038764D01*
X0065151Y0039185D01*
X0064052Y0039185D01*
X0063037Y0038764D01*
X0062260Y0037987D01*
X0061839Y0036972D01*
X0061839Y0035873D01*
X0061938Y0035635D01*
X0058857Y0035635D01*
X0057699Y0035156D01*
X0056813Y0034270D01*
X0050623Y0028080D01*
X0050342Y0028758D01*
X0049456Y0029644D01*
X0048299Y0030123D01*
X0047046Y0030123D01*
X0045888Y0029644D01*
X0045002Y0028758D01*
X0044523Y0027600D01*
X0044523Y0026569D01*
X0044482Y0026586D01*
X0043383Y0026586D01*
X0042368Y0026166D01*
X0041591Y0025389D01*
X0041170Y0024374D01*
X0041170Y0023275D01*
X0041591Y0022259D01*
X0041994Y0021856D01*
X0017356Y0021856D01*
X0017826Y0022326D01*
X0018440Y0023809D01*
X0018440Y0025414D01*
X0017826Y0026897D01*
X0016691Y0028033D01*
X0015445Y0028549D01*
X0016691Y0029064D01*
X0017826Y0030200D01*
X0018440Y0031683D01*
X0018440Y0033288D01*
X0017878Y0034645D01*
X0018891Y0034645D01*
X0019906Y0035065D01*
X0020683Y0035842D01*
X0021104Y0036857D01*
X0021104Y0037431D01*
X0021305Y0037230D01*
X0022320Y0036810D01*
X0023419Y0036810D01*
X0024434Y0037230D01*
X0025211Y0038008D01*
X0025631Y0039023D01*
X0025631Y0040122D01*
X0025211Y0041137D01*
X0024964Y0041384D01*
X0025076Y0041338D01*
X0026175Y0041338D01*
X0027190Y0041758D01*
X0027967Y0042535D01*
X0028387Y0043550D01*
X0028387Y0044649D01*
X0027967Y0045664D01*
X0027190Y0046441D01*
X0026175Y0046862D01*
X0025076Y0046862D01*
X0024060Y0046441D01*
X0023283Y0045664D01*
X0022863Y0044649D01*
X0022863Y0043550D01*
X0023283Y0042535D01*
X0023530Y0042288D01*
X0023419Y0042334D01*
X0022320Y0042334D01*
X0021305Y0041914D01*
X0020528Y0041137D01*
X0020107Y0040122D01*
X0020107Y0039548D01*
X0019906Y0039748D01*
X0018891Y0040169D01*
X0017792Y0040169D01*
X0016777Y0039748D01*
X0016078Y0039049D01*
X0016078Y0063548D01*
X0017570Y0062930D01*
X0019429Y0062930D01*
X0021146Y0063642D01*
X0022461Y0064956D01*
X0023172Y0066674D01*
X0023172Y0068533D01*
X0022461Y0070251D01*
X0021146Y0071565D01*
X0019429Y0072277D01*
X0017570Y0072277D01*
X0016078Y0071659D01*
X0016078Y0073548D01*
X0017570Y0072930D01*
X0019429Y0072930D01*
X0021146Y0073642D01*
X0022461Y0074956D01*
X0023172Y0076674D01*
X0023172Y0078533D01*
X0022461Y0080251D01*
X0021146Y0081565D01*
X0019429Y0082277D01*
X0017570Y0082277D01*
X0016078Y0081659D01*
X0016078Y0083211D01*
X0015909Y0083618D01*
X0017570Y0082930D01*
X0019429Y0082930D01*
X0021146Y0083642D01*
X0022461Y0084956D01*
X0023172Y0086674D01*
X0023172Y0088533D01*
X0022461Y0090251D01*
X0021146Y0091565D01*
X0019429Y0092277D01*
X0017570Y0092277D01*
X0015852Y0091565D01*
X0014537Y0090251D01*
X0013826Y0088533D01*
X0013826Y0086674D01*
X0014278Y0085583D01*
X0013172Y0086689D01*
X0013172Y0088533D01*
X0012461Y0090251D01*
X0011146Y0091565D01*
X0009429Y0092277D01*
X0009415Y0092277D01*
X0010064Y0092545D01*
X0010841Y0093322D01*
X0011261Y0094338D01*
X0011261Y0095437D01*
X0010873Y0096375D01*
X0011120Y0096477D01*
X0012239Y0097597D01*
X0012239Y0096820D01*
X0012719Y0095662D01*
X0013605Y0094776D01*
X0014762Y0094297D01*
X0016015Y0094297D01*
X0017173Y0094776D01*
X0018059Y0095662D01*
X0018538Y0096820D01*
X0018538Y0098073D01*
X0018215Y0098854D01*
X0018776Y0098621D01*
X0019875Y0098621D01*
X0020891Y0099042D01*
X0021668Y0099819D01*
X0022088Y0100834D01*
X0022088Y0101933D01*
X0021668Y0102948D01*
X0021287Y0103328D01*
X0072327Y0103328D01*
X0072075Y0102720D01*
X0072075Y0101621D01*
X0072496Y0100606D01*
X0073273Y0099829D01*
X0074288Y0099408D01*
X0075387Y0099408D01*
X0076402Y0099829D01*
X0077179Y0100606D01*
X0077600Y0101621D01*
X0077600Y0102720D01*
X0077348Y0103328D01*
X0093469Y0103328D01*
X0093160Y0103019D01*
X0092456Y0101319D01*
X0092456Y0099618D01*
X0092202Y0099618D01*
X0091186Y0099197D01*
X0090409Y0098420D01*
X0089989Y0097405D01*
X0089989Y0096306D01*
X0090409Y0095291D01*
X0091151Y0094550D01*
X0090979Y0094136D01*
X0090979Y0092883D01*
X0091459Y0091725D01*
X0092345Y0090839D01*
X0093503Y0090360D01*
X0094756Y0090360D01*
X0095913Y0090839D01*
X0096799Y0091725D01*
X0097082Y0092407D01*
X0096984Y0091413D02*
X0096487Y0091413D01*
X0096416Y0090430D02*
X0094925Y0090430D01*
X0095231Y0089447D02*
X0093633Y0089447D01*
X0093333Y0090430D02*
X0092243Y0090430D01*
X0091771Y0091413D02*
X0079060Y0091413D01*
X0079103Y0091370D02*
X0078210Y0092262D01*
X0077403Y0092597D01*
X0077403Y0092878D01*
X0076983Y0093893D01*
X0076205Y0094670D01*
X0075190Y0095090D01*
X0074091Y0095090D01*
X0073076Y0094670D01*
X0072299Y0093893D01*
X0071879Y0092878D01*
X0071879Y0091779D01*
X0072299Y0090763D01*
X0073076Y0089986D01*
X0073239Y0089919D01*
X0073239Y0088941D01*
X0073722Y0087775D01*
X0074615Y0086882D01*
X0075249Y0086619D01*
X0074615Y0086357D01*
X0073722Y0085464D01*
X0073239Y0084298D01*
X0073239Y0083035D01*
X0073722Y0081869D01*
X0074615Y0080977D01*
X0075781Y0080493D01*
X0077044Y0080493D01*
X0078210Y0080977D01*
X0079103Y0081869D01*
X0079586Y0083035D01*
X0079586Y0084298D01*
X0079470Y0084577D01*
X0079572Y0084475D01*
X0080587Y0084054D01*
X0081686Y0084054D01*
X0082702Y0084475D01*
X0083479Y0085252D01*
X0083899Y0086267D01*
X0083899Y0087366D01*
X0083479Y0088381D01*
X0082702Y0089158D01*
X0081686Y0089578D01*
X0080587Y0089578D01*
X0079586Y0089164D01*
X0079586Y0090203D01*
X0079103Y0091370D01*
X0079492Y0090430D02*
X0090503Y0090430D01*
X0089113Y0089447D02*
X0082003Y0089447D01*
X0083395Y0088464D02*
X0088658Y0088464D01*
X0088611Y0087482D02*
X0083851Y0087482D01*
X0083899Y0086499D02*
X0088923Y0086499D01*
X0089751Y0085516D02*
X0083588Y0085516D01*
X0082760Y0084533D02*
X0092286Y0084533D01*
X0092154Y0083551D02*
X0079586Y0083551D01*
X0079514Y0084533D02*
X0079488Y0084533D01*
X0079392Y0082568D02*
X0092382Y0082568D01*
X0093092Y0081585D02*
X0078818Y0081585D01*
X0077306Y0080602D02*
X0100011Y0080602D01*
X0100011Y0079619D02*
X0094960Y0079619D01*
X0094678Y0079736D02*
X0093580Y0079736D01*
X0092564Y0079315D01*
X0091787Y0078538D01*
X0091367Y0077523D01*
X0091367Y0076424D01*
X0091787Y0075409D01*
X0092564Y0074632D01*
X0093580Y0074212D01*
X0094678Y0074212D01*
X0095694Y0074632D01*
X0096471Y0075409D01*
X0096891Y0076424D01*
X0096891Y0077523D01*
X0096471Y0078538D01*
X0095694Y0079315D01*
X0094678Y0079736D01*
X0093298Y0079619D02*
X0053584Y0079619D01*
X0053584Y0079180D02*
X0053164Y0078165D01*
X0052387Y0077388D01*
X0051371Y0076967D01*
X0050273Y0076967D01*
X0049257Y0077388D01*
X0048480Y0078165D01*
X0048234Y0078758D01*
X0047238Y0078345D01*
X0046139Y0078345D01*
X0045123Y0078766D01*
X0044346Y0079543D01*
X0043926Y0080558D01*
X0043926Y0081657D01*
X0044346Y0082672D01*
X0045123Y0083449D01*
X0046139Y0083870D01*
X0047238Y0083870D01*
X0048253Y0083449D01*
X0049030Y0082672D01*
X0049276Y0082079D01*
X0050273Y0082492D01*
X0051371Y0082492D01*
X0052387Y0082071D01*
X0053164Y0081294D01*
X0053584Y0080279D01*
X0053584Y0079180D01*
X0053359Y0078637D02*
X0091886Y0078637D01*
X0091421Y0077654D02*
X0052653Y0077654D01*
X0053450Y0080602D02*
X0075519Y0080602D01*
X0074007Y0081585D02*
X0052873Y0081585D01*
X0049073Y0082568D02*
X0073433Y0082568D01*
X0073239Y0083551D02*
X0065833Y0083551D01*
X0066156Y0083874D02*
X0065379Y0083097D01*
X0064364Y0082676D01*
X0063265Y0082676D01*
X0062249Y0083097D01*
X0061472Y0083874D01*
X0061052Y0084889D01*
X0061052Y0085988D01*
X0061472Y0087003D01*
X0062249Y0087780D01*
X0063265Y0088201D01*
X0064364Y0088201D01*
X0064792Y0088023D01*
X0064792Y0088941D01*
X0065213Y0089956D01*
X0065990Y0090733D01*
X0067005Y0091153D01*
X0068104Y0091153D01*
X0069119Y0090733D01*
X0069896Y0089956D01*
X0070026Y0089641D01*
X0070351Y0089775D01*
X0071450Y0089775D01*
X0072465Y0089355D01*
X0073242Y0088578D01*
X0073663Y0087563D01*
X0073663Y0086464D01*
X0073242Y0085448D01*
X0072465Y0084671D01*
X0071450Y0084251D01*
X0070351Y0084251D01*
X0069336Y0084671D01*
X0068559Y0085448D01*
X0068429Y0085763D01*
X0068104Y0085629D01*
X0067005Y0085629D01*
X0066576Y0085806D01*
X0066576Y0084889D01*
X0066156Y0083874D01*
X0066429Y0084533D02*
X0069669Y0084533D01*
X0068531Y0085516D02*
X0066576Y0085516D01*
X0064792Y0088464D02*
X0023172Y0088464D01*
X0023172Y0087482D02*
X0061951Y0087482D01*
X0061264Y0086499D02*
X0023100Y0086499D01*
X0022693Y0085516D02*
X0061052Y0085516D01*
X0061199Y0084533D02*
X0022038Y0084533D01*
X0020926Y0083551D02*
X0045368Y0083551D01*
X0044303Y0082568D02*
X0016078Y0082568D01*
X0016072Y0083551D02*
X0015937Y0083551D01*
X0013898Y0086499D02*
X0013362Y0086499D01*
X0013172Y0087482D02*
X0013826Y0087482D01*
X0013826Y0088464D02*
X0013172Y0088464D01*
X0012794Y0089447D02*
X0014204Y0089447D01*
X0014716Y0090430D02*
X0012282Y0090430D01*
X0011299Y0091413D02*
X0015699Y0091413D01*
X0016171Y0094361D02*
X0045276Y0094361D01*
X0045517Y0094120D02*
X0046532Y0093700D01*
X0047631Y0093700D01*
X0047747Y0093748D01*
X0048087Y0092929D01*
X0048097Y0092919D01*
X0048087Y0092908D01*
X0047666Y0091893D01*
X0047666Y0090794D01*
X0048087Y0089779D01*
X0048864Y0089002D01*
X0049879Y0088582D01*
X0050978Y0088582D01*
X0051993Y0089002D01*
X0052770Y0089779D01*
X0053190Y0090794D01*
X0053190Y0091893D01*
X0052770Y0092908D01*
X0052760Y0092919D01*
X0052770Y0092929D01*
X0053190Y0093944D01*
X0053190Y0095043D01*
X0052770Y0096058D01*
X0052563Y0096265D01*
X0052770Y0096472D01*
X0053190Y0097487D01*
X0053190Y0098586D01*
X0052770Y0099601D01*
X0051993Y0100378D01*
X0050978Y0100799D01*
X0049879Y0100799D01*
X0048864Y0100378D01*
X0048087Y0099601D01*
X0047887Y0099118D01*
X0047631Y0099224D01*
X0046532Y0099224D01*
X0045517Y0098804D01*
X0044740Y0098027D01*
X0044320Y0097011D01*
X0044320Y0095912D01*
X0044740Y0094897D01*
X0045517Y0094120D01*
X0044555Y0095344D02*
X0035894Y0095344D01*
X0035654Y0095105D02*
X0036431Y0095882D01*
X0036852Y0096897D01*
X0036852Y0097996D01*
X0036431Y0099011D01*
X0035654Y0099788D01*
X0034639Y0100208D01*
X0033540Y0100208D01*
X0032525Y0099788D01*
X0031748Y0099011D01*
X0031327Y0097996D01*
X0031327Y0096897D01*
X0031748Y0095882D01*
X0032525Y0095105D01*
X0033540Y0094684D01*
X0034639Y0094684D01*
X0035654Y0095105D01*
X0036616Y0096326D02*
X0044320Y0096326D01*
X0044443Y0097309D02*
X0036852Y0097309D01*
X0036729Y0098292D02*
X0045006Y0098292D01*
X0047951Y0099275D02*
X0036167Y0099275D01*
X0032012Y0099275D02*
X0029962Y0099275D01*
X0029962Y0098865D02*
X0029962Y0099964D01*
X0029542Y0100979D01*
X0028765Y0101756D01*
X0027749Y0102177D01*
X0026650Y0102177D01*
X0025635Y0101756D01*
X0024858Y0100979D01*
X0024438Y0099964D01*
X0024438Y0098865D01*
X0024858Y0097850D01*
X0025635Y0097073D01*
X0026650Y0096652D01*
X0027749Y0096652D01*
X0028765Y0097073D01*
X0029542Y0097850D01*
X0029962Y0098865D01*
X0029725Y0098292D02*
X0031450Y0098292D01*
X0031327Y0097309D02*
X0029001Y0097309D01*
X0031564Y0096326D02*
X0018334Y0096326D01*
X0018538Y0097309D02*
X0025399Y0097309D01*
X0024675Y0098292D02*
X0018448Y0098292D01*
X0021124Y0099275D02*
X0024438Y0099275D01*
X0024559Y0100258D02*
X0021849Y0100258D01*
X0022088Y0101240D02*
X0025119Y0101240D01*
X0021968Y0102223D02*
X0072075Y0102223D01*
X0072233Y0101240D02*
X0029281Y0101240D01*
X0029841Y0100258D02*
X0048743Y0100258D01*
X0052114Y0100258D02*
X0072844Y0100258D01*
X0072277Y0103206D02*
X0021410Y0103206D01*
X0017741Y0095344D02*
X0032286Y0095344D01*
X0022282Y0090430D02*
X0047817Y0090430D01*
X0047666Y0091413D02*
X0021299Y0091413D01*
X0022794Y0089447D02*
X0048419Y0089447D01*
X0047874Y0092395D02*
X0009702Y0092395D01*
X0010864Y0093378D02*
X0047900Y0093378D01*
X0052956Y0093378D02*
X0072086Y0093378D01*
X0071879Y0092395D02*
X0052982Y0092395D01*
X0053190Y0091413D02*
X0072030Y0091413D01*
X0072633Y0090430D02*
X0069422Y0090430D01*
X0072242Y0089447D02*
X0073239Y0089447D01*
X0073289Y0088464D02*
X0073437Y0088464D01*
X0073663Y0087482D02*
X0074015Y0087482D01*
X0073663Y0086499D02*
X0074958Y0086499D01*
X0073774Y0085516D02*
X0073270Y0085516D01*
X0073337Y0084533D02*
X0072132Y0084533D01*
X0065002Y0089447D02*
X0052438Y0089447D01*
X0053039Y0090430D02*
X0065687Y0090430D01*
X0061795Y0083551D02*
X0048008Y0083551D01*
X0043926Y0081585D02*
X0021099Y0081585D01*
X0022109Y0080602D02*
X0043926Y0080602D01*
X0044315Y0079619D02*
X0022722Y0079619D01*
X0023129Y0078637D02*
X0045435Y0078637D01*
X0047941Y0078637D02*
X0048285Y0078637D01*
X0048991Y0077654D02*
X0023172Y0077654D01*
X0023171Y0076671D02*
X0091367Y0076671D01*
X0091672Y0075688D02*
X0022764Y0075688D01*
X0022210Y0074706D02*
X0092491Y0074706D01*
X0095767Y0074706D02*
X0100011Y0074706D01*
X0100011Y0075688D02*
X0096586Y0075688D01*
X0096891Y0076671D02*
X0100011Y0076671D01*
X0100011Y0077654D02*
X0096837Y0077654D01*
X0096372Y0078637D02*
X0100011Y0078637D01*
X0100011Y0081585D02*
X0096741Y0081585D01*
X0097451Y0082568D02*
X0100011Y0082568D01*
X0100011Y0083551D02*
X0097679Y0083551D01*
X0097721Y0084533D02*
X0100011Y0084533D01*
X0100011Y0085516D02*
X0098549Y0085516D01*
X0098860Y0086499D02*
X0100011Y0086499D01*
X0091181Y0092395D02*
X0077889Y0092395D01*
X0077196Y0093378D02*
X0090979Y0093378D01*
X0091073Y0094361D02*
X0076514Y0094361D01*
X0072767Y0094361D02*
X0053190Y0094361D01*
X0053066Y0095344D02*
X0090388Y0095344D01*
X0089989Y0096326D02*
X0052624Y0096326D01*
X0053117Y0097309D02*
X0089989Y0097309D01*
X0090356Y0098292D02*
X0053190Y0098292D01*
X0052905Y0099275D02*
X0091373Y0099275D01*
X0092456Y0100258D02*
X0076831Y0100258D01*
X0077442Y0101240D02*
X0092456Y0101240D01*
X0092830Y0102223D02*
X0077600Y0102223D01*
X0077399Y0103206D02*
X0093347Y0103206D01*
X0080270Y0089447D02*
X0079586Y0089447D01*
X0100011Y0073723D02*
X0021227Y0073723D01*
X0020683Y0071757D02*
X0035006Y0071757D01*
X0034701Y0071452D02*
X0034280Y0070437D01*
X0034280Y0069338D01*
X0034701Y0068322D01*
X0035478Y0067545D01*
X0036493Y0067125D01*
X0037592Y0067125D01*
X0038607Y0067545D01*
X0039384Y0068322D01*
X0039805Y0069338D01*
X0039805Y0070437D01*
X0039384Y0071452D01*
X0038607Y0072229D01*
X0037592Y0072649D01*
X0036493Y0072649D01*
X0035478Y0072229D01*
X0034701Y0071452D01*
X0034420Y0070775D02*
X0021937Y0070775D01*
X0022651Y0069792D02*
X0034280Y0069792D01*
X0034499Y0068809D02*
X0023058Y0068809D01*
X0023172Y0067826D02*
X0035197Y0067826D01*
X0033164Y0065861D02*
X0044061Y0065861D01*
X0043926Y0066188D02*
X0044346Y0065173D01*
X0045123Y0064396D01*
X0046139Y0063975D01*
X0047238Y0063975D01*
X0048253Y0064396D01*
X0049030Y0065173D01*
X0049450Y0066188D01*
X0049450Y0067287D01*
X0049030Y0068302D01*
X0048253Y0069079D01*
X0047238Y0069500D01*
X0046139Y0069500D01*
X0045123Y0069079D01*
X0044346Y0068302D01*
X0043926Y0067287D01*
X0043926Y0066188D01*
X0043926Y0066844D02*
X0023172Y0066844D01*
X0022835Y0065861D02*
X0029110Y0065861D01*
X0028795Y0065546D02*
X0028375Y0064531D01*
X0028375Y0063432D01*
X0028795Y0062417D01*
X0029572Y0061640D01*
X0030587Y0061219D01*
X0031686Y0061219D01*
X0032702Y0061640D01*
X0033479Y0062417D01*
X0033899Y0063432D01*
X0033899Y0064531D01*
X0033479Y0065546D01*
X0032702Y0066323D01*
X0031686Y0066744D01*
X0030587Y0066744D01*
X0029572Y0066323D01*
X0028795Y0065546D01*
X0028518Y0064878D02*
X0022382Y0064878D01*
X0021400Y0063895D02*
X0028375Y0063895D01*
X0028590Y0062913D02*
X0016078Y0062913D01*
X0016078Y0061930D02*
X0029282Y0061930D01*
X0032991Y0061930D02*
X0041234Y0061930D01*
X0041170Y0061775D02*
X0041170Y0060676D01*
X0041591Y0059661D01*
X0042368Y0058884D01*
X0043383Y0058464D01*
X0044482Y0058464D01*
X0045497Y0058884D01*
X0046274Y0059661D01*
X0046694Y0060676D01*
X0046694Y0061775D01*
X0046274Y0062790D01*
X0045497Y0063567D01*
X0044482Y0063988D01*
X0043383Y0063988D01*
X0042368Y0063567D01*
X0041591Y0062790D01*
X0041170Y0061775D01*
X0041170Y0060947D02*
X0016078Y0060947D01*
X0016078Y0059964D02*
X0041465Y0059964D01*
X0042270Y0058981D02*
X0016078Y0058981D01*
X0016078Y0057999D02*
X0047863Y0057999D01*
X0047863Y0058035D02*
X0047863Y0056936D01*
X0048283Y0055921D01*
X0049060Y0055144D01*
X0050076Y0054723D01*
X0051175Y0054723D01*
X0052190Y0055144D01*
X0052967Y0055921D01*
X0053387Y0056936D01*
X0053387Y0058035D01*
X0052967Y0059050D01*
X0052190Y0059827D01*
X0051175Y0060248D01*
X0050076Y0060248D01*
X0049060Y0059827D01*
X0048283Y0059050D01*
X0047863Y0058035D01*
X0047863Y0057016D02*
X0016078Y0057016D01*
X0016078Y0056033D02*
X0048237Y0056033D01*
X0049286Y0055050D02*
X0016078Y0055050D01*
X0016078Y0054068D02*
X0028960Y0054068D01*
X0029132Y0054139D02*
X0027975Y0053660D01*
X0027089Y0052774D01*
X0026609Y0051616D01*
X0026609Y0050363D01*
X0027089Y0049205D01*
X0027975Y0048319D01*
X0029132Y0047840D01*
X0030385Y0047840D01*
X0031543Y0048319D01*
X0032429Y0049205D01*
X0032909Y0050363D01*
X0032909Y0051616D01*
X0032429Y0052774D01*
X0031543Y0053660D01*
X0030385Y0054139D01*
X0029132Y0054139D01*
X0027400Y0053085D02*
X0016078Y0053085D01*
X0016078Y0052102D02*
X0026811Y0052102D01*
X0026609Y0051119D02*
X0016078Y0051119D01*
X0016078Y0050137D02*
X0026703Y0050137D01*
X0027140Y0049154D02*
X0016078Y0049154D01*
X0016078Y0048171D02*
X0028333Y0048171D01*
X0027426Y0046206D02*
X0032435Y0046206D01*
X0032312Y0046503D02*
X0032732Y0045488D01*
X0033509Y0044711D01*
X0034524Y0044290D01*
X0035623Y0044290D01*
X0036639Y0044711D01*
X0037416Y0045488D01*
X0037836Y0046503D01*
X0037836Y0047602D01*
X0037416Y0048617D01*
X0036639Y0049394D01*
X0035623Y0049815D01*
X0034524Y0049815D01*
X0033509Y0049394D01*
X0032732Y0048617D01*
X0032312Y0047602D01*
X0032312Y0046503D01*
X0032312Y0047188D02*
X0016078Y0047188D01*
X0016078Y0046206D02*
X0023825Y0046206D01*
X0023101Y0045223D02*
X0016078Y0045223D01*
X0016078Y0044240D02*
X0022863Y0044240D01*
X0022984Y0043257D02*
X0016078Y0043257D01*
X0016078Y0042274D02*
X0022175Y0042274D01*
X0020682Y0041292D02*
X0016078Y0041292D01*
X0016078Y0040309D02*
X0020185Y0040309D01*
X0021104Y0037361D02*
X0021174Y0037361D01*
X0020905Y0036378D02*
X0046650Y0036378D01*
X0046709Y0036236D02*
X0047486Y0035459D01*
X0048501Y0035038D01*
X0049600Y0035038D01*
X0050133Y0035259D01*
X0050666Y0035038D01*
X0051765Y0035038D01*
X0052780Y0035459D01*
X0053557Y0036236D01*
X0053978Y0037251D01*
X0053978Y0038350D01*
X0053840Y0038684D01*
X0053951Y0038795D01*
X0054372Y0039810D01*
X0054372Y0040909D01*
X0053951Y0041924D01*
X0053174Y0042701D01*
X0052159Y0043122D01*
X0051060Y0043122D01*
X0050045Y0042701D01*
X0049268Y0041924D01*
X0048847Y0040909D01*
X0048847Y0040563D01*
X0048501Y0040563D01*
X0047486Y0040142D01*
X0046709Y0039365D01*
X0046288Y0038350D01*
X0046288Y0037251D01*
X0046709Y0036236D01*
X0046288Y0037361D02*
X0038934Y0037361D01*
X0038804Y0037230D02*
X0039581Y0038008D01*
X0040001Y0039023D01*
X0040001Y0040122D01*
X0039581Y0041137D01*
X0038804Y0041914D01*
X0037789Y0042334D01*
X0036690Y0042334D01*
X0035675Y0041914D01*
X0034898Y0041137D01*
X0034477Y0040122D01*
X0034477Y0039023D01*
X0034898Y0038008D01*
X0035675Y0037230D01*
X0036690Y0036810D01*
X0037789Y0036810D01*
X0038804Y0037230D01*
X0039720Y0038343D02*
X0046288Y0038343D01*
X0046692Y0039326D02*
X0040001Y0039326D01*
X0039924Y0040309D02*
X0047888Y0040309D01*
X0049006Y0041292D02*
X0039426Y0041292D01*
X0037933Y0042274D02*
X0049618Y0042274D01*
X0053601Y0042274D02*
X0080616Y0042274D01*
X0080540Y0042090D02*
X0080540Y0040991D01*
X0080802Y0040360D01*
X0080540Y0039728D01*
X0080540Y0038629D01*
X0080961Y0037614D01*
X0081738Y0036837D01*
X0082753Y0036416D01*
X0083852Y0036416D01*
X0084867Y0036837D01*
X0085644Y0037614D01*
X0086064Y0038629D01*
X0086064Y0039728D01*
X0085803Y0040360D01*
X0086064Y0040991D01*
X0086064Y0042090D01*
X0085644Y0043105D01*
X0084867Y0043882D01*
X0083852Y0044303D01*
X0082753Y0044303D01*
X0081738Y0043882D01*
X0080961Y0043105D01*
X0080540Y0042090D01*
X0080540Y0041292D02*
X0054213Y0041292D01*
X0054372Y0040309D02*
X0080781Y0040309D01*
X0080540Y0039326D02*
X0054171Y0039326D01*
X0053978Y0038343D02*
X0062616Y0038343D01*
X0062000Y0037361D02*
X0053978Y0037361D01*
X0053616Y0036378D02*
X0061839Y0036378D01*
X0058277Y0035395D02*
X0052627Y0035395D01*
X0054990Y0032447D02*
X0042759Y0032447D01*
X0042927Y0032279D02*
X0042150Y0033056D01*
X0041135Y0033476D01*
X0040036Y0033476D01*
X0039021Y0033056D01*
X0038244Y0032279D01*
X0037824Y0031263D01*
X0037824Y0030164D01*
X0038244Y0029149D01*
X0038376Y0029018D01*
X0037592Y0029342D01*
X0036493Y0029342D01*
X0035478Y0028922D01*
X0034701Y0028145D01*
X0034280Y0027129D01*
X0034280Y0026031D01*
X0034701Y0025015D01*
X0035478Y0024238D01*
X0036493Y0023818D01*
X0037592Y0023818D01*
X0038607Y0024238D01*
X0039384Y0025015D01*
X0039805Y0026031D01*
X0039805Y0027129D01*
X0039384Y0028145D01*
X0039252Y0028276D01*
X0040036Y0027952D01*
X0041135Y0027952D01*
X0042150Y0028372D01*
X0042927Y0029149D01*
X0043348Y0030164D01*
X0043348Y0031263D01*
X0042927Y0032279D01*
X0043265Y0031464D02*
X0054008Y0031464D01*
X0053025Y0030481D02*
X0043348Y0030481D01*
X0043072Y0029499D02*
X0045743Y0029499D01*
X0044902Y0028516D02*
X0042294Y0028516D01*
X0043296Y0026550D02*
X0039805Y0026550D01*
X0039637Y0027533D02*
X0044523Y0027533D01*
X0041769Y0025568D02*
X0039613Y0025568D01*
X0038953Y0024585D02*
X0041257Y0024585D01*
X0041170Y0023602D02*
X0018354Y0023602D01*
X0018440Y0024585D02*
X0035131Y0024585D01*
X0034472Y0025568D02*
X0018377Y0025568D01*
X0017969Y0026550D02*
X0034280Y0026550D01*
X0034447Y0027533D02*
X0017190Y0027533D01*
X0015524Y0028516D02*
X0035072Y0028516D01*
X0037824Y0030481D02*
X0017942Y0030481D01*
X0018349Y0031464D02*
X0037907Y0031464D01*
X0038412Y0032447D02*
X0018440Y0032447D01*
X0018381Y0033430D02*
X0039924Y0033430D01*
X0041247Y0033430D02*
X0055973Y0033430D01*
X0056956Y0034412D02*
X0017974Y0034412D01*
X0020236Y0035395D02*
X0047639Y0035395D01*
X0049602Y0029499D02*
X0052042Y0029499D01*
X0051059Y0028516D02*
X0050443Y0028516D01*
X0041441Y0022619D02*
X0017947Y0022619D01*
X0017125Y0029499D02*
X0038099Y0029499D01*
X0035544Y0037361D02*
X0024564Y0037361D01*
X0025350Y0038343D02*
X0034758Y0038343D01*
X0034477Y0039326D02*
X0025631Y0039326D01*
X0025554Y0040309D02*
X0034555Y0040309D01*
X0035052Y0041292D02*
X0025056Y0041292D01*
X0027706Y0042274D02*
X0036545Y0042274D01*
X0037151Y0045223D02*
X0100011Y0045223D01*
X0100011Y0046206D02*
X0037713Y0046206D01*
X0037836Y0047188D02*
X0100011Y0047188D01*
X0100011Y0048171D02*
X0037600Y0048171D01*
X0036879Y0049154D02*
X0100011Y0049154D01*
X0100011Y0050137D02*
X0032815Y0050137D01*
X0032909Y0051119D02*
X0100011Y0051119D01*
X0100011Y0052102D02*
X0032707Y0052102D01*
X0032118Y0053085D02*
X0091671Y0053085D01*
X0091777Y0052979D02*
X0092792Y0052558D01*
X0093891Y0052558D01*
X0094906Y0052979D01*
X0095683Y0053756D01*
X0096104Y0054771D01*
X0096104Y0055870D01*
X0095683Y0056885D01*
X0094906Y0057662D01*
X0093891Y0058082D01*
X0093348Y0058082D01*
X0093348Y0058626D01*
X0092927Y0059641D01*
X0092150Y0060418D01*
X0091135Y0060838D01*
X0090036Y0060838D01*
X0089021Y0060418D01*
X0088814Y0060211D01*
X0088607Y0060418D01*
X0087592Y0060838D01*
X0086493Y0060838D01*
X0085478Y0060418D01*
X0084701Y0059641D01*
X0084280Y0058626D01*
X0084280Y0057527D01*
X0084701Y0056511D01*
X0085478Y0055734D01*
X0086493Y0055314D01*
X0087592Y0055314D01*
X0088607Y0055734D01*
X0088814Y0055941D01*
X0089021Y0055734D01*
X0090036Y0055314D01*
X0090579Y0055314D01*
X0090579Y0054771D01*
X0091000Y0053756D01*
X0091777Y0052979D01*
X0090871Y0054068D02*
X0030558Y0054068D01*
X0032377Y0049154D02*
X0033269Y0049154D01*
X0032547Y0048171D02*
X0031185Y0048171D01*
X0032997Y0045223D02*
X0028150Y0045223D01*
X0028387Y0044240D02*
X0082601Y0044240D01*
X0084003Y0044240D02*
X0100011Y0044240D01*
X0100011Y0043257D02*
X0085492Y0043257D01*
X0085988Y0042274D02*
X0100011Y0042274D01*
X0100011Y0041292D02*
X0086064Y0041292D01*
X0085824Y0040309D02*
X0100011Y0040309D01*
X0100011Y0039326D02*
X0086064Y0039326D01*
X0085946Y0038343D02*
X0088207Y0038343D01*
X0087850Y0037987D02*
X0088627Y0038764D01*
X0089643Y0039185D01*
X0090741Y0039185D01*
X0091757Y0038764D01*
X0092161Y0038360D01*
X0092564Y0038764D01*
X0093580Y0039185D01*
X0094678Y0039185D01*
X0095694Y0038764D01*
X0096471Y0037987D01*
X0096891Y0036972D01*
X0096891Y0035873D01*
X0096471Y0034858D01*
X0095694Y0034081D01*
X0094678Y0033660D01*
X0093580Y0033660D01*
X0092564Y0034081D01*
X0092161Y0034485D01*
X0091757Y0034081D01*
X0090741Y0033660D01*
X0089643Y0033660D01*
X0088627Y0034081D01*
X0087850Y0034858D01*
X0087430Y0035873D01*
X0087430Y0036972D01*
X0087850Y0037987D01*
X0087591Y0037361D02*
X0085391Y0037361D01*
X0087430Y0036378D02*
X0079175Y0036378D01*
X0079014Y0037361D02*
X0081214Y0037361D01*
X0080658Y0038343D02*
X0078398Y0038343D01*
X0081949Y0035395D02*
X0087628Y0035395D01*
X0088296Y0034412D02*
X0083271Y0034412D01*
X0084253Y0033430D02*
X0100011Y0033430D01*
X0100011Y0034412D02*
X0096025Y0034412D01*
X0096693Y0035395D02*
X0100011Y0035395D01*
X0100011Y0036378D02*
X0096891Y0036378D01*
X0096730Y0037361D02*
X0100011Y0037361D01*
X0100011Y0038343D02*
X0096114Y0038343D01*
X0092233Y0034412D02*
X0092088Y0034412D01*
X0094167Y0030481D02*
X0086058Y0030481D01*
X0086058Y0029499D02*
X0093327Y0029499D01*
X0092948Y0028516D02*
X0086058Y0028516D01*
X0086058Y0027533D02*
X0092948Y0027533D01*
X0093272Y0026550D02*
X0085653Y0026550D01*
X0090254Y0025568D02*
X0094034Y0025568D01*
X0096101Y0024585D02*
X0091237Y0024585D01*
X0091761Y0023602D02*
X0095473Y0023602D01*
X0095304Y0022619D02*
X0092149Y0022619D01*
X0092149Y0021636D02*
X0092973Y0021636D01*
X0095285Y0021636D02*
X0095493Y0021636D01*
X0098161Y0025568D02*
X0100011Y0025568D01*
X0100011Y0026550D02*
X0098924Y0026550D01*
X0099247Y0027533D02*
X0100011Y0027533D01*
X0100011Y0028516D02*
X0099247Y0028516D01*
X0098869Y0029499D02*
X0100011Y0029499D01*
X0100011Y0030481D02*
X0098028Y0030481D01*
X0100011Y0031464D02*
X0085844Y0031464D01*
X0085236Y0032447D02*
X0100011Y0032447D01*
X0081113Y0043257D02*
X0028266Y0043257D01*
X0016355Y0039326D02*
X0016078Y0039326D01*
X0033684Y0062913D02*
X0041713Y0062913D01*
X0043159Y0063895D02*
X0033899Y0063895D01*
X0033755Y0064878D02*
X0044641Y0064878D01*
X0044705Y0063895D02*
X0085978Y0063895D01*
X0086068Y0063805D02*
X0087084Y0063385D01*
X0088182Y0063385D01*
X0088704Y0063601D01*
X0089031Y0062811D01*
X0089808Y0062034D01*
X0090824Y0061613D01*
X0091923Y0061613D01*
X0092938Y0062034D01*
X0093715Y0062811D01*
X0094135Y0063826D01*
X0094135Y0064925D01*
X0093715Y0065940D01*
X0092938Y0066717D01*
X0091923Y0067138D01*
X0090824Y0067138D01*
X0090302Y0066921D01*
X0089975Y0067712D01*
X0089198Y0068489D01*
X0088182Y0068909D01*
X0087084Y0068909D01*
X0086068Y0068489D01*
X0085291Y0067712D01*
X0084871Y0066696D01*
X0084871Y0065598D01*
X0085291Y0064582D01*
X0086068Y0063805D01*
X0085169Y0064878D02*
X0048735Y0064878D01*
X0049315Y0065861D02*
X0062753Y0065861D01*
X0063037Y0065577D02*
X0064052Y0065156D01*
X0065151Y0065156D01*
X0066166Y0065577D01*
X0066943Y0066354D01*
X0067364Y0067369D01*
X0067364Y0068468D01*
X0066943Y0069483D01*
X0066166Y0070260D01*
X0065151Y0070681D01*
X0064052Y0070681D01*
X0063037Y0070260D01*
X0062260Y0069483D01*
X0061839Y0068468D01*
X0061839Y0067369D01*
X0062260Y0066354D01*
X0063037Y0065577D01*
X0062057Y0066844D02*
X0049450Y0066844D01*
X0049227Y0067826D02*
X0061839Y0067826D01*
X0061981Y0068809D02*
X0052666Y0068809D01*
X0052387Y0068530D02*
X0053164Y0069307D01*
X0053584Y0070322D01*
X0053584Y0071421D01*
X0053164Y0072436D01*
X0052387Y0073213D01*
X0051371Y0073634D01*
X0050273Y0073634D01*
X0049257Y0073213D01*
X0048480Y0072436D01*
X0048060Y0071421D01*
X0048060Y0070322D01*
X0048480Y0069307D01*
X0049257Y0068530D01*
X0050273Y0068109D01*
X0051371Y0068109D01*
X0052387Y0068530D01*
X0053365Y0069792D02*
X0062568Y0069792D01*
X0066635Y0069792D02*
X0070442Y0069792D01*
X0070134Y0069483D02*
X0069713Y0068468D01*
X0069713Y0067369D01*
X0070134Y0066354D01*
X0070911Y0065577D01*
X0071926Y0065156D01*
X0073025Y0065156D01*
X0074040Y0065577D01*
X0074817Y0066354D01*
X0075238Y0067369D01*
X0075238Y0068468D01*
X0074817Y0069483D01*
X0074040Y0070260D01*
X0073025Y0070681D01*
X0071926Y0070681D01*
X0070911Y0070260D01*
X0070134Y0069483D01*
X0069855Y0068809D02*
X0067222Y0068809D01*
X0067364Y0067826D02*
X0069713Y0067826D01*
X0069931Y0066844D02*
X0067146Y0066844D01*
X0066450Y0065861D02*
X0070627Y0065861D01*
X0071926Y0062807D02*
X0070911Y0062386D01*
X0070134Y0061609D01*
X0069713Y0060594D01*
X0069713Y0059495D01*
X0070134Y0058480D01*
X0070911Y0057703D01*
X0071926Y0057282D01*
X0073025Y0057282D01*
X0074040Y0057703D01*
X0074817Y0058480D01*
X0075238Y0059495D01*
X0075238Y0060594D01*
X0074817Y0061609D01*
X0074040Y0062386D01*
X0073025Y0062807D01*
X0071926Y0062807D01*
X0070454Y0061930D02*
X0066623Y0061930D01*
X0066943Y0061609D02*
X0066166Y0062386D01*
X0065151Y0062807D01*
X0064052Y0062807D01*
X0063037Y0062386D01*
X0062260Y0061609D01*
X0061839Y0060594D01*
X0061839Y0059495D01*
X0062260Y0058480D01*
X0063037Y0057703D01*
X0064052Y0057282D01*
X0065151Y0057282D01*
X0066166Y0057703D01*
X0066943Y0058480D01*
X0067364Y0059495D01*
X0067364Y0060594D01*
X0066943Y0061609D01*
X0067217Y0060947D02*
X0069859Y0060947D01*
X0069713Y0059964D02*
X0067364Y0059964D01*
X0067151Y0058981D02*
X0069926Y0058981D01*
X0070615Y0057999D02*
X0066462Y0057999D01*
X0062741Y0057999D02*
X0053387Y0057999D01*
X0053387Y0057016D02*
X0084492Y0057016D01*
X0084280Y0057999D02*
X0074336Y0057999D01*
X0075025Y0058981D02*
X0084428Y0058981D01*
X0085024Y0059964D02*
X0075238Y0059964D01*
X0075091Y0060947D02*
X0095304Y0060947D01*
X0095304Y0061930D02*
X0092687Y0061930D01*
X0093757Y0062913D02*
X0095693Y0062913D01*
X0096818Y0063895D02*
X0094135Y0063895D01*
X0094135Y0064878D02*
X0096505Y0064878D01*
X0096288Y0065861D02*
X0093748Y0065861D01*
X0092632Y0066844D02*
X0096431Y0066844D01*
X0097020Y0067826D02*
X0089860Y0067826D01*
X0088424Y0068809D02*
X0100011Y0068809D01*
X0100011Y0069792D02*
X0074509Y0069792D01*
X0075096Y0068809D02*
X0086842Y0068809D01*
X0085406Y0067826D02*
X0075238Y0067826D01*
X0075020Y0066844D02*
X0084932Y0066844D01*
X0084871Y0065861D02*
X0074324Y0065861D01*
X0074497Y0061930D02*
X0090059Y0061930D01*
X0088989Y0062913D02*
X0046152Y0062913D01*
X0046630Y0061930D02*
X0062580Y0061930D01*
X0061985Y0060947D02*
X0046694Y0060947D01*
X0046399Y0059964D02*
X0049391Y0059964D01*
X0048255Y0058981D02*
X0045594Y0058981D01*
X0051859Y0059964D02*
X0061839Y0059964D01*
X0062052Y0058981D02*
X0052995Y0058981D01*
X0053013Y0056033D02*
X0085179Y0056033D01*
X0090579Y0055050D02*
X0051964Y0055050D01*
X0044149Y0067826D02*
X0038888Y0067826D01*
X0039586Y0068809D02*
X0044853Y0068809D01*
X0048060Y0070775D02*
X0039665Y0070775D01*
X0039805Y0069792D02*
X0048279Y0069792D01*
X0048523Y0068809D02*
X0048978Y0068809D01*
X0048199Y0071757D02*
X0039078Y0071757D01*
X0048784Y0072740D02*
X0016078Y0072740D01*
X0016078Y0071757D02*
X0016315Y0071757D01*
X0014607Y0094361D02*
X0011261Y0094361D01*
X0011261Y0095344D02*
X0013037Y0095344D01*
X0012444Y0096326D02*
X0010893Y0096326D01*
X0011952Y0097309D02*
X0012239Y0097309D01*
X0052860Y0072740D02*
X0100011Y0072740D01*
X0100011Y0071757D02*
X0053445Y0071757D01*
X0053584Y0070775D02*
X0100011Y0070775D01*
X0095680Y0059964D02*
X0092604Y0059964D01*
X0093201Y0058981D02*
X0096741Y0058981D01*
X0095552Y0057016D02*
X0100011Y0057016D01*
X0100011Y0057999D02*
X0094093Y0057999D01*
X0096036Y0056033D02*
X0100011Y0056033D01*
X0100011Y0055050D02*
X0096104Y0055050D01*
X0095813Y0054068D02*
X0100011Y0054068D01*
X0100011Y0053085D02*
X0095013Y0053085D01*
X0099391Y0058981D02*
X0100011Y0058981D01*
X0070490Y0038343D02*
X0066587Y0038343D01*
X0067203Y0037361D02*
X0069874Y0037361D01*
X0069713Y0036378D02*
X0067364Y0036378D01*
D17*
X0097082Y0011816D03*
X0008499Y0011816D03*
X0008499Y0100399D03*
X0097082Y0100399D03*
D18*
X0080743Y0032486D02*
X0064601Y0032486D01*
X0059483Y0032486D01*
X0045704Y0018706D01*
X0010664Y0018706D01*
X0008302Y0021068D01*
X0008302Y0028549D01*
X0012239Y0032486D01*
X0014405Y0032486D01*
X0080743Y0032486D02*
X0082909Y0030320D01*
X0082909Y0028155D01*
D19*
X0014405Y0032486D02*
X0013420Y0033470D01*
X0013420Y0082682D01*
X0008499Y0087604D01*
M02*
