%
M48
M72
T01C0.01378
T02C0.01969
T03C0.02000
T04C0.03150
T05C0.03937
T06C0.04000
%
T01
X18342Y11816
X37042Y26580
X40586Y30714
X43932Y23824
X50035Y10832
X22869Y33273
X18342Y37407
X22869Y39572
X25625Y44100
X35074Y47052
X40979Y47249
X46885Y47052
X50822Y50989
X50625Y57486
X43932Y61226
X46688Y66738
X50822Y70871
X43735Y72840
X37042Y69887
X37042Y63982
X31137Y63982
X34090Y81501
X46688Y81108
X49838Y85438
X50822Y79730
X63814Y85438
X67554Y88391
X70901Y87013
X74641Y92328
X81137Y86816
X81137Y83667
X85074Y87801
X91373Y87801
X96098Y86816
X94916Y83667
X99050Y89572
X92751Y96856
X74838Y102171
X74641Y98627
X50428Y98037
X47082Y96462
X50428Y94493
X50428Y91344
X34090Y97446
X31334Y94887
X27200Y99415
X19326Y101383
X8499Y94887
X6727Y60241
X8499Y37604
X37239Y39572
X49050Y37801
X51216Y37801
X51609Y40360
X64601Y36423
X72475Y36423
X76413Y36423
X83302Y39178
X83302Y41541
X83302Y44887
X88617Y50005
X93342Y55320
X90586Y58076
X87042Y58076
X91373Y64375
X87633Y66147
X98066Y61423
X99050Y65950
X94129Y76974
X72475Y67919
X64601Y67919
X64601Y60045
X72475Y60045
X76019Y45084
X65586Y44297
X90192Y36423
X94129Y36423
X98066Y47052
X98066Y22643
T02
X100035Y18706
X94129Y18706
X96098Y27958
X82909Y28155
X78381Y27958
X64601Y32486
X47672Y26974
X29759Y50989
X29562Y57289
X15389Y97446
X15389Y103352
X94129Y93509
X100035Y93509
X15389Y14769
X15389Y8864
T03
X76413Y83667
X76413Y89572
T04
X14405Y32486
X14405Y24612
T05
X8499Y11816
X97082Y11816
X97082Y100399
X8499Y100399
T06
X8499Y87604
X18499Y87604
X18499Y77604
X8499Y77604
X8499Y67604
X18499Y67604
X57475Y21738
X67475Y21738
X77475Y21738
X87475Y21738
X87475Y11738
X77475Y11738
X67475Y11738
X57475Y11738
M30
