G75*
%MOIN*%
%OFA0B0*%
%FSLAX25Y25*%
%IPPOS*%
%LPD*%
%AMOC8*
5,1,8,0,0,1.08239X$1,22.5*
%
%ADD10C,0.00000*%
%ADD11R,0.03543X0.03543*%
%ADD12R,0.01181X0.03150*%
%ADD13R,0.03150X0.01181*%
%ADD14R,0.03937X0.03937*%
%ADD15R,0.01969X0.01969*%
%ADD16R,0.05512X0.03937*%
%ADD17R,0.04724X0.02362*%
%ADD18R,0.05118X0.05906*%
%ADD19R,0.00984X0.03150*%
%ADD20R,0.03150X0.00984*%
%ADD21R,0.02756X0.01181*%
%ADD22R,0.01181X0.02756*%
%ADD23R,0.01102X0.03543*%
%ADD24R,0.01142X0.03543*%
%ADD25R,0.05118X0.02756*%
%ADD26R,0.00984X0.01969*%
%ADD27R,0.01969X0.00984*%
D10*
X0009483Y0006895D02*
X0096098Y0006895D01*
X0096250Y0006897D01*
X0096402Y0006903D01*
X0096554Y0006913D01*
X0096705Y0006926D01*
X0096856Y0006944D01*
X0097007Y0006965D01*
X0097157Y0006991D01*
X0097306Y0007020D01*
X0097455Y0007053D01*
X0097602Y0007090D01*
X0097749Y0007130D01*
X0097894Y0007175D01*
X0098038Y0007223D01*
X0098181Y0007275D01*
X0098323Y0007330D01*
X0098463Y0007389D01*
X0098602Y0007452D01*
X0098739Y0007518D01*
X0098874Y0007588D01*
X0099007Y0007661D01*
X0099138Y0007738D01*
X0099268Y0007818D01*
X0099395Y0007901D01*
X0099520Y0007987D01*
X0099643Y0008077D01*
X0099763Y0008170D01*
X0099881Y0008266D01*
X0099997Y0008365D01*
X0100110Y0008467D01*
X0100220Y0008571D01*
X0100328Y0008679D01*
X0100432Y0008789D01*
X0100534Y0008902D01*
X0100633Y0009018D01*
X0100729Y0009136D01*
X0100822Y0009256D01*
X0100912Y0009379D01*
X0100998Y0009504D01*
X0101081Y0009631D01*
X0101161Y0009761D01*
X0101238Y0009892D01*
X0101311Y0010025D01*
X0101381Y0010160D01*
X0101447Y0010297D01*
X0101510Y0010436D01*
X0101569Y0010576D01*
X0101624Y0010718D01*
X0101676Y0010861D01*
X0101724Y0011005D01*
X0101769Y0011150D01*
X0101809Y0011297D01*
X0101846Y0011444D01*
X0101879Y0011593D01*
X0101908Y0011742D01*
X0101934Y0011892D01*
X0101955Y0012043D01*
X0101973Y0012194D01*
X0101986Y0012345D01*
X0101996Y0012497D01*
X0102002Y0012649D01*
X0102004Y0012801D01*
X0102003Y0012801D02*
X0102003Y0099415D01*
X0102004Y0099415D02*
X0102002Y0099567D01*
X0101996Y0099719D01*
X0101986Y0099871D01*
X0101973Y0100022D01*
X0101955Y0100173D01*
X0101934Y0100324D01*
X0101908Y0100474D01*
X0101879Y0100623D01*
X0101846Y0100772D01*
X0101809Y0100919D01*
X0101769Y0101066D01*
X0101724Y0101211D01*
X0101676Y0101355D01*
X0101624Y0101498D01*
X0101569Y0101640D01*
X0101510Y0101780D01*
X0101447Y0101919D01*
X0101381Y0102056D01*
X0101311Y0102191D01*
X0101238Y0102324D01*
X0101161Y0102455D01*
X0101081Y0102585D01*
X0100998Y0102712D01*
X0100912Y0102837D01*
X0100822Y0102960D01*
X0100729Y0103080D01*
X0100633Y0103198D01*
X0100534Y0103314D01*
X0100432Y0103427D01*
X0100328Y0103537D01*
X0100220Y0103645D01*
X0100110Y0103749D01*
X0099997Y0103851D01*
X0099881Y0103950D01*
X0099763Y0104046D01*
X0099643Y0104139D01*
X0099520Y0104229D01*
X0099395Y0104315D01*
X0099268Y0104398D01*
X0099138Y0104478D01*
X0099007Y0104555D01*
X0098874Y0104628D01*
X0098739Y0104698D01*
X0098602Y0104764D01*
X0098463Y0104827D01*
X0098323Y0104886D01*
X0098181Y0104941D01*
X0098038Y0104993D01*
X0097894Y0105041D01*
X0097749Y0105086D01*
X0097602Y0105126D01*
X0097455Y0105163D01*
X0097306Y0105196D01*
X0097157Y0105225D01*
X0097007Y0105251D01*
X0096856Y0105272D01*
X0096705Y0105290D01*
X0096554Y0105303D01*
X0096402Y0105313D01*
X0096250Y0105319D01*
X0096098Y0105321D01*
X0096098Y0105320D02*
X0009483Y0105320D01*
X0009483Y0105321D02*
X0009331Y0105319D01*
X0009179Y0105313D01*
X0009027Y0105303D01*
X0008876Y0105290D01*
X0008725Y0105272D01*
X0008574Y0105251D01*
X0008424Y0105225D01*
X0008275Y0105196D01*
X0008126Y0105163D01*
X0007979Y0105126D01*
X0007832Y0105086D01*
X0007687Y0105041D01*
X0007543Y0104993D01*
X0007400Y0104941D01*
X0007258Y0104886D01*
X0007118Y0104827D01*
X0006979Y0104764D01*
X0006842Y0104698D01*
X0006707Y0104628D01*
X0006574Y0104555D01*
X0006443Y0104478D01*
X0006313Y0104398D01*
X0006186Y0104315D01*
X0006061Y0104229D01*
X0005938Y0104139D01*
X0005818Y0104046D01*
X0005700Y0103950D01*
X0005584Y0103851D01*
X0005471Y0103749D01*
X0005361Y0103645D01*
X0005253Y0103537D01*
X0005149Y0103427D01*
X0005047Y0103314D01*
X0004948Y0103198D01*
X0004852Y0103080D01*
X0004759Y0102960D01*
X0004669Y0102837D01*
X0004583Y0102712D01*
X0004500Y0102585D01*
X0004420Y0102455D01*
X0004343Y0102324D01*
X0004270Y0102191D01*
X0004200Y0102056D01*
X0004134Y0101919D01*
X0004071Y0101780D01*
X0004012Y0101640D01*
X0003957Y0101498D01*
X0003905Y0101355D01*
X0003857Y0101211D01*
X0003812Y0101066D01*
X0003772Y0100919D01*
X0003735Y0100772D01*
X0003702Y0100623D01*
X0003673Y0100474D01*
X0003647Y0100324D01*
X0003626Y0100173D01*
X0003608Y0100022D01*
X0003595Y0099871D01*
X0003585Y0099719D01*
X0003579Y0099567D01*
X0003577Y0099415D01*
X0003578Y0099415D02*
X0003578Y0012801D01*
X0003577Y0012801D02*
X0003579Y0012649D01*
X0003585Y0012497D01*
X0003595Y0012345D01*
X0003608Y0012194D01*
X0003626Y0012043D01*
X0003647Y0011892D01*
X0003673Y0011742D01*
X0003702Y0011593D01*
X0003735Y0011444D01*
X0003772Y0011297D01*
X0003812Y0011150D01*
X0003857Y0011005D01*
X0003905Y0010861D01*
X0003957Y0010718D01*
X0004012Y0010576D01*
X0004071Y0010436D01*
X0004134Y0010297D01*
X0004200Y0010160D01*
X0004270Y0010025D01*
X0004343Y0009892D01*
X0004420Y0009761D01*
X0004500Y0009631D01*
X0004583Y0009504D01*
X0004669Y0009379D01*
X0004759Y0009256D01*
X0004852Y0009136D01*
X0004948Y0009018D01*
X0005047Y0008902D01*
X0005149Y0008789D01*
X0005253Y0008679D01*
X0005361Y0008571D01*
X0005471Y0008467D01*
X0005584Y0008365D01*
X0005700Y0008266D01*
X0005818Y0008170D01*
X0005938Y0008077D01*
X0006061Y0007987D01*
X0006186Y0007901D01*
X0006313Y0007818D01*
X0006443Y0007738D01*
X0006574Y0007661D01*
X0006707Y0007588D01*
X0006842Y0007518D01*
X0006979Y0007452D01*
X0007118Y0007389D01*
X0007258Y0007330D01*
X0007400Y0007275D01*
X0007543Y0007223D01*
X0007687Y0007175D01*
X0007832Y0007130D01*
X0007979Y0007090D01*
X0008126Y0007053D01*
X0008275Y0007020D01*
X0008424Y0006991D01*
X0008574Y0006965D01*
X0008725Y0006944D01*
X0008876Y0006926D01*
X0009027Y0006913D01*
X0009179Y0006903D01*
X0009331Y0006897D01*
X0009483Y0006895D01*
D11*
X0026019Y0020675D03*
X0026019Y0026580D03*
X0032318Y0026580D03*
X0032318Y0020675D03*
X0037830Y0016738D03*
X0037830Y0010832D03*
X0044129Y0010832D03*
X0044129Y0016738D03*
X0033105Y0033273D03*
X0027200Y0033273D03*
X0027200Y0039572D03*
X0033105Y0039572D03*
X0035074Y0050989D03*
X0040979Y0050989D03*
X0046885Y0050989D03*
X0046885Y0057289D03*
X0040979Y0057289D03*
X0035074Y0057289D03*
X0027200Y0064769D03*
X0027200Y0071068D03*
X0027200Y0076580D03*
X0027200Y0082879D03*
X0027200Y0088391D03*
X0027200Y0094690D03*
X0039798Y0101383D03*
X0046098Y0101383D03*
X0053578Y0085438D03*
X0059877Y0085438D03*
X0070507Y0092328D03*
X0070507Y0098627D03*
X0081137Y0091541D03*
X0087436Y0091541D03*
X0085074Y0083667D03*
X0091373Y0083667D03*
X0090192Y0076974D03*
X0090192Y0070675D03*
X0098066Y0070675D03*
X0098066Y0076974D03*
X0098066Y0057289D03*
X0098066Y0050989D03*
X0061846Y0040360D03*
X0055546Y0040360D03*
X0025231Y0050989D03*
X0025231Y0057289D03*
X0018538Y0044297D03*
X0012239Y0044297D03*
D12*
X0057712Y0050202D03*
X0059680Y0050202D03*
X0061649Y0050202D03*
X0063617Y0050202D03*
X0065586Y0050202D03*
X0067554Y0050202D03*
X0069523Y0050202D03*
X0071491Y0050202D03*
X0073460Y0050202D03*
X0075428Y0050202D03*
X0077397Y0050202D03*
X0079365Y0050202D03*
X0079365Y0077761D03*
X0077397Y0077761D03*
X0075428Y0077761D03*
X0073460Y0077761D03*
X0071491Y0077761D03*
X0069523Y0077761D03*
X0067554Y0077761D03*
X0065586Y0077761D03*
X0063617Y0077761D03*
X0061649Y0077761D03*
X0059680Y0077761D03*
X0057712Y0077761D03*
D13*
X0054759Y0074808D03*
X0054759Y0072840D03*
X0054759Y0070871D03*
X0054759Y0068903D03*
X0054759Y0066934D03*
X0054759Y0064966D03*
X0054759Y0062997D03*
X0054759Y0061029D03*
X0054759Y0059060D03*
X0054759Y0057092D03*
X0054759Y0055123D03*
X0054759Y0053155D03*
X0082318Y0053155D03*
X0082318Y0055123D03*
X0082318Y0057092D03*
X0082318Y0059060D03*
X0082318Y0061029D03*
X0082318Y0062997D03*
X0082318Y0064966D03*
X0082318Y0066934D03*
X0082318Y0068903D03*
X0082318Y0070871D03*
X0082318Y0072840D03*
X0082318Y0074808D03*
D14*
X0074444Y0063982D03*
X0068538Y0063982D03*
X0062633Y0063982D03*
X0068538Y0058076D03*
X0068538Y0069887D03*
D15*
X0075428Y0070871D03*
X0061649Y0070871D03*
X0061649Y0057092D03*
X0075428Y0057092D03*
D16*
X0017751Y0057879D03*
X0009090Y0054139D03*
X0017751Y0050399D03*
D17*
X0023657Y0013686D03*
X0023657Y0009946D03*
X0030743Y0009946D03*
X0030743Y0013686D03*
X0080743Y0098529D03*
X0080743Y0102269D03*
X0087830Y0102269D03*
X0087830Y0098529D03*
D18*
X0058499Y0032486D03*
X0051019Y0032486D03*
D19*
X0040979Y0085241D03*
X0039011Y0085241D03*
X0037042Y0085241D03*
X0037042Y0093903D03*
X0039011Y0093903D03*
X0040979Y0093903D03*
D20*
X0044129Y0092525D03*
X0044129Y0090556D03*
X0044129Y0088588D03*
X0044129Y0086619D03*
X0033893Y0086619D03*
X0033893Y0088588D03*
X0033893Y0090556D03*
X0033893Y0092525D03*
X0069129Y0037407D03*
X0069129Y0035438D03*
X0079759Y0035438D03*
X0079759Y0037407D03*
X0086846Y0037407D03*
X0086846Y0035438D03*
X0097475Y0035438D03*
X0097475Y0037407D03*
D21*
X0063027Y0093115D03*
X0063027Y0095478D03*
X0063027Y0097840D03*
X0054365Y0097840D03*
X0054365Y0095478D03*
X0054365Y0093115D03*
D22*
X0057515Y0091147D03*
X0059877Y0091147D03*
X0059877Y0099808D03*
X0057515Y0099808D03*
D23*
X0069523Y0040753D03*
X0071491Y0040753D03*
X0073460Y0040753D03*
X0075428Y0040753D03*
X0079365Y0040753D03*
X0087239Y0040753D03*
X0089208Y0040753D03*
X0091176Y0040753D03*
X0093145Y0040753D03*
X0097082Y0040753D03*
X0097082Y0032092D03*
X0095113Y0032092D03*
X0093145Y0032092D03*
X0091176Y0032092D03*
X0089208Y0032092D03*
X0087239Y0032092D03*
X0079365Y0032092D03*
X0077397Y0032092D03*
X0075428Y0032092D03*
X0073460Y0032092D03*
X0071491Y0032092D03*
X0069523Y0032092D03*
D24*
X0077397Y0040753D03*
X0095113Y0040753D03*
D25*
X0092161Y0036423D03*
X0074444Y0036423D03*
D26*
X0038027Y0066541D03*
X0036058Y0066541D03*
X0036058Y0073234D03*
X0038027Y0073234D03*
D27*
X0040389Y0072840D03*
X0040389Y0070871D03*
X0040389Y0068903D03*
X0040389Y0066934D03*
X0033696Y0066934D03*
X0033696Y0068903D03*
X0033696Y0070871D03*
X0033696Y0072840D03*
M02*
