G75*
%MOIN*%
%OFA0B0*%
%FSLAX25Y25*%
%IPPOS*%
%LPD*%
%AMOC8*
5,1,8,0,0,1.08239X$1,22.5*
%
%ADD10C,0.00000*%
%ADD11C,0.00300*%
%ADD12C,0.05600*%
%ADD13R,0.06000X0.06000*%
%ADD14C,0.06000*%
%ADD15C,0.03500*%
%ADD16C,0.02178*%
%ADD17C,0.02953*%
%ADD18C,0.00984*%
%ADD19C,0.05906*%
D10*
X0009483Y0006895D02*
X0096098Y0006895D01*
X0096250Y0006897D01*
X0096402Y0006903D01*
X0096554Y0006913D01*
X0096705Y0006926D01*
X0096856Y0006944D01*
X0097007Y0006965D01*
X0097157Y0006991D01*
X0097306Y0007020D01*
X0097455Y0007053D01*
X0097602Y0007090D01*
X0097749Y0007130D01*
X0097894Y0007175D01*
X0098038Y0007223D01*
X0098181Y0007275D01*
X0098323Y0007330D01*
X0098463Y0007389D01*
X0098602Y0007452D01*
X0098739Y0007518D01*
X0098874Y0007588D01*
X0099007Y0007661D01*
X0099138Y0007738D01*
X0099268Y0007818D01*
X0099395Y0007901D01*
X0099520Y0007987D01*
X0099643Y0008077D01*
X0099763Y0008170D01*
X0099881Y0008266D01*
X0099997Y0008365D01*
X0100110Y0008467D01*
X0100220Y0008571D01*
X0100328Y0008679D01*
X0100432Y0008789D01*
X0100534Y0008902D01*
X0100633Y0009018D01*
X0100729Y0009136D01*
X0100822Y0009256D01*
X0100912Y0009379D01*
X0100998Y0009504D01*
X0101081Y0009631D01*
X0101161Y0009761D01*
X0101238Y0009892D01*
X0101311Y0010025D01*
X0101381Y0010160D01*
X0101447Y0010297D01*
X0101510Y0010436D01*
X0101569Y0010576D01*
X0101624Y0010718D01*
X0101676Y0010861D01*
X0101724Y0011005D01*
X0101769Y0011150D01*
X0101809Y0011297D01*
X0101846Y0011444D01*
X0101879Y0011593D01*
X0101908Y0011742D01*
X0101934Y0011892D01*
X0101955Y0012043D01*
X0101973Y0012194D01*
X0101986Y0012345D01*
X0101996Y0012497D01*
X0102002Y0012649D01*
X0102004Y0012801D01*
X0102003Y0012801D02*
X0102003Y0099415D01*
X0102004Y0099415D02*
X0102002Y0099567D01*
X0101996Y0099719D01*
X0101986Y0099871D01*
X0101973Y0100022D01*
X0101955Y0100173D01*
X0101934Y0100324D01*
X0101908Y0100474D01*
X0101879Y0100623D01*
X0101846Y0100772D01*
X0101809Y0100919D01*
X0101769Y0101066D01*
X0101724Y0101211D01*
X0101676Y0101355D01*
X0101624Y0101498D01*
X0101569Y0101640D01*
X0101510Y0101780D01*
X0101447Y0101919D01*
X0101381Y0102056D01*
X0101311Y0102191D01*
X0101238Y0102324D01*
X0101161Y0102455D01*
X0101081Y0102585D01*
X0100998Y0102712D01*
X0100912Y0102837D01*
X0100822Y0102960D01*
X0100729Y0103080D01*
X0100633Y0103198D01*
X0100534Y0103314D01*
X0100432Y0103427D01*
X0100328Y0103537D01*
X0100220Y0103645D01*
X0100110Y0103749D01*
X0099997Y0103851D01*
X0099881Y0103950D01*
X0099763Y0104046D01*
X0099643Y0104139D01*
X0099520Y0104229D01*
X0099395Y0104315D01*
X0099268Y0104398D01*
X0099138Y0104478D01*
X0099007Y0104555D01*
X0098874Y0104628D01*
X0098739Y0104698D01*
X0098602Y0104764D01*
X0098463Y0104827D01*
X0098323Y0104886D01*
X0098181Y0104941D01*
X0098038Y0104993D01*
X0097894Y0105041D01*
X0097749Y0105086D01*
X0097602Y0105126D01*
X0097455Y0105163D01*
X0097306Y0105196D01*
X0097157Y0105225D01*
X0097007Y0105251D01*
X0096856Y0105272D01*
X0096705Y0105290D01*
X0096554Y0105303D01*
X0096402Y0105313D01*
X0096250Y0105319D01*
X0096098Y0105321D01*
X0096098Y0105320D02*
X0009483Y0105320D01*
X0009483Y0105321D02*
X0009331Y0105319D01*
X0009179Y0105313D01*
X0009027Y0105303D01*
X0008876Y0105290D01*
X0008725Y0105272D01*
X0008574Y0105251D01*
X0008424Y0105225D01*
X0008275Y0105196D01*
X0008126Y0105163D01*
X0007979Y0105126D01*
X0007832Y0105086D01*
X0007687Y0105041D01*
X0007543Y0104993D01*
X0007400Y0104941D01*
X0007258Y0104886D01*
X0007118Y0104827D01*
X0006979Y0104764D01*
X0006842Y0104698D01*
X0006707Y0104628D01*
X0006574Y0104555D01*
X0006443Y0104478D01*
X0006313Y0104398D01*
X0006186Y0104315D01*
X0006061Y0104229D01*
X0005938Y0104139D01*
X0005818Y0104046D01*
X0005700Y0103950D01*
X0005584Y0103851D01*
X0005471Y0103749D01*
X0005361Y0103645D01*
X0005253Y0103537D01*
X0005149Y0103427D01*
X0005047Y0103314D01*
X0004948Y0103198D01*
X0004852Y0103080D01*
X0004759Y0102960D01*
X0004669Y0102837D01*
X0004583Y0102712D01*
X0004500Y0102585D01*
X0004420Y0102455D01*
X0004343Y0102324D01*
X0004270Y0102191D01*
X0004200Y0102056D01*
X0004134Y0101919D01*
X0004071Y0101780D01*
X0004012Y0101640D01*
X0003957Y0101498D01*
X0003905Y0101355D01*
X0003857Y0101211D01*
X0003812Y0101066D01*
X0003772Y0100919D01*
X0003735Y0100772D01*
X0003702Y0100623D01*
X0003673Y0100474D01*
X0003647Y0100324D01*
X0003626Y0100173D01*
X0003608Y0100022D01*
X0003595Y0099871D01*
X0003585Y0099719D01*
X0003579Y0099567D01*
X0003577Y0099415D01*
X0003578Y0099415D02*
X0003578Y0012801D01*
X0003577Y0012801D02*
X0003579Y0012649D01*
X0003585Y0012497D01*
X0003595Y0012345D01*
X0003608Y0012194D01*
X0003626Y0012043D01*
X0003647Y0011892D01*
X0003673Y0011742D01*
X0003702Y0011593D01*
X0003735Y0011444D01*
X0003772Y0011297D01*
X0003812Y0011150D01*
X0003857Y0011005D01*
X0003905Y0010861D01*
X0003957Y0010718D01*
X0004012Y0010576D01*
X0004071Y0010436D01*
X0004134Y0010297D01*
X0004200Y0010160D01*
X0004270Y0010025D01*
X0004343Y0009892D01*
X0004420Y0009761D01*
X0004500Y0009631D01*
X0004583Y0009504D01*
X0004669Y0009379D01*
X0004759Y0009256D01*
X0004852Y0009136D01*
X0004948Y0009018D01*
X0005047Y0008902D01*
X0005149Y0008789D01*
X0005253Y0008679D01*
X0005361Y0008571D01*
X0005471Y0008467D01*
X0005584Y0008365D01*
X0005700Y0008266D01*
X0005818Y0008170D01*
X0005938Y0008077D01*
X0006061Y0007987D01*
X0006186Y0007901D01*
X0006313Y0007818D01*
X0006443Y0007738D01*
X0006574Y0007661D01*
X0006707Y0007588D01*
X0006842Y0007518D01*
X0006979Y0007452D01*
X0007118Y0007389D01*
X0007258Y0007330D01*
X0007400Y0007275D01*
X0007543Y0007223D01*
X0007687Y0007175D01*
X0007832Y0007130D01*
X0007979Y0007090D01*
X0008126Y0007053D01*
X0008275Y0007020D01*
X0008424Y0006991D01*
X0008574Y0006965D01*
X0008725Y0006944D01*
X0008876Y0006926D01*
X0009027Y0006913D01*
X0009179Y0006903D01*
X0009331Y0006897D01*
X0009483Y0006895D01*
D11*
X0007169Y0015958D02*
X0005500Y0015958D01*
X0005500Y0016793D01*
X0005778Y0017071D01*
X0006334Y0017071D01*
X0006613Y0016793D01*
X0006613Y0015958D01*
X0006334Y0017771D02*
X0005778Y0017771D01*
X0005500Y0018049D01*
X0005500Y0018606D01*
X0005778Y0018884D01*
X0006334Y0018884D01*
X0006613Y0018606D01*
X0006613Y0018049D01*
X0006334Y0017771D01*
X0006613Y0019583D02*
X0006613Y0020140D01*
X0006891Y0019861D02*
X0005778Y0019861D01*
X0005500Y0020140D01*
X0005778Y0021070D02*
X0005500Y0021348D01*
X0005778Y0021070D02*
X0006891Y0021070D01*
X0006613Y0020792D02*
X0006613Y0021348D01*
X0006334Y0022000D02*
X0005778Y0022000D01*
X0005500Y0022278D01*
X0005500Y0022835D01*
X0005778Y0023113D01*
X0006334Y0023113D01*
X0006613Y0022835D01*
X0006613Y0022278D01*
X0006334Y0022000D01*
X0006613Y0023812D02*
X0005500Y0023812D01*
X0005500Y0024369D02*
X0006334Y0024369D01*
X0006613Y0024647D01*
X0006334Y0024926D01*
X0005500Y0024926D01*
X0006334Y0024369D02*
X0006613Y0024091D01*
X0006613Y0023812D01*
X0007169Y0027438D02*
X0007169Y0027716D01*
X0005500Y0027716D01*
X0005500Y0027438D02*
X0005500Y0027994D01*
X0005778Y0028646D02*
X0006056Y0028924D01*
X0006056Y0029759D01*
X0006334Y0029759D02*
X0005500Y0029759D01*
X0005500Y0028924D01*
X0005778Y0028646D01*
X0006613Y0028924D02*
X0006613Y0029481D01*
X0006334Y0029759D01*
X0006613Y0030459D02*
X0005778Y0030459D01*
X0005500Y0030737D01*
X0005500Y0031572D01*
X0005221Y0031572D02*
X0004943Y0031293D01*
X0004943Y0031015D01*
X0005221Y0031572D02*
X0006613Y0031572D01*
X0006334Y0032271D02*
X0006613Y0032549D01*
X0006613Y0033106D01*
X0006334Y0033384D01*
X0006056Y0033384D01*
X0006056Y0032271D01*
X0005778Y0032271D02*
X0006334Y0032271D01*
X0005778Y0032271D02*
X0005500Y0032549D01*
X0005500Y0033106D01*
X0005500Y0034084D02*
X0006613Y0034084D01*
X0006613Y0034640D02*
X0006613Y0034919D01*
X0006613Y0034640D02*
X0006056Y0034084D01*
X0005778Y0037407D02*
X0005500Y0037685D01*
X0005500Y0038242D01*
X0005778Y0038520D01*
X0006334Y0038520D01*
X0006613Y0038242D01*
X0006613Y0037685D01*
X0006334Y0037407D01*
X0005778Y0037407D01*
X0006334Y0039219D02*
X0006334Y0039776D01*
X0006891Y0039498D02*
X0005500Y0039498D01*
X0006891Y0039498D02*
X0007169Y0039776D01*
X0006334Y0042240D02*
X0006334Y0043353D01*
X0005500Y0043075D02*
X0007169Y0043075D01*
X0006334Y0042240D01*
D12*
X0014405Y0032486D03*
X0014405Y0024612D03*
D13*
X0057475Y0011738D03*
X0008499Y0087604D03*
D14*
X0018499Y0087604D03*
X0018499Y0077604D03*
X0008499Y0077604D03*
X0008499Y0067604D03*
X0018499Y0067604D03*
X0057475Y0021738D03*
X0067475Y0021738D03*
X0077475Y0021738D03*
X0087475Y0021738D03*
X0087475Y0011738D03*
X0077475Y0011738D03*
X0067475Y0011738D03*
D15*
X0076413Y0083667D03*
X0076413Y0089572D03*
D16*
X0074641Y0092328D03*
X0070901Y0087013D03*
X0067554Y0088391D03*
X0063814Y0085438D03*
X0050822Y0079730D03*
X0046688Y0081108D03*
X0049838Y0085438D03*
X0050428Y0091344D03*
X0050428Y0094493D03*
X0047082Y0096462D03*
X0050428Y0098037D03*
X0034090Y0097446D03*
X0031334Y0094887D03*
X0027200Y0099415D03*
X0019326Y0101383D03*
X0008499Y0094887D03*
X0034090Y0081501D03*
X0043735Y0072840D03*
X0046688Y0066738D03*
X0050822Y0070871D03*
X0043932Y0061226D03*
X0037042Y0063982D03*
X0031137Y0063982D03*
X0037042Y0069887D03*
X0050625Y0057486D03*
X0050822Y0050989D03*
X0046885Y0047052D03*
X0040979Y0047249D03*
X0035074Y0047052D03*
X0037239Y0039572D03*
X0040586Y0030714D03*
X0037042Y0026580D03*
X0043932Y0023824D03*
X0050035Y0010832D03*
X0022869Y0033273D03*
X0018342Y0037407D03*
X0022869Y0039572D03*
X0025625Y0044100D03*
X0008499Y0037604D03*
X0006727Y0060241D03*
X0049050Y0037801D03*
X0051216Y0037801D03*
X0051609Y0040360D03*
X0064601Y0036423D03*
X0072475Y0036423D03*
X0076413Y0036423D03*
X0083302Y0039178D03*
X0083302Y0041541D03*
X0083302Y0044887D03*
X0088617Y0050005D03*
X0093342Y0055320D03*
X0090586Y0058076D03*
X0087042Y0058076D03*
X0091373Y0064375D03*
X0087633Y0066147D03*
X0098066Y0061423D03*
X0099050Y0065950D03*
X0094129Y0076974D03*
X0094916Y0083667D03*
X0096098Y0086816D03*
X0099050Y0089572D03*
X0091373Y0087801D03*
X0085074Y0087801D03*
X0081137Y0086816D03*
X0081137Y0083667D03*
X0092751Y0096856D03*
X0074838Y0102171D03*
X0074641Y0098627D03*
X0072475Y0067919D03*
X0064601Y0067919D03*
X0064601Y0060045D03*
X0072475Y0060045D03*
X0076019Y0045084D03*
X0065586Y0044297D03*
X0090192Y0036423D03*
X0094129Y0036423D03*
X0098066Y0047052D03*
X0098066Y0022643D03*
X0018342Y0011816D03*
D17*
X0015389Y0008864D03*
X0015389Y0014769D03*
X0047672Y0026974D03*
X0064601Y0032486D03*
X0078381Y0027958D03*
X0082909Y0028155D03*
X0094129Y0018706D03*
X0100035Y0018706D03*
X0096098Y0027958D03*
X0029759Y0050989D03*
X0029562Y0057289D03*
X0015389Y0097446D03*
X0015389Y0103352D03*
X0094129Y0093509D03*
X0100035Y0093509D03*
D18*
X0097087Y0092395D02*
X0097077Y0092395D01*
X0097082Y0092407D02*
X0097345Y0091773D01*
X0096709Y0091137D01*
X0096288Y0090122D01*
X0096288Y0089578D01*
X0095548Y0089578D01*
X0094533Y0089158D01*
X0093756Y0088381D01*
X0093335Y0087366D01*
X0093335Y0086267D01*
X0093756Y0085252D01*
X0094533Y0084475D01*
X0095548Y0084054D01*
X0096647Y0084054D01*
X0097662Y0084475D01*
X0098439Y0085252D01*
X0098860Y0086267D01*
X0098860Y0086810D01*
X0099600Y0086810D01*
X0100011Y0086980D01*
X0100011Y0049014D01*
X0099631Y0049394D01*
X0098615Y0049815D01*
X0097517Y0049815D01*
X0096501Y0049394D01*
X0095724Y0048617D01*
X0095304Y0047602D01*
X0095304Y0046503D01*
X0095724Y0045488D01*
X0096501Y0044711D01*
X0097517Y0044290D01*
X0098615Y0044290D01*
X0099631Y0044711D01*
X0100011Y0045091D01*
X0100011Y0021856D01*
X0099408Y0021856D01*
X0098250Y0021376D01*
X0097364Y0020490D01*
X0097082Y0019808D01*
X0096799Y0020490D01*
X0095913Y0021376D01*
X0094756Y0021856D01*
X0093503Y0021856D01*
X0092345Y0021376D01*
X0092149Y0021180D01*
X0092149Y0022667D01*
X0091437Y0024385D01*
X0090123Y0025699D01*
X0088405Y0026411D01*
X0086546Y0026411D01*
X0084963Y0025755D01*
X0085579Y0026371D01*
X0086058Y0027528D01*
X0086058Y0028781D01*
X0085579Y0029939D01*
X0084693Y0030825D01*
X0083535Y0031304D01*
X0082282Y0031304D01*
X0081124Y0030825D01*
X0080238Y0029939D01*
X0079759Y0028781D01*
X0079759Y0027528D01*
X0080238Y0026371D01*
X0081124Y0025485D01*
X0082282Y0025005D01*
X0083535Y0025005D01*
X0084558Y0025429D01*
X0083514Y0024385D01*
X0082802Y0022667D01*
X0082802Y0020808D01*
X0083514Y0019090D01*
X0084828Y0017776D01*
X0086546Y0017064D01*
X0088405Y0017064D01*
X0090123Y0017776D01*
X0090979Y0018633D01*
X0090979Y0018080D01*
X0091459Y0016922D01*
X0092345Y0016036D01*
X0093503Y0015556D01*
X0094280Y0015556D01*
X0093160Y0014437D01*
X0092456Y0012736D01*
X0092456Y0010896D01*
X0093160Y0009196D01*
X0093469Y0008887D01*
X0090957Y0008887D01*
X0091317Y0009383D01*
X0091638Y0010013D01*
X0091857Y0010686D01*
X0091946Y0011245D01*
X0087968Y0011245D01*
X0087968Y0012230D01*
X0086983Y0012230D01*
X0086983Y0016208D01*
X0086424Y0016119D01*
X0085751Y0015901D01*
X0085121Y0015580D01*
X0084549Y0015164D01*
X0084049Y0014664D01*
X0083633Y0014092D01*
X0083312Y0013462D01*
X0083094Y0012789D01*
X0083005Y0012230D01*
X0086983Y0012230D01*
X0086983Y0011245D01*
X0083005Y0011245D01*
X0083094Y0010686D01*
X0083312Y0010013D01*
X0083633Y0009383D01*
X0083994Y0008887D01*
X0081234Y0008887D01*
X0081437Y0009090D01*
X0082149Y0010808D01*
X0082149Y0012667D01*
X0081437Y0014385D01*
X0080123Y0015699D01*
X0078405Y0016411D01*
X0076546Y0016411D01*
X0074828Y0015699D01*
X0073514Y0014385D01*
X0072802Y0012667D01*
X0072802Y0010808D01*
X0073514Y0009090D01*
X0073717Y0008887D01*
X0070957Y0008887D01*
X0071317Y0009383D01*
X0071638Y0010013D01*
X0071857Y0010686D01*
X0071946Y0011245D01*
X0067968Y0011245D01*
X0067968Y0012230D01*
X0066983Y0012230D01*
X0066983Y0016208D01*
X0066424Y0016119D01*
X0065751Y0015901D01*
X0065121Y0015580D01*
X0064549Y0015164D01*
X0064049Y0014664D01*
X0063633Y0014092D01*
X0063312Y0013462D01*
X0063094Y0012789D01*
X0063005Y0012230D01*
X0066983Y0012230D01*
X0066983Y0011245D01*
X0063005Y0011245D01*
X0063094Y0010686D01*
X0063312Y0010013D01*
X0063633Y0009383D01*
X0063994Y0008887D01*
X0062149Y0008887D01*
X0062149Y0015431D01*
X0061169Y0016411D01*
X0053782Y0016411D01*
X0052802Y0015431D01*
X0052802Y0008887D01*
X0051996Y0008887D01*
X0052376Y0009267D01*
X0052797Y0010283D01*
X0052797Y0011381D01*
X0052376Y0012397D01*
X0051599Y0013174D01*
X0050584Y0013594D01*
X0049485Y0013594D01*
X0048470Y0013174D01*
X0047693Y0012397D01*
X0047272Y0011381D01*
X0047272Y0010283D01*
X0047693Y0009267D01*
X0048073Y0008887D01*
X0018538Y0008887D01*
X0018538Y0009490D01*
X0018059Y0010648D01*
X0017173Y0011534D01*
X0016491Y0011816D01*
X0017173Y0012099D01*
X0018059Y0012985D01*
X0018538Y0014143D01*
X0018538Y0015396D01*
X0018059Y0016553D01*
X0017173Y0017439D01*
X0016015Y0017919D01*
X0014762Y0017919D01*
X0013605Y0017439D01*
X0012719Y0016553D01*
X0012239Y0015396D01*
X0012239Y0014618D01*
X0011120Y0015738D01*
X0009419Y0016442D01*
X0008993Y0016442D01*
X0008993Y0016713D01*
X0008436Y0017270D01*
X0008436Y0018828D01*
X0008714Y0019106D01*
X0008714Y0021825D01*
X0008436Y0022103D01*
X0008436Y0025403D01*
X0008158Y0025681D01*
X0008074Y0025764D01*
X0008993Y0026682D01*
X0008993Y0028471D01*
X0008436Y0029028D01*
X0008436Y0035674D01*
X0007808Y0036302D01*
X0008158Y0036651D01*
X0008436Y0036930D01*
X0008436Y0038464D01*
X0008993Y0039021D01*
X0008993Y0040531D01*
X0008098Y0041425D01*
X0008158Y0041485D01*
X0008993Y0042320D01*
X0008993Y0043830D01*
X0007925Y0044898D01*
X0007368Y0044898D01*
X0007090Y0045177D01*
X0005579Y0045177D01*
X0005570Y0045167D01*
X0005570Y0063924D01*
X0005852Y0063642D01*
X0007570Y0062930D01*
X0009429Y0062930D01*
X0011146Y0063642D01*
X0012461Y0064956D01*
X0013172Y0066674D01*
X0013172Y0068533D01*
X0012461Y0070251D01*
X0011146Y0071565D01*
X0009429Y0072277D01*
X0007570Y0072277D01*
X0005852Y0071565D01*
X0005570Y0071283D01*
X0005570Y0073924D01*
X0005852Y0073642D01*
X0007570Y0072930D01*
X0009429Y0072930D01*
X0011146Y0073642D01*
X0012461Y0074956D01*
X0013172Y0076674D01*
X0013172Y0078533D01*
X0012461Y0080251D01*
X0011146Y0081565D01*
X0009429Y0082277D01*
X0007570Y0082277D01*
X0005852Y0081565D01*
X0005570Y0081283D01*
X0005570Y0082930D01*
X0012192Y0082930D01*
X0013172Y0083911D01*
X0013172Y0091297D01*
X0012192Y0092277D01*
X0005570Y0092277D01*
X0005570Y0096786D01*
X0005879Y0096477D01*
X0007579Y0095773D01*
X0009419Y0095773D01*
X0011120Y0096477D01*
X0012239Y0097597D01*
X0012239Y0096820D01*
X0012719Y0095662D01*
X0013605Y0094776D01*
X0014762Y0094297D01*
X0016015Y0094297D01*
X0017173Y0094776D01*
X0018059Y0095662D01*
X0018538Y0096820D01*
X0018538Y0098073D01*
X0018215Y0098854D01*
X0018776Y0098621D01*
X0019875Y0098621D01*
X0020891Y0099042D01*
X0021668Y0099819D01*
X0022088Y0100834D01*
X0022088Y0101933D01*
X0021668Y0102948D01*
X0021287Y0103328D01*
X0072327Y0103328D01*
X0072075Y0102720D01*
X0072075Y0101621D01*
X0072496Y0100606D01*
X0072605Y0100497D01*
X0072299Y0100192D01*
X0071879Y0099177D01*
X0071879Y0098078D01*
X0072299Y0097063D01*
X0073076Y0096286D01*
X0074091Y0095865D01*
X0075190Y0095865D01*
X0076205Y0096286D01*
X0076983Y0097063D01*
X0077403Y0098078D01*
X0077403Y0099177D01*
X0076983Y0100192D01*
X0076874Y0100301D01*
X0077179Y0100606D01*
X0077600Y0101621D01*
X0077600Y0102720D01*
X0077348Y0103328D01*
X0093469Y0103328D01*
X0093160Y0103019D01*
X0092456Y0101319D01*
X0092456Y0099479D01*
X0093160Y0097779D01*
X0094280Y0096659D01*
X0093503Y0096659D01*
X0092345Y0096179D01*
X0091459Y0095293D01*
X0090979Y0094136D01*
X0090979Y0092883D01*
X0091459Y0091725D01*
X0092345Y0090839D01*
X0093503Y0090360D01*
X0094756Y0090360D01*
X0095913Y0090839D01*
X0096799Y0091725D01*
X0097082Y0092407D01*
X0096984Y0091413D02*
X0096487Y0091413D01*
X0096416Y0090430D02*
X0094925Y0090430D01*
X0095231Y0089447D02*
X0087334Y0089447D01*
X0087416Y0089365D02*
X0086639Y0090142D01*
X0085623Y0090563D01*
X0084524Y0090563D01*
X0083509Y0090142D01*
X0082732Y0089365D01*
X0082312Y0088350D01*
X0082312Y0087251D01*
X0082732Y0086236D01*
X0083509Y0085459D01*
X0084524Y0085038D01*
X0085623Y0085038D01*
X0086639Y0085459D01*
X0087416Y0086236D01*
X0087836Y0087251D01*
X0087836Y0088350D01*
X0087416Y0089365D01*
X0087789Y0088464D02*
X0093839Y0088464D01*
X0093383Y0087482D02*
X0087836Y0087482D01*
X0087525Y0086499D02*
X0093335Y0086499D01*
X0093646Y0085516D02*
X0086696Y0085516D01*
X0083899Y0084216D02*
X0083899Y0083117D01*
X0083479Y0082102D01*
X0082702Y0081325D01*
X0081686Y0080904D01*
X0080587Y0080904D01*
X0079572Y0081325D01*
X0079242Y0081655D01*
X0078352Y0080765D01*
X0077093Y0080243D01*
X0075732Y0080243D01*
X0074473Y0080765D01*
X0073510Y0081728D01*
X0072989Y0082986D01*
X0072989Y0084348D01*
X0073510Y0085606D01*
X0074473Y0086569D01*
X0074843Y0086722D01*
X0074346Y0087054D01*
X0073894Y0087505D01*
X0073539Y0088036D01*
X0073295Y0088626D01*
X0073170Y0089253D01*
X0073170Y0089564D01*
X0076405Y0089564D01*
X0076405Y0089580D01*
X0076405Y0092814D01*
X0076093Y0092814D01*
X0075467Y0092690D01*
X0074877Y0092445D01*
X0074346Y0092090D01*
X0073894Y0091639D01*
X0073539Y0091108D01*
X0073295Y0090518D01*
X0073170Y0089891D01*
X0073170Y0089580D01*
X0076405Y0089580D01*
X0076420Y0089580D01*
X0076420Y0092814D01*
X0076732Y0092814D01*
X0077358Y0092690D01*
X0077948Y0092445D01*
X0078479Y0092090D01*
X0078931Y0091639D01*
X0079286Y0091108D01*
X0079530Y0090518D01*
X0079655Y0089891D01*
X0079655Y0089580D01*
X0076420Y0089580D01*
X0076420Y0089564D01*
X0079655Y0089564D01*
X0079655Y0089253D01*
X0079530Y0088626D01*
X0079286Y0088036D01*
X0078931Y0087505D01*
X0078479Y0087054D01*
X0077982Y0086722D01*
X0078352Y0086569D01*
X0079242Y0085678D01*
X0079572Y0086008D01*
X0080587Y0086429D01*
X0081686Y0086429D01*
X0082702Y0086008D01*
X0083479Y0085231D01*
X0083899Y0084216D01*
X0083768Y0084533D02*
X0094474Y0084533D01*
X0097721Y0084533D02*
X0100011Y0084533D01*
X0100011Y0083551D02*
X0083899Y0083551D01*
X0083672Y0082568D02*
X0100011Y0082568D01*
X0100011Y0081585D02*
X0082962Y0081585D01*
X0079312Y0081585D02*
X0079172Y0081585D01*
X0077960Y0080602D02*
X0100011Y0080602D01*
X0100011Y0079619D02*
X0049061Y0079619D01*
X0049030Y0079543D02*
X0049450Y0080558D01*
X0049450Y0081657D01*
X0049030Y0082672D01*
X0048840Y0082862D01*
X0049288Y0082676D01*
X0050387Y0082676D01*
X0051402Y0083097D01*
X0052179Y0083874D01*
X0052600Y0084889D01*
X0052600Y0085988D01*
X0052179Y0087003D01*
X0051402Y0087780D01*
X0050387Y0088201D01*
X0049288Y0088201D01*
X0048273Y0087780D01*
X0047496Y0087003D01*
X0047075Y0085988D01*
X0047075Y0084889D01*
X0047496Y0083874D01*
X0047685Y0083684D01*
X0047238Y0083870D01*
X0046139Y0083870D01*
X0045123Y0083449D01*
X0044346Y0082672D01*
X0043926Y0081657D01*
X0043926Y0080558D01*
X0044346Y0079543D01*
X0045123Y0078766D01*
X0046139Y0078345D01*
X0047238Y0078345D01*
X0048253Y0078766D01*
X0049030Y0079543D01*
X0049450Y0080602D02*
X0074865Y0080602D01*
X0073653Y0081585D02*
X0049450Y0081585D01*
X0049073Y0082568D02*
X0073162Y0082568D01*
X0072989Y0083551D02*
X0051856Y0083551D01*
X0052453Y0084533D02*
X0069669Y0084533D01*
X0069336Y0084671D02*
X0070351Y0084251D01*
X0071450Y0084251D01*
X0072465Y0084671D01*
X0073242Y0085448D01*
X0073663Y0086464D01*
X0073663Y0087563D01*
X0073242Y0088578D01*
X0072465Y0089355D01*
X0071450Y0089775D01*
X0070351Y0089775D01*
X0070026Y0089641D01*
X0069896Y0089956D01*
X0069119Y0090733D01*
X0068104Y0091153D01*
X0067005Y0091153D01*
X0065990Y0090733D01*
X0065213Y0089956D01*
X0064792Y0088941D01*
X0064792Y0087842D01*
X0065213Y0086826D01*
X0065990Y0086049D01*
X0067005Y0085629D01*
X0068104Y0085629D01*
X0068429Y0085763D01*
X0068559Y0085448D01*
X0069336Y0084671D01*
X0068531Y0085516D02*
X0052600Y0085516D01*
X0052388Y0086499D02*
X0065540Y0086499D01*
X0064941Y0087482D02*
X0051701Y0087482D01*
X0047975Y0087482D02*
X0018991Y0087482D01*
X0018991Y0087112D02*
X0018991Y0088096D01*
X0018007Y0088096D01*
X0018007Y0092074D01*
X0017447Y0091985D01*
X0016775Y0091767D01*
X0016145Y0091446D01*
X0015573Y0091030D01*
X0015073Y0090530D01*
X0014657Y0089958D01*
X0014336Y0089328D01*
X0014118Y0088656D01*
X0014029Y0088096D01*
X0018007Y0088096D01*
X0018007Y0087112D01*
X0014029Y0087112D01*
X0014118Y0086552D01*
X0014336Y0085879D01*
X0014657Y0085249D01*
X0015073Y0084677D01*
X0015573Y0084177D01*
X0016145Y0083762D01*
X0016775Y0083441D01*
X0017447Y0083222D01*
X0018007Y0083133D01*
X0018007Y0087111D01*
X0018991Y0087111D01*
X0018991Y0083133D01*
X0019551Y0083222D01*
X0020223Y0083441D01*
X0020853Y0083762D01*
X0021426Y0084177D01*
X0021926Y0084677D01*
X0022341Y0085249D01*
X0022662Y0085879D01*
X0022881Y0086552D01*
X0022969Y0087112D01*
X0018991Y0087112D01*
X0018991Y0086499D02*
X0018007Y0086499D01*
X0018007Y0087482D02*
X0013172Y0087482D01*
X0013172Y0088464D02*
X0014087Y0088464D01*
X0014397Y0089447D02*
X0013172Y0089447D01*
X0013172Y0090430D02*
X0015000Y0090430D01*
X0016099Y0091413D02*
X0013056Y0091413D01*
X0014607Y0094361D02*
X0005570Y0094361D01*
X0005570Y0095344D02*
X0013037Y0095344D01*
X0012444Y0096326D02*
X0010756Y0096326D01*
X0011952Y0097309D02*
X0012239Y0097309D01*
X0016171Y0094361D02*
X0028572Y0094361D01*
X0028572Y0094338D02*
X0028992Y0093322D01*
X0029769Y0092545D01*
X0030784Y0092125D01*
X0031883Y0092125D01*
X0032898Y0092545D01*
X0033675Y0093322D01*
X0034096Y0094338D01*
X0034096Y0095437D01*
X0033675Y0096452D01*
X0032898Y0097229D01*
X0031883Y0097649D01*
X0030784Y0097649D01*
X0029769Y0097229D01*
X0028992Y0096452D01*
X0028572Y0095437D01*
X0028572Y0094338D01*
X0028572Y0095344D02*
X0017741Y0095344D01*
X0018334Y0096326D02*
X0028940Y0096326D01*
X0028765Y0097073D02*
X0029542Y0097850D01*
X0029962Y0098865D01*
X0029962Y0099964D01*
X0029542Y0100979D01*
X0028765Y0101756D01*
X0027749Y0102177D01*
X0026650Y0102177D01*
X0025635Y0101756D01*
X0024858Y0100979D01*
X0024438Y0099964D01*
X0024438Y0098865D01*
X0024858Y0097850D01*
X0025635Y0097073D01*
X0026650Y0096652D01*
X0027749Y0096652D01*
X0028765Y0097073D01*
X0029001Y0097309D02*
X0029963Y0097309D01*
X0029725Y0098292D02*
X0047666Y0098292D01*
X0047666Y0098586D02*
X0047666Y0097487D01*
X0048087Y0096472D01*
X0048294Y0096265D01*
X0048087Y0096058D01*
X0047666Y0095043D01*
X0047666Y0093944D01*
X0048087Y0092929D01*
X0048864Y0092152D01*
X0049879Y0091731D01*
X0050978Y0091731D01*
X0051993Y0092152D01*
X0052770Y0092929D01*
X0053190Y0093944D01*
X0053190Y0095043D01*
X0052770Y0096058D01*
X0052563Y0096265D01*
X0052770Y0096472D01*
X0053190Y0097487D01*
X0053190Y0098586D01*
X0052770Y0099601D01*
X0051993Y0100378D01*
X0050978Y0100799D01*
X0049879Y0100799D01*
X0048864Y0100378D01*
X0048087Y0099601D01*
X0047666Y0098586D01*
X0047951Y0099275D02*
X0029962Y0099275D01*
X0029841Y0100258D02*
X0048743Y0100258D01*
X0047740Y0097309D02*
X0032704Y0097309D01*
X0033727Y0096326D02*
X0048232Y0096326D01*
X0047791Y0095344D02*
X0034096Y0095344D01*
X0034096Y0094361D02*
X0047666Y0094361D01*
X0047900Y0093378D02*
X0033698Y0093378D01*
X0032536Y0092395D02*
X0048620Y0092395D01*
X0052237Y0092395D02*
X0074802Y0092395D01*
X0073743Y0091413D02*
X0020899Y0091413D01*
X0020853Y0091446D02*
X0020223Y0091767D01*
X0019551Y0091985D01*
X0018991Y0092074D01*
X0018991Y0088096D01*
X0022969Y0088096D01*
X0022881Y0088656D01*
X0022662Y0089328D01*
X0022341Y0089958D01*
X0021926Y0090530D01*
X0021426Y0091030D01*
X0020853Y0091446D01*
X0021998Y0090430D02*
X0065687Y0090430D01*
X0065002Y0089447D02*
X0022601Y0089447D01*
X0022911Y0088464D02*
X0064792Y0088464D01*
X0069422Y0090430D02*
X0073277Y0090430D01*
X0073170Y0089447D02*
X0072242Y0089447D01*
X0073289Y0088464D02*
X0073362Y0088464D01*
X0073663Y0087482D02*
X0073918Y0087482D01*
X0073663Y0086499D02*
X0074403Y0086499D01*
X0073473Y0085516D02*
X0073270Y0085516D01*
X0073066Y0084533D02*
X0072132Y0084533D01*
X0078421Y0086499D02*
X0082623Y0086499D01*
X0082312Y0087482D02*
X0078907Y0087482D01*
X0079463Y0088464D02*
X0082359Y0088464D01*
X0082814Y0089447D02*
X0079655Y0089447D01*
X0079548Y0090430D02*
X0084204Y0090430D01*
X0085944Y0090430D02*
X0093333Y0090430D01*
X0091771Y0091413D02*
X0079082Y0091413D01*
X0078023Y0092395D02*
X0091181Y0092395D01*
X0090979Y0093378D02*
X0052956Y0093378D01*
X0053190Y0094361D02*
X0091073Y0094361D01*
X0091509Y0095344D02*
X0053066Y0095344D01*
X0052624Y0096326D02*
X0073035Y0096326D01*
X0072197Y0097309D02*
X0053117Y0097309D01*
X0053190Y0098292D02*
X0071879Y0098292D01*
X0071919Y0099275D02*
X0052905Y0099275D01*
X0052114Y0100258D02*
X0072365Y0100258D01*
X0072233Y0101240D02*
X0029281Y0101240D01*
X0025399Y0097309D02*
X0018538Y0097309D01*
X0018448Y0098292D02*
X0024675Y0098292D01*
X0024438Y0099275D02*
X0021124Y0099275D01*
X0021849Y0100258D02*
X0024559Y0100258D01*
X0025119Y0101240D02*
X0022088Y0101240D01*
X0021968Y0102223D02*
X0072075Y0102223D01*
X0072277Y0103206D02*
X0021410Y0103206D01*
X0028969Y0093378D02*
X0005570Y0093378D01*
X0005570Y0092395D02*
X0030131Y0092395D01*
X0022863Y0086499D02*
X0047287Y0086499D01*
X0047075Y0085516D02*
X0022477Y0085516D01*
X0021782Y0084533D02*
X0047223Y0084533D01*
X0045368Y0083551D02*
X0035947Y0083551D01*
X0035654Y0083843D02*
X0034639Y0084263D01*
X0033540Y0084263D01*
X0032525Y0083843D01*
X0031748Y0083066D01*
X0031327Y0082051D01*
X0031327Y0080952D01*
X0031748Y0079937D01*
X0032525Y0079160D01*
X0033540Y0078739D01*
X0034639Y0078739D01*
X0035654Y0079160D01*
X0036431Y0079937D01*
X0036852Y0080952D01*
X0036852Y0082051D01*
X0036431Y0083066D01*
X0035654Y0083843D01*
X0036638Y0082568D02*
X0044303Y0082568D01*
X0043926Y0081585D02*
X0036852Y0081585D01*
X0036707Y0080602D02*
X0043926Y0080602D01*
X0044315Y0079619D02*
X0036114Y0079619D01*
X0032065Y0079619D02*
X0022722Y0079619D01*
X0022461Y0080251D02*
X0021146Y0081565D01*
X0019429Y0082277D01*
X0017570Y0082277D01*
X0015852Y0081565D01*
X0014537Y0080251D01*
X0013826Y0078533D01*
X0013826Y0076674D01*
X0014537Y0074956D01*
X0015852Y0073642D01*
X0017570Y0072930D01*
X0019429Y0072930D01*
X0021146Y0073642D01*
X0022461Y0074956D01*
X0023172Y0076674D01*
X0023172Y0078533D01*
X0022461Y0080251D01*
X0022109Y0080602D02*
X0031472Y0080602D01*
X0031327Y0081585D02*
X0021099Y0081585D01*
X0020439Y0083551D02*
X0032233Y0083551D01*
X0031542Y0082568D02*
X0005570Y0082568D01*
X0005570Y0081585D02*
X0005899Y0081585D01*
X0011099Y0081585D02*
X0015899Y0081585D01*
X0014889Y0080602D02*
X0012109Y0080602D01*
X0012722Y0079619D02*
X0014276Y0079619D01*
X0013869Y0078637D02*
X0013129Y0078637D01*
X0013172Y0077654D02*
X0013826Y0077654D01*
X0013827Y0076671D02*
X0013171Y0076671D01*
X0012764Y0075688D02*
X0014234Y0075688D01*
X0014788Y0074706D02*
X0012210Y0074706D01*
X0011227Y0073723D02*
X0015771Y0073723D01*
X0015852Y0071565D02*
X0017570Y0072277D01*
X0019429Y0072277D01*
X0021146Y0071565D01*
X0022461Y0070251D01*
X0023172Y0068533D01*
X0023172Y0066674D01*
X0022461Y0064956D01*
X0021146Y0063642D01*
X0019429Y0062930D01*
X0017570Y0062930D01*
X0015852Y0063642D01*
X0014537Y0064956D01*
X0013826Y0066674D01*
X0013826Y0068533D01*
X0014537Y0070251D01*
X0015852Y0071565D01*
X0016315Y0071757D02*
X0010683Y0071757D01*
X0011937Y0070775D02*
X0015061Y0070775D01*
X0014347Y0069792D02*
X0012651Y0069792D01*
X0013058Y0068809D02*
X0013940Y0068809D01*
X0013826Y0067826D02*
X0013172Y0067826D01*
X0013172Y0066844D02*
X0013826Y0066844D01*
X0014163Y0065861D02*
X0012835Y0065861D01*
X0012382Y0064878D02*
X0014616Y0064878D01*
X0015599Y0063895D02*
X0011400Y0063895D01*
X0005599Y0063895D02*
X0005570Y0063895D01*
X0005570Y0062913D02*
X0034495Y0062913D01*
X0034701Y0062417D02*
X0035478Y0061640D01*
X0036493Y0061219D01*
X0037592Y0061219D01*
X0038607Y0061640D01*
X0039384Y0062417D01*
X0039805Y0063432D01*
X0039805Y0064531D01*
X0039384Y0065546D01*
X0038607Y0066323D01*
X0037592Y0066744D01*
X0036493Y0066744D01*
X0035478Y0066323D01*
X0034701Y0065546D01*
X0034280Y0064531D01*
X0034280Y0063432D01*
X0034701Y0062417D01*
X0035188Y0061930D02*
X0005570Y0061930D01*
X0005570Y0060947D02*
X0100011Y0060947D01*
X0100011Y0061930D02*
X0092687Y0061930D01*
X0092938Y0062034D02*
X0093715Y0062811D01*
X0094135Y0063826D01*
X0094135Y0064925D01*
X0093715Y0065940D01*
X0092938Y0066717D01*
X0091923Y0067138D01*
X0090824Y0067138D01*
X0090302Y0066921D01*
X0089975Y0067712D01*
X0089198Y0068489D01*
X0088182Y0068909D01*
X0087084Y0068909D01*
X0086068Y0068489D01*
X0085291Y0067712D01*
X0084871Y0066696D01*
X0084871Y0065598D01*
X0085291Y0064582D01*
X0086068Y0063805D01*
X0087084Y0063385D01*
X0088182Y0063385D01*
X0088704Y0063601D01*
X0089031Y0062811D01*
X0089808Y0062034D01*
X0090824Y0061613D01*
X0091923Y0061613D01*
X0092938Y0062034D01*
X0093757Y0062913D02*
X0100011Y0062913D01*
X0100011Y0063895D02*
X0094135Y0063895D01*
X0094135Y0064878D02*
X0100011Y0064878D01*
X0100011Y0065861D02*
X0093748Y0065861D01*
X0092632Y0066844D02*
X0100011Y0066844D01*
X0100011Y0067826D02*
X0089860Y0067826D01*
X0088424Y0068809D02*
X0100011Y0068809D01*
X0100011Y0069792D02*
X0053365Y0069792D01*
X0053164Y0069307D02*
X0052387Y0068530D01*
X0051371Y0068109D01*
X0050273Y0068109D01*
X0049257Y0068530D01*
X0048480Y0069307D01*
X0048060Y0070322D01*
X0048060Y0071421D01*
X0048480Y0072436D01*
X0049257Y0073213D01*
X0050273Y0073634D01*
X0051371Y0073634D01*
X0052387Y0073213D01*
X0053164Y0072436D01*
X0053584Y0071421D01*
X0053584Y0070322D01*
X0053164Y0069307D01*
X0052666Y0068809D02*
X0086842Y0068809D01*
X0085406Y0067826D02*
X0049227Y0067826D01*
X0049030Y0068302D02*
X0048253Y0069079D01*
X0047238Y0069500D01*
X0046139Y0069500D01*
X0045123Y0069079D01*
X0044346Y0068302D01*
X0043926Y0067287D01*
X0043926Y0066188D01*
X0044346Y0065173D01*
X0045123Y0064396D01*
X0046139Y0063975D01*
X0047238Y0063975D01*
X0048253Y0064396D01*
X0049030Y0065173D01*
X0049450Y0066188D01*
X0049450Y0067287D01*
X0049030Y0068302D01*
X0048978Y0068809D02*
X0048523Y0068809D01*
X0048279Y0069792D02*
X0022651Y0069792D01*
X0023058Y0068809D02*
X0044853Y0068809D01*
X0044149Y0067826D02*
X0023172Y0067826D01*
X0023172Y0066844D02*
X0043926Y0066844D01*
X0044061Y0065861D02*
X0039070Y0065861D01*
X0039661Y0064878D02*
X0044641Y0064878D01*
X0048735Y0064878D02*
X0085169Y0064878D01*
X0084871Y0065861D02*
X0049315Y0065861D01*
X0049450Y0066844D02*
X0084932Y0066844D01*
X0085978Y0063895D02*
X0039805Y0063895D01*
X0039589Y0062913D02*
X0088989Y0062913D01*
X0090059Y0061930D02*
X0038897Y0061930D01*
X0034280Y0063895D02*
X0021400Y0063895D01*
X0022382Y0064878D02*
X0034424Y0064878D01*
X0035015Y0065861D02*
X0022835Y0065861D01*
X0021937Y0070775D02*
X0041894Y0070775D01*
X0042171Y0070498D02*
X0043186Y0070078D01*
X0044285Y0070078D01*
X0045300Y0070498D01*
X0046077Y0071275D01*
X0046498Y0072290D01*
X0046498Y0073389D01*
X0046077Y0074405D01*
X0045300Y0075182D01*
X0044285Y0075602D01*
X0043186Y0075602D01*
X0042171Y0075182D01*
X0041394Y0074405D01*
X0040973Y0073389D01*
X0040973Y0072290D01*
X0041394Y0071275D01*
X0042171Y0070498D01*
X0041194Y0071757D02*
X0020683Y0071757D01*
X0021227Y0073723D02*
X0041111Y0073723D01*
X0040973Y0072740D02*
X0005570Y0072740D01*
X0005570Y0071757D02*
X0006315Y0071757D01*
X0005771Y0073723D02*
X0005570Y0073723D01*
X0012812Y0083551D02*
X0016559Y0083551D01*
X0018007Y0083551D02*
X0018991Y0083551D01*
X0018991Y0084533D02*
X0018007Y0084533D01*
X0018007Y0085516D02*
X0018991Y0085516D01*
X0018991Y0088464D02*
X0018007Y0088464D01*
X0018007Y0089447D02*
X0018991Y0089447D01*
X0018991Y0090430D02*
X0018007Y0090430D01*
X0018007Y0091413D02*
X0018991Y0091413D01*
X0014135Y0086499D02*
X0013172Y0086499D01*
X0013172Y0085516D02*
X0014521Y0085516D01*
X0015217Y0084533D02*
X0013172Y0084533D01*
X0023129Y0078637D02*
X0045435Y0078637D01*
X0047941Y0078637D02*
X0100011Y0078637D01*
X0100011Y0077654D02*
X0023172Y0077654D01*
X0023171Y0076671D02*
X0100011Y0076671D01*
X0100011Y0075688D02*
X0022764Y0075688D01*
X0022210Y0074706D02*
X0041695Y0074706D01*
X0045776Y0074706D02*
X0100011Y0074706D01*
X0100011Y0073723D02*
X0046359Y0073723D01*
X0046498Y0072740D02*
X0048784Y0072740D01*
X0048199Y0071757D02*
X0046277Y0071757D01*
X0045576Y0070775D02*
X0048060Y0070775D01*
X0052860Y0072740D02*
X0100011Y0072740D01*
X0100011Y0071757D02*
X0053445Y0071757D01*
X0053584Y0070775D02*
X0100011Y0070775D01*
X0092150Y0060418D02*
X0091135Y0060838D01*
X0090036Y0060838D01*
X0089021Y0060418D01*
X0088814Y0060211D01*
X0088607Y0060418D01*
X0087592Y0060838D01*
X0086493Y0060838D01*
X0085478Y0060418D01*
X0084701Y0059641D01*
X0084280Y0058626D01*
X0084280Y0057527D01*
X0084701Y0056511D01*
X0085478Y0055734D01*
X0086493Y0055314D01*
X0087592Y0055314D01*
X0088607Y0055734D01*
X0088814Y0055941D01*
X0089021Y0055734D01*
X0090036Y0055314D01*
X0090579Y0055314D01*
X0090579Y0054771D01*
X0091000Y0053756D01*
X0091777Y0052979D01*
X0092792Y0052558D01*
X0093891Y0052558D01*
X0094906Y0052979D01*
X0095683Y0053756D01*
X0096104Y0054771D01*
X0096104Y0055870D01*
X0095683Y0056885D01*
X0094906Y0057662D01*
X0093891Y0058082D01*
X0093348Y0058082D01*
X0093348Y0058626D01*
X0092927Y0059641D01*
X0092150Y0060418D01*
X0092604Y0059964D02*
X0100011Y0059964D01*
X0100011Y0058981D02*
X0093201Y0058981D01*
X0094093Y0057999D02*
X0100011Y0057999D01*
X0100011Y0057016D02*
X0095552Y0057016D01*
X0096036Y0056033D02*
X0100011Y0056033D01*
X0100011Y0055050D02*
X0096104Y0055050D01*
X0095813Y0054068D02*
X0100011Y0054068D01*
X0100011Y0053085D02*
X0095013Y0053085D01*
X0091671Y0053085D02*
X0052633Y0053085D01*
X0052387Y0053331D02*
X0051371Y0053752D01*
X0050273Y0053752D01*
X0049257Y0053331D01*
X0048480Y0052554D01*
X0048060Y0051539D01*
X0048060Y0050440D01*
X0048480Y0049425D01*
X0049257Y0048648D01*
X0050273Y0048227D01*
X0051371Y0048227D01*
X0052387Y0048648D01*
X0053164Y0049425D01*
X0053584Y0050440D01*
X0053584Y0051539D01*
X0053164Y0052554D01*
X0052387Y0053331D01*
X0053351Y0052102D02*
X0086808Y0052102D01*
X0087053Y0052347D02*
X0086276Y0051570D01*
X0085855Y0050555D01*
X0085855Y0049456D01*
X0086276Y0048441D01*
X0087053Y0047664D01*
X0088068Y0047243D01*
X0089167Y0047243D01*
X0090182Y0047664D01*
X0090959Y0048441D01*
X0091379Y0049456D01*
X0091379Y0050555D01*
X0090959Y0051570D01*
X0090182Y0052347D01*
X0089167Y0052767D01*
X0088068Y0052767D01*
X0087053Y0052347D01*
X0086089Y0051119D02*
X0053584Y0051119D01*
X0053458Y0050137D02*
X0085855Y0050137D01*
X0085980Y0049154D02*
X0052893Y0049154D01*
X0049647Y0047602D02*
X0049647Y0046503D01*
X0049227Y0045488D01*
X0048450Y0044711D01*
X0047434Y0044290D01*
X0046335Y0044290D01*
X0045320Y0044711D01*
X0044543Y0045488D01*
X0044123Y0046503D01*
X0044123Y0047602D01*
X0044543Y0048617D01*
X0045320Y0049394D01*
X0046335Y0049815D01*
X0047434Y0049815D01*
X0048450Y0049394D01*
X0049227Y0048617D01*
X0049647Y0047602D01*
X0049647Y0047188D02*
X0074217Y0047188D01*
X0074454Y0047426D02*
X0073677Y0046649D01*
X0073257Y0045633D01*
X0073257Y0044535D01*
X0073677Y0043519D01*
X0074454Y0042742D01*
X0075469Y0042322D01*
X0076568Y0042322D01*
X0077583Y0042742D01*
X0078360Y0043519D01*
X0078781Y0044535D01*
X0078781Y0045633D01*
X0078360Y0046649D01*
X0077583Y0047426D01*
X0076568Y0047846D01*
X0075469Y0047846D01*
X0074454Y0047426D01*
X0073494Y0046206D02*
X0067583Y0046206D01*
X0067927Y0045861D02*
X0067150Y0046638D01*
X0066135Y0047059D01*
X0065036Y0047059D01*
X0064021Y0046638D01*
X0063244Y0045861D01*
X0062824Y0044846D01*
X0062824Y0043747D01*
X0063244Y0042732D01*
X0064021Y0041955D01*
X0065036Y0041534D01*
X0066135Y0041534D01*
X0067150Y0041955D01*
X0067927Y0042732D01*
X0068348Y0043747D01*
X0068348Y0044846D01*
X0067927Y0045861D01*
X0068192Y0045223D02*
X0073257Y0045223D01*
X0073379Y0044240D02*
X0068348Y0044240D01*
X0068145Y0043257D02*
X0073939Y0043257D01*
X0078098Y0043257D02*
X0081026Y0043257D01*
X0080961Y0043322D02*
X0081738Y0042545D01*
X0082753Y0042125D01*
X0083852Y0042125D01*
X0084867Y0042545D01*
X0085644Y0043322D01*
X0086064Y0044338D01*
X0086064Y0045437D01*
X0085644Y0046452D01*
X0084867Y0047229D01*
X0083852Y0047649D01*
X0082753Y0047649D01*
X0081738Y0047229D01*
X0080961Y0046452D01*
X0080540Y0045437D01*
X0080540Y0044338D01*
X0080961Y0043322D01*
X0080581Y0044240D02*
X0078659Y0044240D01*
X0078781Y0045223D02*
X0080540Y0045223D01*
X0080859Y0046206D02*
X0078544Y0046206D01*
X0077821Y0047188D02*
X0081697Y0047188D01*
X0084907Y0047188D02*
X0095304Y0047188D01*
X0095427Y0046206D02*
X0085746Y0046206D01*
X0086064Y0045223D02*
X0095989Y0045223D01*
X0095540Y0048171D02*
X0090689Y0048171D01*
X0091254Y0049154D02*
X0096261Y0049154D01*
X0099871Y0049154D02*
X0100011Y0049154D01*
X0100011Y0050137D02*
X0091379Y0050137D01*
X0091146Y0051119D02*
X0100011Y0051119D01*
X0100011Y0052102D02*
X0090427Y0052102D01*
X0090871Y0054068D02*
X0005570Y0054068D01*
X0005570Y0055050D02*
X0027346Y0055050D01*
X0027778Y0054619D02*
X0028936Y0054139D01*
X0030189Y0054139D01*
X0031346Y0054619D01*
X0032232Y0055505D01*
X0032712Y0056662D01*
X0032712Y0057915D01*
X0032232Y0059073D01*
X0031346Y0059959D01*
X0030189Y0060438D01*
X0028936Y0060438D01*
X0027778Y0059959D01*
X0026892Y0059073D01*
X0026412Y0057915D01*
X0026412Y0056662D01*
X0026892Y0055505D01*
X0027778Y0054619D01*
X0026673Y0056033D02*
X0005570Y0056033D01*
X0005570Y0057016D02*
X0026412Y0057016D01*
X0026447Y0057999D02*
X0005570Y0057999D01*
X0005570Y0058981D02*
X0026854Y0058981D01*
X0027791Y0059964D02*
X0005570Y0059964D01*
X0005570Y0053085D02*
X0049011Y0053085D01*
X0048293Y0052102D02*
X0005570Y0052102D01*
X0005570Y0051119D02*
X0048060Y0051119D01*
X0048185Y0050137D02*
X0005570Y0050137D01*
X0005570Y0049154D02*
X0038978Y0049154D01*
X0038638Y0048814D02*
X0038217Y0047799D01*
X0038217Y0046700D01*
X0038638Y0045685D01*
X0039415Y0044908D01*
X0040430Y0044487D01*
X0041529Y0044487D01*
X0042544Y0044908D01*
X0043321Y0045685D01*
X0043742Y0046700D01*
X0043742Y0047799D01*
X0043321Y0048814D01*
X0042544Y0049591D01*
X0041529Y0050012D01*
X0040430Y0050012D01*
X0039415Y0049591D01*
X0038638Y0048814D01*
X0038371Y0048171D02*
X0005570Y0048171D01*
X0005570Y0047188D02*
X0038217Y0047188D01*
X0038422Y0046206D02*
X0027426Y0046206D01*
X0027190Y0046441D02*
X0026175Y0046862D01*
X0025076Y0046862D01*
X0024060Y0046441D01*
X0023283Y0045664D01*
X0022863Y0044649D01*
X0022863Y0043550D01*
X0023283Y0042535D01*
X0024060Y0041758D01*
X0025076Y0041338D01*
X0026175Y0041338D01*
X0027190Y0041758D01*
X0027967Y0042535D01*
X0028387Y0043550D01*
X0028387Y0044649D01*
X0027967Y0045664D01*
X0027190Y0046441D01*
X0028150Y0045223D02*
X0039100Y0045223D01*
X0042859Y0045223D02*
X0044808Y0045223D01*
X0044246Y0046206D02*
X0043537Y0046206D01*
X0043742Y0047188D02*
X0044123Y0047188D01*
X0044358Y0048171D02*
X0043587Y0048171D01*
X0042981Y0049154D02*
X0045080Y0049154D01*
X0048690Y0049154D02*
X0048751Y0049154D01*
X0049411Y0048171D02*
X0086545Y0048171D01*
X0086024Y0044240D02*
X0100011Y0044240D01*
X0100011Y0043257D02*
X0085579Y0043257D01*
X0084213Y0042274D02*
X0100011Y0042274D01*
X0100011Y0041292D02*
X0008232Y0041292D01*
X0008947Y0042274D02*
X0023544Y0042274D01*
X0022984Y0043257D02*
X0008993Y0043257D01*
X0008583Y0044240D02*
X0022863Y0044240D01*
X0023101Y0045223D02*
X0005570Y0045223D01*
X0005570Y0046206D02*
X0023825Y0046206D01*
X0028387Y0044240D02*
X0062824Y0044240D01*
X0062980Y0045223D02*
X0048962Y0045223D01*
X0049524Y0046206D02*
X0063588Y0046206D01*
X0063026Y0043257D02*
X0028266Y0043257D01*
X0027706Y0042274D02*
X0063701Y0042274D01*
X0067470Y0042274D02*
X0082392Y0042274D01*
X0080781Y0030481D02*
X0067051Y0030481D01*
X0067272Y0030701D02*
X0066386Y0029815D01*
X0065228Y0029336D01*
X0063975Y0029336D01*
X0062817Y0029815D01*
X0061931Y0030701D01*
X0061452Y0031859D01*
X0061452Y0033112D01*
X0061931Y0034270D01*
X0062817Y0035156D01*
X0063975Y0035635D01*
X0065228Y0035635D01*
X0066386Y0035156D01*
X0067272Y0034270D01*
X0067751Y0033112D01*
X0067751Y0031859D01*
X0067272Y0030701D01*
X0067587Y0031464D02*
X0100011Y0031464D01*
X0100011Y0030481D02*
X0085036Y0030481D01*
X0085761Y0029499D02*
X0100011Y0029499D01*
X0100011Y0028516D02*
X0086058Y0028516D01*
X0086058Y0027533D02*
X0100011Y0027533D01*
X0100011Y0026550D02*
X0085653Y0026550D01*
X0083714Y0024585D02*
X0080959Y0024585D01*
X0080902Y0024664D02*
X0080402Y0025164D01*
X0079830Y0025580D01*
X0079200Y0025901D01*
X0078527Y0026119D01*
X0077968Y0026208D01*
X0077968Y0022230D01*
X0081946Y0022230D01*
X0081857Y0022789D01*
X0081638Y0023462D01*
X0081317Y0024092D01*
X0080902Y0024664D01*
X0081042Y0025568D02*
X0079846Y0025568D01*
X0080164Y0026550D02*
X0044569Y0026550D01*
X0044482Y0026586D02*
X0043383Y0026586D01*
X0042368Y0026166D01*
X0041591Y0025389D01*
X0041170Y0024374D01*
X0041170Y0023275D01*
X0041591Y0022259D01*
X0042368Y0021482D01*
X0043383Y0021062D01*
X0044482Y0021062D01*
X0045497Y0021482D01*
X0046274Y0022259D01*
X0046694Y0023275D01*
X0046694Y0024374D01*
X0046274Y0025389D01*
X0045497Y0026166D01*
X0044482Y0026586D01*
X0043296Y0026550D02*
X0039805Y0026550D01*
X0039805Y0026031D02*
X0039384Y0025015D01*
X0038607Y0024238D01*
X0037592Y0023818D01*
X0036493Y0023818D01*
X0035478Y0024238D01*
X0034701Y0025015D01*
X0034280Y0026031D01*
X0034280Y0027129D01*
X0034701Y0028145D01*
X0035478Y0028922D01*
X0036493Y0029342D01*
X0037592Y0029342D01*
X0038607Y0028922D01*
X0039384Y0028145D01*
X0039805Y0027129D01*
X0039805Y0026031D01*
X0039613Y0025568D02*
X0041769Y0025568D01*
X0041257Y0024585D02*
X0038953Y0024585D01*
X0041170Y0023602D02*
X0018590Y0023602D01*
X0018591Y0023606D02*
X0018697Y0024274D01*
X0018697Y0024316D01*
X0014700Y0024316D01*
X0014700Y0020319D01*
X0014742Y0020319D01*
X0015410Y0020425D01*
X0016052Y0020634D01*
X0016654Y0020941D01*
X0017201Y0021338D01*
X0017678Y0021815D01*
X0018076Y0022362D01*
X0018382Y0022964D01*
X0018591Y0023606D01*
X0018207Y0022619D02*
X0041441Y0022619D01*
X0042214Y0021636D02*
X0017500Y0021636D01*
X0016091Y0020654D02*
X0053104Y0020654D01*
X0053094Y0020686D02*
X0053312Y0020013D01*
X0053633Y0019383D01*
X0054049Y0018811D01*
X0054549Y0018311D01*
X0055121Y0017896D01*
X0055751Y0017575D01*
X0056424Y0017356D01*
X0056983Y0017267D01*
X0056983Y0021245D01*
X0057968Y0021245D01*
X0057968Y0022230D01*
X0061946Y0022230D01*
X0061857Y0022789D01*
X0061638Y0023462D01*
X0061317Y0024092D01*
X0060902Y0024664D01*
X0060402Y0025164D01*
X0059830Y0025580D01*
X0059200Y0025901D01*
X0058527Y0026119D01*
X0057968Y0026208D01*
X0057968Y0022230D01*
X0056983Y0022230D01*
X0056983Y0026208D01*
X0056424Y0026119D01*
X0055751Y0025901D01*
X0055121Y0025580D01*
X0054549Y0025164D01*
X0054049Y0024664D01*
X0053633Y0024092D01*
X0053312Y0023462D01*
X0053094Y0022789D01*
X0053005Y0022230D01*
X0056983Y0022230D01*
X0056983Y0021245D01*
X0053005Y0021245D01*
X0053094Y0020686D01*
X0053487Y0019671D02*
X0008714Y0019671D01*
X0008714Y0020654D02*
X0012718Y0020654D01*
X0012757Y0020634D02*
X0013400Y0020425D01*
X0014067Y0020319D01*
X0014109Y0020319D01*
X0014109Y0024316D01*
X0010113Y0024316D01*
X0010113Y0024274D01*
X0010218Y0023606D01*
X0010427Y0022964D01*
X0010734Y0022362D01*
X0011131Y0021815D01*
X0011608Y0021338D01*
X0012155Y0020941D01*
X0012757Y0020634D01*
X0014109Y0020654D02*
X0014700Y0020654D01*
X0014700Y0021636D02*
X0014109Y0021636D01*
X0014109Y0022619D02*
X0014700Y0022619D01*
X0014700Y0023602D02*
X0014109Y0023602D01*
X0014109Y0024316D02*
X0014700Y0024316D01*
X0014700Y0024907D01*
X0018697Y0024907D01*
X0018697Y0024949D01*
X0018591Y0025617D01*
X0018382Y0026259D01*
X0018076Y0026861D01*
X0017678Y0027408D01*
X0017201Y0027885D01*
X0016654Y0028282D01*
X0016337Y0028444D01*
X0016938Y0028693D01*
X0018197Y0029952D01*
X0018878Y0031596D01*
X0018878Y0033375D01*
X0018197Y0035019D01*
X0016938Y0036278D01*
X0015294Y0036959D01*
X0013515Y0036959D01*
X0011871Y0036278D01*
X0010612Y0035019D01*
X0009931Y0033375D01*
X0009931Y0031596D01*
X0010612Y0029952D01*
X0011871Y0028693D01*
X0012472Y0028444D01*
X0012155Y0028282D01*
X0011608Y0027885D01*
X0011131Y0027408D01*
X0010734Y0026861D01*
X0010427Y0026259D01*
X0010218Y0025617D01*
X0010113Y0024949D01*
X0010113Y0024907D01*
X0014109Y0024907D01*
X0014109Y0024316D01*
X0014109Y0024585D02*
X0008436Y0024585D01*
X0008436Y0023602D02*
X0010220Y0023602D01*
X0010603Y0022619D02*
X0008436Y0022619D01*
X0008714Y0021636D02*
X0011310Y0021636D01*
X0010210Y0025568D02*
X0008271Y0025568D01*
X0008861Y0026550D02*
X0010575Y0026550D01*
X0011256Y0027533D02*
X0008993Y0027533D01*
X0008948Y0028516D02*
X0012299Y0028516D01*
X0011066Y0029499D02*
X0008436Y0029499D01*
X0008436Y0030481D02*
X0010393Y0030481D01*
X0009986Y0031464D02*
X0008436Y0031464D01*
X0008436Y0032447D02*
X0009931Y0032447D01*
X0009954Y0033430D02*
X0008436Y0033430D01*
X0008436Y0034412D02*
X0010361Y0034412D01*
X0010988Y0035395D02*
X0008436Y0035395D01*
X0007884Y0036378D02*
X0012112Y0036378D01*
X0008993Y0039326D02*
X0100011Y0039326D01*
X0100011Y0038343D02*
X0008436Y0038343D01*
X0008436Y0037361D02*
X0100011Y0037361D01*
X0100011Y0036378D02*
X0016697Y0036378D01*
X0017821Y0035395D02*
X0021085Y0035395D01*
X0021305Y0035615D02*
X0020528Y0034838D01*
X0020107Y0033822D01*
X0020107Y0032724D01*
X0020528Y0031708D01*
X0021305Y0030931D01*
X0022320Y0030511D01*
X0023419Y0030511D01*
X0024434Y0030931D01*
X0025211Y0031708D01*
X0025631Y0032724D01*
X0025631Y0033822D01*
X0025211Y0034838D01*
X0024434Y0035615D01*
X0023419Y0036035D01*
X0022320Y0036035D01*
X0021305Y0035615D01*
X0020351Y0034412D02*
X0018448Y0034412D01*
X0018855Y0033430D02*
X0020107Y0033430D01*
X0020222Y0032447D02*
X0018878Y0032447D01*
X0018823Y0031464D02*
X0020772Y0031464D01*
X0018416Y0030481D02*
X0062151Y0030481D01*
X0061615Y0031464D02*
X0024967Y0031464D01*
X0025517Y0032447D02*
X0061452Y0032447D01*
X0061583Y0033430D02*
X0025631Y0033430D01*
X0025387Y0034412D02*
X0062074Y0034412D01*
X0063396Y0035395D02*
X0024653Y0035395D01*
X0017744Y0029499D02*
X0063582Y0029499D01*
X0065621Y0029499D02*
X0080056Y0029499D01*
X0079759Y0028516D02*
X0039013Y0028516D01*
X0039637Y0027533D02*
X0079759Y0027533D01*
X0077968Y0025568D02*
X0076983Y0025568D01*
X0076983Y0026208D02*
X0076424Y0026119D01*
X0075751Y0025901D01*
X0075121Y0025580D01*
X0074549Y0025164D01*
X0074049Y0024664D01*
X0073633Y0024092D01*
X0073312Y0023462D01*
X0073094Y0022789D01*
X0073005Y0022230D01*
X0076983Y0022230D01*
X0076983Y0026208D01*
X0075105Y0025568D02*
X0070254Y0025568D01*
X0070123Y0025699D02*
X0068405Y0026411D01*
X0066546Y0026411D01*
X0064828Y0025699D01*
X0063514Y0024385D01*
X0062802Y0022667D01*
X0062802Y0020808D01*
X0063514Y0019090D01*
X0064828Y0017776D01*
X0066546Y0017064D01*
X0068405Y0017064D01*
X0070123Y0017776D01*
X0071437Y0019090D01*
X0072149Y0020808D01*
X0072149Y0022667D01*
X0071437Y0024385D01*
X0070123Y0025699D01*
X0071237Y0024585D02*
X0073992Y0024585D01*
X0073384Y0023602D02*
X0071761Y0023602D01*
X0072149Y0022619D02*
X0073067Y0022619D01*
X0072149Y0021636D02*
X0076983Y0021636D01*
X0076983Y0021245D02*
X0076983Y0022230D01*
X0077968Y0022230D01*
X0077968Y0021245D01*
X0081946Y0021245D01*
X0081857Y0020686D01*
X0081638Y0020013D01*
X0081317Y0019383D01*
X0080902Y0018811D01*
X0080402Y0018311D01*
X0079830Y0017896D01*
X0079200Y0017575D01*
X0078527Y0017356D01*
X0077968Y0017267D01*
X0077968Y0021245D01*
X0076983Y0021245D01*
X0076983Y0017267D01*
X0076424Y0017356D01*
X0075751Y0017575D01*
X0075121Y0017896D01*
X0074549Y0018311D01*
X0074049Y0018811D01*
X0073633Y0019383D01*
X0073312Y0020013D01*
X0073094Y0020686D01*
X0073005Y0021245D01*
X0076983Y0021245D01*
X0076983Y0020654D02*
X0077968Y0020654D01*
X0077968Y0021636D02*
X0082802Y0021636D01*
X0082802Y0022619D02*
X0081884Y0022619D01*
X0081567Y0023602D02*
X0083190Y0023602D01*
X0082866Y0020654D02*
X0081847Y0020654D01*
X0081464Y0019671D02*
X0083273Y0019671D01*
X0083916Y0018688D02*
X0080779Y0018688D01*
X0079457Y0017705D02*
X0084998Y0017705D01*
X0085436Y0015740D02*
X0080025Y0015740D01*
X0081065Y0014757D02*
X0084142Y0014757D01*
X0083472Y0013774D02*
X0081690Y0013774D01*
X0082097Y0012792D02*
X0083095Y0012792D01*
X0082149Y0011809D02*
X0086983Y0011809D01*
X0086983Y0012792D02*
X0087968Y0012792D01*
X0087968Y0012230D02*
X0087968Y0016208D01*
X0088527Y0016119D01*
X0089200Y0015901D01*
X0089830Y0015580D01*
X0090402Y0015164D01*
X0090902Y0014664D01*
X0091317Y0014092D01*
X0091638Y0013462D01*
X0091857Y0012789D01*
X0091946Y0012230D01*
X0087968Y0012230D01*
X0087968Y0011809D02*
X0092456Y0011809D01*
X0092479Y0012792D02*
X0091856Y0012792D01*
X0091479Y0013774D02*
X0092886Y0013774D01*
X0093481Y0014757D02*
X0090809Y0014757D01*
X0089515Y0015740D02*
X0093060Y0015740D01*
X0091658Y0016723D02*
X0017889Y0016723D01*
X0018396Y0015740D02*
X0053112Y0015740D01*
X0052802Y0014757D02*
X0018538Y0014757D01*
X0018386Y0013774D02*
X0052802Y0013774D01*
X0052802Y0012792D02*
X0051981Y0012792D01*
X0052620Y0011809D02*
X0052802Y0011809D01*
X0052797Y0010826D02*
X0052802Y0010826D01*
X0052802Y0009843D02*
X0052615Y0009843D01*
X0047454Y0009843D02*
X0018392Y0009843D01*
X0017881Y0010826D02*
X0047272Y0010826D01*
X0047449Y0011809D02*
X0016509Y0011809D01*
X0017866Y0012792D02*
X0048088Y0012792D01*
X0054172Y0018688D02*
X0008436Y0018688D01*
X0008436Y0017705D02*
X0014248Y0017705D01*
X0012888Y0016723D02*
X0008983Y0016723D01*
X0011115Y0015740D02*
X0012382Y0015740D01*
X0012239Y0014757D02*
X0012100Y0014757D01*
X0016530Y0017705D02*
X0055494Y0017705D01*
X0056983Y0017705D02*
X0057968Y0017705D01*
X0057968Y0017267D02*
X0058527Y0017356D01*
X0059200Y0017575D01*
X0059830Y0017896D01*
X0060402Y0018311D01*
X0060902Y0018811D01*
X0061317Y0019383D01*
X0061638Y0020013D01*
X0061857Y0020686D01*
X0061946Y0021245D01*
X0057968Y0021245D01*
X0057968Y0017267D01*
X0057968Y0018688D02*
X0056983Y0018688D01*
X0056983Y0019671D02*
X0057968Y0019671D01*
X0057968Y0020654D02*
X0056983Y0020654D01*
X0056983Y0021636D02*
X0045651Y0021636D01*
X0046423Y0022619D02*
X0053067Y0022619D01*
X0053384Y0023602D02*
X0046694Y0023602D01*
X0046607Y0024585D02*
X0053992Y0024585D01*
X0055105Y0025568D02*
X0046095Y0025568D01*
X0056983Y0025568D02*
X0057968Y0025568D01*
X0057968Y0024585D02*
X0056983Y0024585D01*
X0056983Y0023602D02*
X0057968Y0023602D01*
X0057968Y0022619D02*
X0056983Y0022619D01*
X0057968Y0021636D02*
X0062802Y0021636D01*
X0062802Y0022619D02*
X0061884Y0022619D01*
X0061567Y0023602D02*
X0063190Y0023602D01*
X0063714Y0024585D02*
X0060959Y0024585D01*
X0059846Y0025568D02*
X0064697Y0025568D01*
X0062866Y0020654D02*
X0061847Y0020654D01*
X0061464Y0019671D02*
X0063273Y0019671D01*
X0063916Y0018688D02*
X0060779Y0018688D01*
X0059457Y0017705D02*
X0064998Y0017705D01*
X0065436Y0015740D02*
X0061839Y0015740D01*
X0062149Y0014757D02*
X0064142Y0014757D01*
X0063472Y0013774D02*
X0062149Y0013774D01*
X0062149Y0012792D02*
X0063095Y0012792D01*
X0062149Y0011809D02*
X0066983Y0011809D01*
X0066983Y0012792D02*
X0067968Y0012792D01*
X0067968Y0012230D02*
X0067968Y0016208D01*
X0068527Y0016119D01*
X0069200Y0015901D01*
X0069830Y0015580D01*
X0070402Y0015164D01*
X0070902Y0014664D01*
X0071317Y0014092D01*
X0071638Y0013462D01*
X0071857Y0012789D01*
X0071946Y0012230D01*
X0067968Y0012230D01*
X0067968Y0011809D02*
X0072802Y0011809D01*
X0072802Y0010826D02*
X0071879Y0010826D01*
X0071552Y0009843D02*
X0073202Y0009843D01*
X0072854Y0012792D02*
X0071856Y0012792D01*
X0071479Y0013774D02*
X0073261Y0013774D01*
X0073886Y0014757D02*
X0070809Y0014757D01*
X0069515Y0015740D02*
X0074926Y0015740D01*
X0075494Y0017705D02*
X0069953Y0017705D01*
X0071035Y0018688D02*
X0074172Y0018688D01*
X0073487Y0019671D02*
X0071678Y0019671D01*
X0072085Y0020654D02*
X0073104Y0020654D01*
X0076983Y0019671D02*
X0077968Y0019671D01*
X0077968Y0018688D02*
X0076983Y0018688D01*
X0076983Y0017705D02*
X0077968Y0017705D01*
X0077968Y0022619D02*
X0076983Y0022619D01*
X0076983Y0023602D02*
X0077968Y0023602D01*
X0077968Y0024585D02*
X0076983Y0024585D01*
X0067751Y0032447D02*
X0100011Y0032447D01*
X0100011Y0033430D02*
X0067620Y0033430D01*
X0067129Y0034412D02*
X0100011Y0034412D01*
X0100011Y0035395D02*
X0065807Y0035395D01*
X0066983Y0015740D02*
X0067968Y0015740D01*
X0067968Y0014757D02*
X0066983Y0014757D01*
X0066983Y0013774D02*
X0067968Y0013774D01*
X0063072Y0010826D02*
X0062149Y0010826D01*
X0062149Y0009843D02*
X0063399Y0009843D01*
X0081749Y0009843D02*
X0083399Y0009843D01*
X0083072Y0010826D02*
X0082149Y0010826D01*
X0086983Y0013774D02*
X0087968Y0013774D01*
X0087968Y0014757D02*
X0086983Y0014757D01*
X0086983Y0015740D02*
X0087968Y0015740D01*
X0089953Y0017705D02*
X0091134Y0017705D01*
X0092149Y0021636D02*
X0092973Y0021636D01*
X0092149Y0022619D02*
X0100011Y0022619D01*
X0100011Y0023602D02*
X0091761Y0023602D01*
X0091237Y0024585D02*
X0100011Y0024585D01*
X0100011Y0025568D02*
X0090254Y0025568D01*
X0095285Y0021636D02*
X0098879Y0021636D01*
X0097528Y0020654D02*
X0096636Y0020654D01*
X0092485Y0010826D02*
X0091879Y0010826D01*
X0091552Y0009843D02*
X0092892Y0009843D01*
X0100011Y0040309D02*
X0008993Y0040309D01*
X0016510Y0028516D02*
X0035072Y0028516D01*
X0034447Y0027533D02*
X0017553Y0027533D01*
X0018234Y0026550D02*
X0034280Y0026550D01*
X0034472Y0025568D02*
X0018599Y0025568D01*
X0014700Y0024585D02*
X0035131Y0024585D01*
X0031778Y0055050D02*
X0090579Y0055050D01*
X0085179Y0056033D02*
X0032451Y0056033D01*
X0032712Y0057016D02*
X0084492Y0057016D01*
X0084280Y0057999D02*
X0032677Y0057999D01*
X0032270Y0058981D02*
X0084428Y0058981D01*
X0085024Y0059964D02*
X0031333Y0059964D01*
X0006243Y0096326D02*
X0005570Y0096326D01*
X0076246Y0096326D02*
X0092700Y0096326D01*
X0093629Y0097309D02*
X0077085Y0097309D01*
X0077403Y0098292D02*
X0092947Y0098292D01*
X0092540Y0099275D02*
X0077362Y0099275D01*
X0076917Y0100258D02*
X0092456Y0100258D01*
X0092456Y0101240D02*
X0077442Y0101240D01*
X0077600Y0102223D02*
X0092830Y0102223D01*
X0093347Y0103206D02*
X0077399Y0103206D01*
X0076420Y0092395D02*
X0076405Y0092395D01*
X0076405Y0091413D02*
X0076420Y0091413D01*
X0076405Y0090430D02*
X0076420Y0090430D01*
X0083194Y0085516D02*
X0083452Y0085516D01*
X0098549Y0085516D02*
X0100011Y0085516D01*
X0100011Y0086499D02*
X0098860Y0086499D01*
D19*
X0097082Y0100399D03*
X0008499Y0100399D03*
X0008499Y0011816D03*
X0097082Y0011816D03*
M02*
