G75*
%MOIN*%
%OFA0B0*%
%FSLAX25Y25*%
%IPPOS*%
%LPD*%
%AMOC8*
5,1,8,0,0,1.08239X$1,22.5*
%
%ADD10C,0.00000*%
%ADD11C,0.00300*%
%ADD12R,0.03543X0.03543*%
%ADD13C,0.05600*%
%ADD14R,0.01181X0.03150*%
%ADD15R,0.03150X0.01181*%
%ADD16R,0.19685X0.19685*%
%ADD17R,0.05512X0.03937*%
%ADD18R,0.06000X0.06000*%
%ADD19C,0.06000*%
%ADD20R,0.04724X0.02362*%
%ADD21R,0.05118X0.05906*%
%ADD22R,0.00984X0.03150*%
%ADD23R,0.03150X0.00984*%
%ADD24R,0.02756X0.01181*%
%ADD25R,0.01181X0.02756*%
%ADD26R,0.01102X0.03543*%
%ADD27R,0.01142X0.03543*%
%ADD28R,0.07874X0.03150*%
%ADD29R,0.00984X0.01969*%
%ADD30R,0.01969X0.00984*%
%ADD31C,0.03500*%
%ADD32C,0.00984*%
%ADD33C,0.02178*%
%ADD34C,0.02953*%
%ADD35C,0.01969*%
%ADD36C,0.02953*%
%ADD37C,0.01378*%
%ADD38C,0.05906*%
%ADD39C,0.01102*%
D10*
X0009483Y0006895D02*
X0096098Y0006895D01*
X0096250Y0006897D01*
X0096402Y0006903D01*
X0096554Y0006913D01*
X0096705Y0006926D01*
X0096856Y0006944D01*
X0097007Y0006965D01*
X0097157Y0006991D01*
X0097306Y0007020D01*
X0097455Y0007053D01*
X0097602Y0007090D01*
X0097749Y0007130D01*
X0097894Y0007175D01*
X0098038Y0007223D01*
X0098181Y0007275D01*
X0098323Y0007330D01*
X0098463Y0007389D01*
X0098602Y0007452D01*
X0098739Y0007518D01*
X0098874Y0007588D01*
X0099007Y0007661D01*
X0099138Y0007738D01*
X0099268Y0007818D01*
X0099395Y0007901D01*
X0099520Y0007987D01*
X0099643Y0008077D01*
X0099763Y0008170D01*
X0099881Y0008266D01*
X0099997Y0008365D01*
X0100110Y0008467D01*
X0100220Y0008571D01*
X0100328Y0008679D01*
X0100432Y0008789D01*
X0100534Y0008902D01*
X0100633Y0009018D01*
X0100729Y0009136D01*
X0100822Y0009256D01*
X0100912Y0009379D01*
X0100998Y0009504D01*
X0101081Y0009631D01*
X0101161Y0009761D01*
X0101238Y0009892D01*
X0101311Y0010025D01*
X0101381Y0010160D01*
X0101447Y0010297D01*
X0101510Y0010436D01*
X0101569Y0010576D01*
X0101624Y0010718D01*
X0101676Y0010861D01*
X0101724Y0011005D01*
X0101769Y0011150D01*
X0101809Y0011297D01*
X0101846Y0011444D01*
X0101879Y0011593D01*
X0101908Y0011742D01*
X0101934Y0011892D01*
X0101955Y0012043D01*
X0101973Y0012194D01*
X0101986Y0012345D01*
X0101996Y0012497D01*
X0102002Y0012649D01*
X0102004Y0012801D01*
X0102003Y0012801D02*
X0102003Y0099415D01*
X0102004Y0099415D02*
X0102002Y0099567D01*
X0101996Y0099719D01*
X0101986Y0099871D01*
X0101973Y0100022D01*
X0101955Y0100173D01*
X0101934Y0100324D01*
X0101908Y0100474D01*
X0101879Y0100623D01*
X0101846Y0100772D01*
X0101809Y0100919D01*
X0101769Y0101066D01*
X0101724Y0101211D01*
X0101676Y0101355D01*
X0101624Y0101498D01*
X0101569Y0101640D01*
X0101510Y0101780D01*
X0101447Y0101919D01*
X0101381Y0102056D01*
X0101311Y0102191D01*
X0101238Y0102324D01*
X0101161Y0102455D01*
X0101081Y0102585D01*
X0100998Y0102712D01*
X0100912Y0102837D01*
X0100822Y0102960D01*
X0100729Y0103080D01*
X0100633Y0103198D01*
X0100534Y0103314D01*
X0100432Y0103427D01*
X0100328Y0103537D01*
X0100220Y0103645D01*
X0100110Y0103749D01*
X0099997Y0103851D01*
X0099881Y0103950D01*
X0099763Y0104046D01*
X0099643Y0104139D01*
X0099520Y0104229D01*
X0099395Y0104315D01*
X0099268Y0104398D01*
X0099138Y0104478D01*
X0099007Y0104555D01*
X0098874Y0104628D01*
X0098739Y0104698D01*
X0098602Y0104764D01*
X0098463Y0104827D01*
X0098323Y0104886D01*
X0098181Y0104941D01*
X0098038Y0104993D01*
X0097894Y0105041D01*
X0097749Y0105086D01*
X0097602Y0105126D01*
X0097455Y0105163D01*
X0097306Y0105196D01*
X0097157Y0105225D01*
X0097007Y0105251D01*
X0096856Y0105272D01*
X0096705Y0105290D01*
X0096554Y0105303D01*
X0096402Y0105313D01*
X0096250Y0105319D01*
X0096098Y0105321D01*
X0096098Y0105320D02*
X0009483Y0105320D01*
X0009483Y0105321D02*
X0009331Y0105319D01*
X0009179Y0105313D01*
X0009027Y0105303D01*
X0008876Y0105290D01*
X0008725Y0105272D01*
X0008574Y0105251D01*
X0008424Y0105225D01*
X0008275Y0105196D01*
X0008126Y0105163D01*
X0007979Y0105126D01*
X0007832Y0105086D01*
X0007687Y0105041D01*
X0007543Y0104993D01*
X0007400Y0104941D01*
X0007258Y0104886D01*
X0007118Y0104827D01*
X0006979Y0104764D01*
X0006842Y0104698D01*
X0006707Y0104628D01*
X0006574Y0104555D01*
X0006443Y0104478D01*
X0006313Y0104398D01*
X0006186Y0104315D01*
X0006061Y0104229D01*
X0005938Y0104139D01*
X0005818Y0104046D01*
X0005700Y0103950D01*
X0005584Y0103851D01*
X0005471Y0103749D01*
X0005361Y0103645D01*
X0005253Y0103537D01*
X0005149Y0103427D01*
X0005047Y0103314D01*
X0004948Y0103198D01*
X0004852Y0103080D01*
X0004759Y0102960D01*
X0004669Y0102837D01*
X0004583Y0102712D01*
X0004500Y0102585D01*
X0004420Y0102455D01*
X0004343Y0102324D01*
X0004270Y0102191D01*
X0004200Y0102056D01*
X0004134Y0101919D01*
X0004071Y0101780D01*
X0004012Y0101640D01*
X0003957Y0101498D01*
X0003905Y0101355D01*
X0003857Y0101211D01*
X0003812Y0101066D01*
X0003772Y0100919D01*
X0003735Y0100772D01*
X0003702Y0100623D01*
X0003673Y0100474D01*
X0003647Y0100324D01*
X0003626Y0100173D01*
X0003608Y0100022D01*
X0003595Y0099871D01*
X0003585Y0099719D01*
X0003579Y0099567D01*
X0003577Y0099415D01*
X0003578Y0099415D02*
X0003578Y0012801D01*
X0003577Y0012801D02*
X0003579Y0012649D01*
X0003585Y0012497D01*
X0003595Y0012345D01*
X0003608Y0012194D01*
X0003626Y0012043D01*
X0003647Y0011892D01*
X0003673Y0011742D01*
X0003702Y0011593D01*
X0003735Y0011444D01*
X0003772Y0011297D01*
X0003812Y0011150D01*
X0003857Y0011005D01*
X0003905Y0010861D01*
X0003957Y0010718D01*
X0004012Y0010576D01*
X0004071Y0010436D01*
X0004134Y0010297D01*
X0004200Y0010160D01*
X0004270Y0010025D01*
X0004343Y0009892D01*
X0004420Y0009761D01*
X0004500Y0009631D01*
X0004583Y0009504D01*
X0004669Y0009379D01*
X0004759Y0009256D01*
X0004852Y0009136D01*
X0004948Y0009018D01*
X0005047Y0008902D01*
X0005149Y0008789D01*
X0005253Y0008679D01*
X0005361Y0008571D01*
X0005471Y0008467D01*
X0005584Y0008365D01*
X0005700Y0008266D01*
X0005818Y0008170D01*
X0005938Y0008077D01*
X0006061Y0007987D01*
X0006186Y0007901D01*
X0006313Y0007818D01*
X0006443Y0007738D01*
X0006574Y0007661D01*
X0006707Y0007588D01*
X0006842Y0007518D01*
X0006979Y0007452D01*
X0007118Y0007389D01*
X0007258Y0007330D01*
X0007400Y0007275D01*
X0007543Y0007223D01*
X0007687Y0007175D01*
X0007832Y0007130D01*
X0007979Y0007090D01*
X0008126Y0007053D01*
X0008275Y0007020D01*
X0008424Y0006991D01*
X0008574Y0006965D01*
X0008725Y0006944D01*
X0008876Y0006926D01*
X0009027Y0006913D01*
X0009179Y0006903D01*
X0009331Y0006897D01*
X0009483Y0006895D01*
D11*
X0006299Y0017560D02*
X0006577Y0017838D01*
X0006299Y0017560D02*
X0005186Y0017560D01*
X0005464Y0017281D02*
X0005464Y0017838D01*
X0005742Y0018490D02*
X0006299Y0018490D01*
X0006577Y0018768D01*
X0006577Y0019325D01*
X0006299Y0019603D01*
X0005742Y0019603D01*
X0005464Y0019325D01*
X0005464Y0018768D01*
X0005742Y0018490D01*
X0005464Y0020302D02*
X0005464Y0021137D01*
X0005742Y0021415D01*
X0006299Y0021415D01*
X0006577Y0021137D01*
X0006577Y0020302D01*
X0007134Y0020302D02*
X0005464Y0020302D01*
X0004908Y0023927D02*
X0004908Y0024206D01*
X0006577Y0024206D01*
X0006577Y0024484D02*
X0006577Y0023927D01*
X0006299Y0025136D02*
X0006021Y0025414D01*
X0006021Y0026249D01*
X0005742Y0026249D02*
X0006577Y0026249D01*
X0006577Y0025414D01*
X0006299Y0025136D01*
X0005464Y0025414D02*
X0005464Y0025971D01*
X0005742Y0026249D01*
X0005464Y0026948D02*
X0006299Y0026948D01*
X0006577Y0027227D01*
X0006577Y0028062D01*
X0006856Y0028062D02*
X0007134Y0027783D01*
X0007134Y0027505D01*
X0006856Y0028062D02*
X0005464Y0028062D01*
X0005742Y0028761D02*
X0005464Y0029039D01*
X0005464Y0029596D01*
X0005742Y0029874D01*
X0006021Y0029874D01*
X0006021Y0028761D01*
X0006299Y0028761D02*
X0005742Y0028761D01*
X0006299Y0028761D02*
X0006577Y0029039D01*
X0006577Y0029596D01*
X0006577Y0030573D02*
X0005464Y0030573D01*
X0006021Y0030573D02*
X0005464Y0031130D01*
X0005464Y0031408D01*
X0005742Y0033896D02*
X0006299Y0033896D01*
X0006577Y0034175D01*
X0006577Y0034731D01*
X0006299Y0035010D01*
X0005742Y0035010D01*
X0005464Y0034731D01*
X0005464Y0034175D01*
X0005742Y0033896D01*
X0005742Y0035709D02*
X0005742Y0036266D01*
X0005186Y0035987D02*
X0004908Y0036266D01*
X0005186Y0035987D02*
X0006577Y0035987D01*
X0005742Y0038730D02*
X0005742Y0039843D01*
X0004908Y0039565D02*
X0005742Y0038730D01*
X0006577Y0039565D02*
X0004908Y0039565D01*
D12*
X0012239Y0044297D03*
X0018538Y0044297D03*
X0025231Y0050989D03*
X0025231Y0057289D03*
X0027200Y0064769D03*
X0027200Y0071068D03*
X0027200Y0076580D03*
X0027200Y0082879D03*
X0027200Y0088391D03*
X0027200Y0094690D03*
X0039798Y0101383D03*
X0046098Y0101383D03*
X0053578Y0085438D03*
X0059877Y0085438D03*
X0070507Y0092328D03*
X0070507Y0098627D03*
X0081137Y0091541D03*
X0087436Y0091541D03*
X0085074Y0083667D03*
X0091373Y0083667D03*
X0090192Y0076974D03*
X0090192Y0070675D03*
X0098066Y0070675D03*
X0098066Y0076974D03*
X0098066Y0057289D03*
X0098066Y0050989D03*
X0061846Y0040360D03*
X0055546Y0040360D03*
X0046885Y0050989D03*
X0040979Y0050989D03*
X0035074Y0050989D03*
X0035074Y0057289D03*
X0040979Y0057289D03*
X0046885Y0057289D03*
X0033105Y0039572D03*
X0027200Y0039572D03*
X0027200Y0033273D03*
X0033105Y0033273D03*
X0032318Y0026580D03*
X0032318Y0020675D03*
X0037830Y0016738D03*
X0037830Y0010832D03*
X0044129Y0010832D03*
X0044129Y0016738D03*
X0026019Y0020675D03*
X0026019Y0026580D03*
D13*
X0014405Y0024612D03*
X0014405Y0032486D03*
D14*
X0057712Y0050202D03*
X0059680Y0050202D03*
X0061649Y0050202D03*
X0063617Y0050202D03*
X0065586Y0050202D03*
X0067554Y0050202D03*
X0069523Y0050202D03*
X0071491Y0050202D03*
X0073460Y0050202D03*
X0075428Y0050202D03*
X0077397Y0050202D03*
X0079365Y0050202D03*
X0079365Y0077761D03*
X0077397Y0077761D03*
X0075428Y0077761D03*
X0073460Y0077761D03*
X0071491Y0077761D03*
X0069523Y0077761D03*
X0067554Y0077761D03*
X0065586Y0077761D03*
X0063617Y0077761D03*
X0061649Y0077761D03*
X0059680Y0077761D03*
X0057712Y0077761D03*
D15*
X0054759Y0074808D03*
X0054759Y0072840D03*
X0054759Y0070871D03*
X0054759Y0068903D03*
X0054759Y0066934D03*
X0054759Y0064966D03*
X0054759Y0062997D03*
X0054759Y0061029D03*
X0054759Y0059060D03*
X0054759Y0057092D03*
X0054759Y0055123D03*
X0054759Y0053155D03*
X0082318Y0053155D03*
X0082318Y0055123D03*
X0082318Y0057092D03*
X0082318Y0059060D03*
X0082318Y0061029D03*
X0082318Y0062997D03*
X0082318Y0064966D03*
X0082318Y0066934D03*
X0082318Y0068903D03*
X0082318Y0070871D03*
X0082318Y0072840D03*
X0082318Y0074808D03*
D16*
X0068538Y0063982D03*
D17*
X0017751Y0057879D03*
X0009090Y0054139D03*
X0017751Y0050399D03*
D18*
X0008499Y0087604D03*
X0057475Y0011738D03*
D19*
X0067475Y0011738D03*
X0077475Y0011738D03*
X0087475Y0011738D03*
X0087475Y0021738D03*
X0077475Y0021738D03*
X0067475Y0021738D03*
X0057475Y0021738D03*
X0018499Y0067604D03*
X0018499Y0077604D03*
X0008499Y0077604D03*
X0008499Y0067604D03*
X0018499Y0087604D03*
D20*
X0080743Y0098529D03*
X0080743Y0102269D03*
X0087830Y0102269D03*
X0087830Y0098529D03*
X0030743Y0013686D03*
X0030743Y0009946D03*
X0023657Y0009946D03*
X0023657Y0013686D03*
D21*
X0051019Y0032486D03*
X0058499Y0032486D03*
D22*
X0040979Y0085241D03*
X0039011Y0085241D03*
X0037042Y0085241D03*
X0037042Y0093903D03*
X0039011Y0093903D03*
X0040979Y0093903D03*
D23*
X0044129Y0092525D03*
X0044129Y0090556D03*
X0044129Y0088588D03*
X0044129Y0086619D03*
X0033893Y0086619D03*
X0033893Y0088588D03*
X0033893Y0090556D03*
X0033893Y0092525D03*
X0069129Y0037407D03*
X0069129Y0035438D03*
X0079759Y0035438D03*
X0079759Y0037407D03*
X0086846Y0037407D03*
X0086846Y0035438D03*
X0097475Y0035438D03*
X0097475Y0037407D03*
D24*
X0063027Y0093115D03*
X0063027Y0095478D03*
X0063027Y0097840D03*
X0054365Y0097840D03*
X0054365Y0095478D03*
X0054365Y0093115D03*
D25*
X0057515Y0091147D03*
X0059877Y0091147D03*
X0059877Y0099808D03*
X0057515Y0099808D03*
D26*
X0069523Y0040753D03*
X0071491Y0040753D03*
X0073460Y0040753D03*
X0075428Y0040753D03*
X0079365Y0040753D03*
X0087239Y0040753D03*
X0089208Y0040753D03*
X0091176Y0040753D03*
X0093145Y0040753D03*
X0097082Y0040753D03*
X0097082Y0032092D03*
X0095113Y0032092D03*
X0093145Y0032092D03*
X0091176Y0032092D03*
X0089208Y0032092D03*
X0087239Y0032092D03*
X0079365Y0032092D03*
X0077397Y0032092D03*
X0075428Y0032092D03*
X0073460Y0032092D03*
X0071491Y0032092D03*
X0069523Y0032092D03*
D27*
X0077397Y0040753D03*
X0095113Y0040753D03*
D28*
X0092161Y0036423D03*
X0074444Y0036423D03*
D29*
X0038027Y0066541D03*
X0036058Y0066541D03*
X0036058Y0073234D03*
X0038027Y0073234D03*
D30*
X0040389Y0072840D03*
X0040389Y0070871D03*
X0040389Y0068903D03*
X0040389Y0066934D03*
X0033696Y0066934D03*
X0033696Y0068903D03*
X0033696Y0070871D03*
X0033696Y0072840D03*
D31*
X0076413Y0083667D03*
X0076413Y0089572D03*
D32*
X0076420Y0089580D02*
X0076405Y0089580D01*
X0076405Y0092814D01*
X0076093Y0092814D01*
X0075467Y0092690D01*
X0074877Y0092445D01*
X0074346Y0092090D01*
X0073894Y0091639D01*
X0073771Y0091454D01*
X0073771Y0091934D01*
X0070901Y0091934D01*
X0070901Y0092722D01*
X0073771Y0092722D01*
X0073771Y0094296D01*
X0073669Y0094676D01*
X0073473Y0095016D01*
X0073195Y0095294D01*
X0073124Y0095335D01*
X0073782Y0095993D01*
X0074091Y0095865D01*
X0075190Y0095865D01*
X0076205Y0096286D01*
X0076708Y0096788D01*
X0076708Y0096655D01*
X0077688Y0095675D01*
X0078972Y0095675D01*
X0078972Y0094986D01*
X0078672Y0094986D01*
X0077692Y0094005D01*
X0077692Y0092551D01*
X0077358Y0092690D01*
X0076732Y0092814D01*
X0076420Y0092814D01*
X0076420Y0089580D01*
X0076405Y0090430D02*
X0076420Y0090430D01*
X0076405Y0091413D02*
X0076420Y0091413D01*
X0076405Y0092395D02*
X0076420Y0092395D01*
X0077692Y0093378D02*
X0073771Y0093378D01*
X0073753Y0094361D02*
X0078048Y0094361D01*
X0078972Y0095344D02*
X0073133Y0095344D01*
X0074802Y0092395D02*
X0070901Y0092395D01*
X0070507Y0092328D02*
X0074641Y0092328D01*
X0070507Y0092328D02*
X0069720Y0093115D01*
X0063027Y0093115D01*
X0061649Y0093115D01*
X0060664Y0094100D01*
X0060664Y0095478D01*
X0058302Y0095478D01*
X0058696Y0095478D01*
X0058302Y0095478D02*
X0056924Y0094100D01*
X0055940Y0093115D01*
X0054365Y0093115D01*
X0052594Y0093115D01*
X0050822Y0091344D01*
X0050428Y0091344D01*
X0049879Y0091731D02*
X0050978Y0091731D01*
X0051588Y0091984D01*
X0051597Y0091949D01*
X0051793Y0091609D01*
X0051806Y0091596D01*
X0051806Y0089164D01*
X0052087Y0088883D01*
X0051113Y0088883D01*
X0050418Y0088188D01*
X0050387Y0088201D01*
X0049288Y0088201D01*
X0048273Y0087780D01*
X0048066Y0087573D01*
X0048066Y0092978D01*
X0048087Y0092929D01*
X0048864Y0092152D01*
X0049879Y0091731D01*
X0048620Y0092395D02*
X0048066Y0092395D01*
X0048066Y0091413D02*
X0051806Y0091413D01*
X0051806Y0090430D02*
X0048066Y0090430D01*
X0048066Y0089447D02*
X0051806Y0089447D01*
X0050694Y0088464D02*
X0048066Y0088464D01*
X0047082Y0088588D02*
X0044129Y0088588D01*
X0044129Y0090556D02*
X0047082Y0090556D01*
X0047082Y0087407D02*
X0047082Y0096462D01*
X0046098Y0097446D01*
X0046098Y0101383D01*
X0046491Y0100989D02*
X0046491Y0098119D01*
X0047666Y0098119D01*
X0047666Y0097487D01*
X0048087Y0096472D01*
X0048294Y0096265D01*
X0048087Y0096058D01*
X0048066Y0096008D01*
X0048066Y0096279D01*
X0047489Y0096856D01*
X0042460Y0096856D01*
X0042165Y0097151D01*
X0039794Y0097151D01*
X0039613Y0096970D01*
X0039011Y0096970D01*
X0039011Y0096856D01*
X0039011Y0096856D01*
X0039011Y0096970D01*
X0038322Y0096970D01*
X0038027Y0096891D01*
X0037731Y0096970D01*
X0037042Y0096970D01*
X0036354Y0096970D01*
X0035974Y0096868D01*
X0035953Y0096856D01*
X0033272Y0096856D01*
X0032898Y0097229D01*
X0031883Y0097649D01*
X0030784Y0097649D01*
X0030336Y0097464D01*
X0029665Y0098135D01*
X0029660Y0098135D01*
X0029962Y0098865D01*
X0029962Y0099218D01*
X0030065Y0099218D01*
X0036353Y0099218D01*
X0036353Y0098918D01*
X0037334Y0097938D01*
X0042263Y0097938D01*
X0043091Y0098766D01*
X0043132Y0098695D01*
X0043410Y0098418D01*
X0043750Y0098221D01*
X0044129Y0098119D01*
X0045704Y0098119D01*
X0045704Y0100989D01*
X0046491Y0100989D01*
X0046491Y0100258D02*
X0045704Y0100258D01*
X0045704Y0099275D02*
X0046491Y0099275D01*
X0046491Y0098292D02*
X0045704Y0098292D01*
X0046294Y0097249D02*
X0047082Y0096462D01*
X0048019Y0096326D02*
X0048232Y0096326D01*
X0047740Y0097309D02*
X0032704Y0097309D01*
X0031334Y0094887D02*
X0031137Y0094887D01*
X0031137Y0092328D01*
X0031334Y0092525D01*
X0033893Y0092525D01*
X0031137Y0092328D02*
X0031137Y0083076D01*
X0030940Y0082879D01*
X0027200Y0082879D01*
X0023755Y0082568D02*
X0015586Y0082568D01*
X0015586Y0081628D02*
X0015586Y0084168D01*
X0016145Y0083762D01*
X0016775Y0083441D01*
X0017447Y0083222D01*
X0018007Y0083133D01*
X0018007Y0087111D01*
X0018991Y0087111D01*
X0018991Y0083133D01*
X0019551Y0083222D01*
X0020223Y0083441D01*
X0020853Y0083762D01*
X0021426Y0084177D01*
X0021926Y0084677D01*
X0022341Y0085249D01*
X0022662Y0085879D01*
X0022881Y0086552D01*
X0022969Y0087112D01*
X0018991Y0087112D01*
X0018991Y0088096D01*
X0018007Y0088096D01*
X0018007Y0092074D01*
X0017531Y0091998D01*
X0022782Y0097249D01*
X0023849Y0097249D01*
X0023755Y0097155D01*
X0023755Y0092226D01*
X0024583Y0091398D01*
X0024512Y0091357D01*
X0024234Y0091079D01*
X0024038Y0090739D01*
X0023936Y0090359D01*
X0023936Y0088785D01*
X0026806Y0088785D01*
X0026806Y0087997D01*
X0023936Y0087997D01*
X0023936Y0086423D01*
X0024038Y0086043D01*
X0024190Y0085779D01*
X0023755Y0085344D01*
X0023755Y0080415D01*
X0024440Y0079730D01*
X0023755Y0079045D01*
X0023755Y0078745D01*
X0023547Y0078745D01*
X0023172Y0078371D01*
X0023172Y0078533D01*
X0022461Y0080251D01*
X0021146Y0081565D01*
X0019429Y0082277D01*
X0017570Y0082277D01*
X0015852Y0081565D01*
X0014537Y0080251D01*
X0013826Y0078533D01*
X0013826Y0076674D01*
X0014537Y0074956D01*
X0015852Y0073642D01*
X0017570Y0072930D01*
X0017732Y0072930D01*
X0017642Y0072840D01*
X0016731Y0071930D01*
X0015852Y0071565D01*
X0014537Y0070251D01*
X0013826Y0068533D01*
X0013826Y0066674D01*
X0014537Y0064956D01*
X0015512Y0063982D01*
X0015183Y0063982D01*
X0012973Y0066192D01*
X0013172Y0066674D01*
X0013172Y0068533D01*
X0012461Y0070251D01*
X0011146Y0071565D01*
X0009429Y0072277D01*
X0007570Y0072277D01*
X0005852Y0071565D01*
X0005570Y0071283D01*
X0005570Y0073924D01*
X0005852Y0073642D01*
X0007570Y0072930D01*
X0009429Y0072930D01*
X0011146Y0073642D01*
X0012461Y0074956D01*
X0013172Y0076674D01*
X0013172Y0078533D01*
X0012973Y0079015D01*
X0015586Y0081628D01*
X0015543Y0081585D02*
X0015899Y0081585D01*
X0014889Y0080602D02*
X0014560Y0080602D01*
X0014276Y0079619D02*
X0013577Y0079619D01*
X0013869Y0078637D02*
X0013129Y0078637D01*
X0013172Y0077654D02*
X0013826Y0077654D01*
X0013827Y0076671D02*
X0013171Y0076671D01*
X0012764Y0075688D02*
X0014234Y0075688D01*
X0014788Y0074706D02*
X0012210Y0074706D01*
X0011227Y0073723D02*
X0015771Y0073723D01*
X0017542Y0072740D02*
X0005570Y0072740D01*
X0005570Y0071757D02*
X0006315Y0071757D01*
X0005771Y0073723D02*
X0005570Y0073723D01*
X0008499Y0077604D02*
X0013420Y0082525D01*
X0013420Y0090950D01*
X0021885Y0099415D01*
X0027200Y0099415D01*
X0029725Y0098292D02*
X0036980Y0098292D01*
X0037042Y0096970D02*
X0037042Y0096856D01*
X0037042Y0096856D01*
X0037042Y0096970D01*
X0037042Y0096462D02*
X0037830Y0097249D01*
X0039011Y0097249D01*
X0039011Y0093706D01*
X0037042Y0093903D02*
X0037042Y0096462D01*
X0039011Y0097249D02*
X0046294Y0097249D01*
X0043627Y0098292D02*
X0042617Y0098292D01*
X0039798Y0101383D02*
X0029168Y0101383D01*
X0027594Y0102958D01*
X0020901Y0102958D01*
X0019326Y0101383D01*
X0021859Y0096326D02*
X0023755Y0096326D01*
X0023755Y0095344D02*
X0020876Y0095344D01*
X0019893Y0094361D02*
X0023755Y0094361D01*
X0023755Y0093378D02*
X0018911Y0093378D01*
X0018991Y0092074D02*
X0018991Y0088096D01*
X0022969Y0088096D01*
X0022881Y0088656D01*
X0022662Y0089328D01*
X0022341Y0089958D01*
X0021926Y0090530D01*
X0021426Y0091030D01*
X0020853Y0091446D01*
X0020223Y0091767D01*
X0019551Y0091985D01*
X0018991Y0092074D01*
X0018991Y0091413D02*
X0018007Y0091413D01*
X0018007Y0090430D02*
X0018991Y0090430D01*
X0018991Y0089447D02*
X0018007Y0089447D01*
X0018007Y0088464D02*
X0018991Y0088464D01*
X0019287Y0088391D02*
X0018499Y0087604D01*
X0018991Y0087482D02*
X0023936Y0087482D01*
X0023936Y0086499D02*
X0022863Y0086499D01*
X0022477Y0085516D02*
X0023927Y0085516D01*
X0023755Y0084533D02*
X0021782Y0084533D01*
X0020439Y0083551D02*
X0023755Y0083551D01*
X0023755Y0081585D02*
X0021099Y0081585D01*
X0022109Y0080602D02*
X0023755Y0080602D01*
X0024330Y0079619D02*
X0022722Y0079619D01*
X0023129Y0078637D02*
X0023438Y0078637D01*
X0024444Y0076580D02*
X0018538Y0070675D01*
X0018538Y0067643D01*
X0018499Y0067604D01*
X0021819Y0070893D02*
X0023755Y0072829D01*
X0023755Y0068603D01*
X0024583Y0067776D01*
X0024512Y0067735D01*
X0024234Y0067457D01*
X0024038Y0067117D01*
X0023936Y0066737D01*
X0023936Y0065163D01*
X0026806Y0065163D01*
X0026806Y0064375D01*
X0023936Y0064375D01*
X0023936Y0063418D01*
X0023372Y0063982D01*
X0021486Y0063982D01*
X0022461Y0064956D01*
X0023172Y0066674D01*
X0023172Y0068533D01*
X0022461Y0070251D01*
X0021819Y0070893D01*
X0021937Y0070775D02*
X0023755Y0070775D01*
X0023755Y0071757D02*
X0022684Y0071757D01*
X0023666Y0072740D02*
X0023755Y0072740D01*
X0023755Y0069792D02*
X0022651Y0069792D01*
X0023058Y0068809D02*
X0023755Y0068809D01*
X0023172Y0067826D02*
X0024532Y0067826D01*
X0023965Y0066844D02*
X0023172Y0066844D01*
X0022835Y0065861D02*
X0023936Y0065861D01*
X0022382Y0064878D02*
X0026806Y0064878D01*
X0027200Y0064769D02*
X0027987Y0063982D01*
X0031137Y0063982D01*
X0030464Y0063895D02*
X0034066Y0063895D01*
X0033893Y0064069D02*
X0033893Y0064769D01*
X0031224Y0064769D01*
X0030464Y0065530D01*
X0030464Y0065163D01*
X0027594Y0065163D01*
X0027594Y0064375D01*
X0030464Y0064375D01*
X0030464Y0063194D01*
X0034379Y0063194D01*
X0034280Y0063432D01*
X0034280Y0063682D01*
X0033893Y0064069D01*
X0036058Y0064966D02*
X0037042Y0063982D01*
X0038027Y0064966D01*
X0038027Y0066541D01*
X0036058Y0066541D02*
X0036058Y0064966D01*
X0033696Y0066934D02*
X0032121Y0066934D01*
X0029168Y0069887D01*
X0027987Y0071068D01*
X0027200Y0071068D01*
X0031727Y0073627D02*
X0032515Y0072840D01*
X0033696Y0072840D01*
X0031727Y0073627D02*
X0031727Y0077171D01*
X0032712Y0078155D01*
X0036255Y0078155D01*
X0038814Y0078155D01*
X0039011Y0078352D01*
X0039011Y0082289D01*
X0039011Y0085241D01*
X0037042Y0085241D02*
X0037042Y0082682D01*
X0035861Y0081501D01*
X0032318Y0081501D01*
X0031137Y0082682D01*
X0031137Y0083076D01*
X0037042Y0085241D02*
X0037042Y0087604D01*
X0040979Y0091541D01*
X0040979Y0093903D01*
X0047082Y0087407D02*
X0046294Y0086619D01*
X0043932Y0086619D01*
X0040979Y0085241D02*
X0040979Y0083470D01*
X0043342Y0081108D01*
X0046688Y0081108D01*
X0048840Y0082862D02*
X0049288Y0082676D01*
X0050387Y0082676D01*
X0050418Y0082689D01*
X0051113Y0081993D01*
X0053960Y0081993D01*
X0055546Y0080408D01*
X0055546Y0080127D01*
X0055448Y0080029D01*
X0055448Y0077072D01*
X0052491Y0077072D01*
X0051511Y0076092D01*
X0051511Y0075410D01*
X0048184Y0078737D01*
X0048253Y0078766D01*
X0049030Y0079543D01*
X0049450Y0080558D01*
X0049450Y0081657D01*
X0049030Y0082672D01*
X0048840Y0082862D01*
X0049073Y0082568D02*
X0050539Y0082568D01*
X0049450Y0081585D02*
X0054369Y0081585D01*
X0055352Y0080602D02*
X0049450Y0080602D01*
X0049061Y0079619D02*
X0055448Y0079619D01*
X0055448Y0078637D02*
X0048284Y0078637D01*
X0049267Y0077654D02*
X0055448Y0077654D01*
X0057712Y0077761D02*
X0057712Y0081304D01*
X0053578Y0085438D01*
X0057515Y0089375D01*
X0057515Y0091147D01*
X0060664Y0095478D02*
X0062633Y0095478D01*
X0066570Y0095478D01*
X0065897Y0095478D02*
X0065897Y0095675D01*
X0067550Y0095675D01*
X0067890Y0095335D01*
X0067819Y0095294D01*
X0067541Y0095016D01*
X0067345Y0094676D01*
X0067243Y0094296D01*
X0067243Y0092722D01*
X0070113Y0092722D01*
X0070113Y0091934D01*
X0067243Y0091934D01*
X0067243Y0091153D01*
X0067005Y0091153D01*
X0065990Y0090733D01*
X0065586Y0090329D01*
X0065586Y0091596D01*
X0065599Y0091609D01*
X0065795Y0091949D01*
X0065897Y0092328D01*
X0065897Y0093115D01*
X0065586Y0093115D01*
X0065586Y0093116D01*
X0065897Y0093116D01*
X0065897Y0093902D01*
X0065795Y0094282D01*
X0065787Y0094297D01*
X0065795Y0094311D01*
X0065897Y0094691D01*
X0065897Y0095478D01*
X0065586Y0095478D01*
X0065586Y0095478D01*
X0065897Y0095478D01*
X0065897Y0095344D02*
X0067881Y0095344D01*
X0067261Y0094361D02*
X0065808Y0094361D01*
X0065897Y0093378D02*
X0067243Y0093378D01*
X0067243Y0091413D02*
X0065586Y0091413D01*
X0065586Y0090430D02*
X0065687Y0090430D01*
X0065897Y0092395D02*
X0070113Y0092395D01*
X0067554Y0088391D02*
X0067554Y0077761D01*
X0069523Y0077761D02*
X0069523Y0085635D01*
X0070901Y0087013D01*
X0074444Y0083667D02*
X0076413Y0083667D01*
X0074444Y0083667D02*
X0071491Y0080714D01*
X0071491Y0077761D01*
X0076216Y0072840D02*
X0082318Y0072840D01*
X0086058Y0072840D01*
X0090192Y0076974D01*
X0094129Y0076974D01*
X0094621Y0076671D02*
X0090586Y0076671D01*
X0090586Y0076580D02*
X0090586Y0077367D01*
X0093456Y0077367D01*
X0093456Y0078942D01*
X0093354Y0079321D01*
X0093158Y0079662D01*
X0092880Y0079939D01*
X0092540Y0080136D01*
X0092160Y0080238D01*
X0090586Y0080238D01*
X0090586Y0077368D01*
X0089798Y0077368D01*
X0089798Y0080238D01*
X0088224Y0080238D01*
X0087844Y0080136D01*
X0087830Y0080127D01*
X0087830Y0080513D01*
X0088367Y0081050D01*
X0088407Y0080979D01*
X0088685Y0080701D01*
X0089026Y0080505D01*
X0089405Y0080403D01*
X0090979Y0080403D01*
X0090979Y0083273D01*
X0091767Y0083273D01*
X0091767Y0084060D01*
X0094637Y0084060D01*
X0094637Y0084431D01*
X0095548Y0084054D01*
X0095797Y0084054D01*
X0095901Y0083951D01*
X0095901Y0080419D01*
X0095601Y0080419D01*
X0094621Y0079438D01*
X0094621Y0074509D01*
X0095306Y0073824D01*
X0094621Y0073139D01*
X0094621Y0070292D01*
X0094020Y0069690D01*
X0093637Y0069690D01*
X0093637Y0073139D01*
X0092809Y0073967D01*
X0092880Y0074008D01*
X0093158Y0074286D01*
X0093354Y0074626D01*
X0093456Y0075006D01*
X0093456Y0076580D01*
X0090586Y0076580D01*
X0090192Y0076974D02*
X0090192Y0082486D01*
X0091373Y0083667D01*
X0094916Y0083667D01*
X0094637Y0083273D02*
X0091767Y0083273D01*
X0091767Y0080403D01*
X0093341Y0080403D01*
X0093721Y0080505D01*
X0094061Y0080701D01*
X0094339Y0080979D01*
X0094535Y0081319D01*
X0094637Y0081699D01*
X0094637Y0083273D01*
X0094637Y0082568D02*
X0095901Y0082568D01*
X0095901Y0083551D02*
X0091767Y0083551D01*
X0091373Y0083667D02*
X0091373Y0087801D01*
X0091584Y0088464D02*
X0090269Y0088464D01*
X0089901Y0088096D02*
X0090881Y0089076D01*
X0090881Y0089167D01*
X0091373Y0088675D01*
X0092642Y0087407D01*
X0093352Y0087407D01*
X0093335Y0087366D01*
X0093335Y0086930D01*
X0091767Y0086930D01*
X0091767Y0084060D01*
X0090979Y0084060D01*
X0090979Y0086930D01*
X0089405Y0086930D01*
X0089026Y0086829D01*
X0088685Y0086632D01*
X0088407Y0086354D01*
X0088367Y0086284D01*
X0087708Y0086942D01*
X0087836Y0087251D01*
X0087836Y0088096D01*
X0089901Y0088096D01*
X0087836Y0087482D02*
X0092567Y0087482D01*
X0091767Y0086499D02*
X0090979Y0086499D01*
X0090979Y0085516D02*
X0091767Y0085516D01*
X0091767Y0084533D02*
X0090979Y0084533D01*
X0090979Y0082568D02*
X0091767Y0082568D01*
X0091767Y0081585D02*
X0090979Y0081585D01*
X0090979Y0080602D02*
X0091767Y0080602D01*
X0090586Y0079619D02*
X0089798Y0079619D01*
X0089798Y0078637D02*
X0090586Y0078637D01*
X0090586Y0077654D02*
X0089798Y0077654D01*
X0088856Y0080602D02*
X0087919Y0080602D01*
X0085664Y0083273D02*
X0085074Y0083667D01*
X0081137Y0083667D01*
X0079242Y0085678D02*
X0078352Y0086569D01*
X0077982Y0086722D01*
X0078479Y0087054D01*
X0078931Y0087505D01*
X0079286Y0088036D01*
X0079310Y0088096D01*
X0082312Y0088096D01*
X0082312Y0087251D01*
X0082440Y0086942D01*
X0081856Y0086359D01*
X0081686Y0086429D01*
X0080587Y0086429D01*
X0079572Y0086008D01*
X0079242Y0085678D01*
X0078421Y0086499D02*
X0081996Y0086499D01*
X0082312Y0087482D02*
X0078907Y0087482D01*
X0081137Y0091541D02*
X0081137Y0098529D01*
X0080743Y0098529D01*
X0080743Y0102269D02*
X0074936Y0102269D01*
X0074838Y0102171D01*
X0074641Y0098627D02*
X0070507Y0098627D01*
X0069720Y0097840D01*
X0063027Y0097840D01*
X0060468Y0097840D01*
X0059877Y0098430D01*
X0059877Y0099808D01*
X0057515Y0099808D02*
X0057515Y0101777D01*
X0056924Y0102367D01*
X0052200Y0102367D01*
X0050428Y0100596D01*
X0050428Y0098037D01*
X0051412Y0095478D02*
X0050428Y0094493D01*
X0051412Y0095478D02*
X0054365Y0095478D01*
X0062633Y0095478D02*
X0063027Y0095478D01*
X0062246Y0088588D02*
X0064792Y0088588D01*
X0064792Y0087842D01*
X0065213Y0086826D01*
X0065389Y0086650D01*
X0065389Y0081009D01*
X0060365Y0081009D01*
X0060184Y0080828D01*
X0059877Y0080828D01*
X0059877Y0082201D01*
X0059483Y0082595D01*
X0059483Y0085045D01*
X0060271Y0085045D01*
X0060271Y0085832D01*
X0063141Y0085832D01*
X0063141Y0087406D01*
X0063039Y0087786D01*
X0062843Y0088126D01*
X0062565Y0088404D01*
X0062246Y0088588D01*
X0062460Y0088464D02*
X0064792Y0088464D01*
X0064941Y0087482D02*
X0063121Y0087482D01*
X0063141Y0086499D02*
X0065389Y0086499D01*
X0065389Y0085516D02*
X0060271Y0085516D01*
X0059877Y0085438D02*
X0059680Y0083864D01*
X0059680Y0077761D01*
X0059680Y0071659D01*
X0059877Y0071462D01*
X0054759Y0064966D02*
X0052790Y0064966D01*
X0050822Y0066934D01*
X0050822Y0070871D01*
X0050822Y0073037D01*
X0045704Y0078155D01*
X0043145Y0078155D01*
X0038814Y0078155D01*
X0039011Y0075989D02*
X0044523Y0075989D01*
X0046688Y0073824D01*
X0046688Y0066738D01*
X0050428Y0062997D01*
X0054759Y0062997D01*
X0054759Y0061029D02*
X0048460Y0061029D01*
X0045507Y0063982D01*
X0042357Y0063982D01*
X0039405Y0061029D01*
X0035074Y0061029D01*
X0035074Y0057289D01*
X0032385Y0054068D02*
X0027920Y0054068D01*
X0027848Y0053996D02*
X0028268Y0054416D01*
X0028936Y0054139D01*
X0030189Y0054139D01*
X0031346Y0054619D01*
X0031629Y0054901D01*
X0031629Y0054824D01*
X0032457Y0053996D01*
X0032386Y0053955D01*
X0032108Y0053677D01*
X0031912Y0053337D01*
X0031810Y0052958D01*
X0031810Y0051383D01*
X0034680Y0051383D01*
X0034680Y0050596D01*
X0031810Y0050596D01*
X0031810Y0049021D01*
X0031912Y0048642D01*
X0032108Y0048302D01*
X0032386Y0048024D01*
X0032726Y0047827D01*
X0033106Y0047726D01*
X0034680Y0047726D01*
X0034680Y0050596D01*
X0035468Y0050596D01*
X0035468Y0047726D01*
X0037042Y0047726D01*
X0037422Y0047827D01*
X0037762Y0048024D01*
X0037899Y0048161D01*
X0038230Y0047829D01*
X0038217Y0047799D01*
X0038217Y0046700D01*
X0038479Y0046068D01*
X0027563Y0046068D01*
X0027190Y0046441D01*
X0026175Y0046862D01*
X0025076Y0046862D01*
X0024060Y0046441D01*
X0023283Y0045664D01*
X0022863Y0044649D01*
X0022863Y0043550D01*
X0023283Y0042535D01*
X0024008Y0041810D01*
X0023936Y0041540D01*
X0023936Y0039966D01*
X0026806Y0039966D01*
X0026806Y0039178D01*
X0023936Y0039178D01*
X0023936Y0037604D01*
X0024038Y0037225D01*
X0024234Y0036884D01*
X0024512Y0036607D01*
X0024583Y0036566D01*
X0023867Y0035849D01*
X0023419Y0036035D01*
X0022320Y0036035D01*
X0021305Y0035615D01*
X0020528Y0034838D01*
X0020107Y0033822D01*
X0020107Y0032724D01*
X0020528Y0031708D01*
X0021305Y0030931D01*
X0022320Y0030511D01*
X0023419Y0030511D01*
X0023867Y0030696D01*
X0024538Y0030025D01*
X0023554Y0030025D01*
X0022574Y0029045D01*
X0022574Y0028745D01*
X0021207Y0028745D01*
X0018725Y0031227D01*
X0018878Y0031596D01*
X0018878Y0033375D01*
X0018197Y0035019D01*
X0016938Y0036278D01*
X0015294Y0036959D01*
X0014897Y0036959D01*
X0014897Y0041044D01*
X0015532Y0041680D01*
X0015573Y0041609D01*
X0015851Y0041331D01*
X0016191Y0041134D01*
X0016570Y0041033D01*
X0018145Y0041033D01*
X0018145Y0043903D01*
X0018932Y0043903D01*
X0018932Y0041033D01*
X0020507Y0041033D01*
X0020886Y0041134D01*
X0021226Y0041331D01*
X0021504Y0041609D01*
X0021701Y0041949D01*
X0021802Y0042328D01*
X0021802Y0043903D01*
X0018932Y0043903D01*
X0018932Y0044690D01*
X0021802Y0044690D01*
X0021802Y0046265D01*
X0021701Y0046644D01*
X0021504Y0046984D01*
X0021315Y0047174D01*
X0021423Y0047236D01*
X0021701Y0047514D01*
X0021897Y0047854D01*
X0021999Y0048234D01*
X0021999Y0048904D01*
X0022069Y0048642D01*
X0022266Y0048302D01*
X0022544Y0048024D01*
X0022884Y0047827D01*
X0023263Y0047726D01*
X0024838Y0047726D01*
X0024838Y0050596D01*
X0025625Y0050596D01*
X0025625Y0051383D01*
X0028495Y0051383D01*
X0028495Y0052958D01*
X0028393Y0053337D01*
X0028197Y0053677D01*
X0027919Y0053955D01*
X0027848Y0053996D01*
X0028461Y0053085D02*
X0031844Y0053085D01*
X0031810Y0052102D02*
X0028495Y0052102D01*
X0028495Y0050596D02*
X0025625Y0050596D01*
X0025625Y0047726D01*
X0027199Y0047726D01*
X0027579Y0047827D01*
X0027919Y0048024D01*
X0028197Y0048302D01*
X0028393Y0048642D01*
X0028495Y0049021D01*
X0028495Y0050596D01*
X0028495Y0050137D02*
X0031810Y0050137D01*
X0031810Y0049154D02*
X0028495Y0049154D01*
X0028066Y0048171D02*
X0032239Y0048171D01*
X0034680Y0048171D02*
X0035468Y0048171D01*
X0035468Y0049154D02*
X0034680Y0049154D01*
X0034680Y0050137D02*
X0035468Y0050137D01*
X0035074Y0050989D02*
X0035074Y0047052D01*
X0038217Y0047188D02*
X0021340Y0047188D01*
X0021802Y0046206D02*
X0023825Y0046206D01*
X0023101Y0045223D02*
X0021802Y0045223D01*
X0022863Y0044240D02*
X0018932Y0044240D01*
X0018932Y0044690D02*
X0018932Y0046938D01*
X0018243Y0046938D01*
X0018243Y0049907D01*
X0017259Y0049907D01*
X0013503Y0049907D01*
X0013503Y0048234D01*
X0013605Y0047854D01*
X0013670Y0047741D01*
X0012553Y0047741D01*
X0011747Y0048547D01*
X0011747Y0050497D01*
X0012539Y0050497D01*
X0013503Y0051462D01*
X0013503Y0050891D01*
X0017259Y0050891D01*
X0017259Y0049907D01*
X0017259Y0047560D01*
X0018145Y0047560D01*
X0018145Y0044690D01*
X0018932Y0044690D01*
X0018932Y0045223D02*
X0018145Y0045223D01*
X0018145Y0046206D02*
X0018932Y0046206D01*
X0018243Y0047188D02*
X0018145Y0047188D01*
X0018243Y0048171D02*
X0017259Y0048171D01*
X0017259Y0049154D02*
X0018243Y0049154D01*
X0018243Y0049907D02*
X0018243Y0050891D01*
X0017259Y0050891D01*
X0017259Y0053860D01*
X0014799Y0053860D01*
X0014419Y0053758D01*
X0014079Y0053561D01*
X0013801Y0053284D01*
X0013605Y0052943D01*
X0013519Y0052623D01*
X0013519Y0055021D01*
X0014302Y0054238D01*
X0021200Y0054238D01*
X0021594Y0054631D01*
X0021979Y0054631D01*
X0022614Y0053996D01*
X0022544Y0053955D01*
X0022266Y0053677D01*
X0022069Y0053337D01*
X0021968Y0052958D01*
X0021968Y0052681D01*
X0021897Y0052943D01*
X0021701Y0053284D01*
X0021423Y0053561D01*
X0021083Y0053758D01*
X0020703Y0053860D01*
X0018243Y0053860D01*
X0018243Y0050891D01*
X0021999Y0050891D01*
X0021999Y0051383D01*
X0024838Y0051383D01*
X0024838Y0050596D01*
X0021968Y0050596D01*
X0021968Y0049907D01*
X0018243Y0049907D01*
X0018243Y0050137D02*
X0021968Y0050137D01*
X0021999Y0051119D02*
X0024838Y0051119D01*
X0025625Y0051119D02*
X0034680Y0051119D01*
X0038422Y0046206D02*
X0027426Y0046206D01*
X0025625Y0048171D02*
X0024838Y0048171D01*
X0024838Y0049154D02*
X0025625Y0049154D01*
X0025625Y0050137D02*
X0024838Y0050137D01*
X0022396Y0048171D02*
X0021982Y0048171D01*
X0018243Y0051119D02*
X0017259Y0051119D01*
X0017259Y0050137D02*
X0011747Y0050137D01*
X0011747Y0049154D02*
X0013503Y0049154D01*
X0013520Y0048171D02*
X0012123Y0048171D01*
X0013161Y0051119D02*
X0013503Y0051119D01*
X0013519Y0053085D02*
X0013686Y0053085D01*
X0013519Y0054068D02*
X0022543Y0054068D01*
X0022002Y0053085D02*
X0021816Y0053085D01*
X0018243Y0053085D02*
X0017259Y0053085D01*
X0017259Y0052102D02*
X0018243Y0052102D01*
X0013322Y0056998D02*
X0013322Y0059719D01*
X0012121Y0060919D01*
X0009910Y0063130D01*
X0009429Y0062930D01*
X0007570Y0062930D01*
X0005852Y0063642D01*
X0005570Y0063924D01*
X0005570Y0057710D01*
X0005641Y0057781D01*
X0012539Y0057781D01*
X0013322Y0056998D01*
X0013322Y0057016D02*
X0013304Y0057016D01*
X0013322Y0057999D02*
X0005570Y0057999D01*
X0005570Y0058981D02*
X0013322Y0058981D01*
X0013076Y0059964D02*
X0005570Y0059964D01*
X0005570Y0060947D02*
X0012094Y0060947D01*
X0011111Y0061930D02*
X0005570Y0061930D01*
X0005570Y0062913D02*
X0010128Y0062913D01*
X0013304Y0065861D02*
X0014163Y0065861D01*
X0014287Y0064878D02*
X0014616Y0064878D01*
X0013826Y0066844D02*
X0013172Y0066844D01*
X0013172Y0067826D02*
X0013826Y0067826D01*
X0013940Y0068809D02*
X0013058Y0068809D01*
X0012651Y0069792D02*
X0014347Y0069792D01*
X0015061Y0070775D02*
X0011937Y0070775D01*
X0010683Y0071757D02*
X0016315Y0071757D01*
X0008499Y0067604D02*
X0014287Y0061816D01*
X0022475Y0061816D01*
X0023263Y0061029D01*
X0035074Y0061029D01*
X0031115Y0064878D02*
X0027594Y0064878D01*
X0023936Y0063895D02*
X0023459Y0063895D01*
X0033696Y0068903D02*
X0036058Y0068903D01*
X0037042Y0069887D01*
X0038027Y0070871D01*
X0040389Y0070871D01*
X0040389Y0072840D02*
X0043735Y0072840D01*
X0039011Y0075989D02*
X0038027Y0075005D01*
X0038027Y0073234D01*
X0037913Y0070576D02*
X0036353Y0070576D01*
X0036353Y0069686D01*
X0036172Y0069505D01*
X0036172Y0069198D01*
X0036841Y0069198D01*
X0037731Y0069198D01*
X0037731Y0070088D01*
X0037913Y0070269D01*
X0037913Y0070576D01*
X0037731Y0069792D02*
X0036353Y0069792D01*
X0043254Y0061816D02*
X0044610Y0061816D01*
X0045874Y0060552D01*
X0044917Y0060552D01*
X0044537Y0060451D01*
X0044197Y0060254D01*
X0043932Y0059989D01*
X0043667Y0060254D01*
X0043327Y0060451D01*
X0042948Y0060552D01*
X0041990Y0060552D01*
X0043254Y0061816D01*
X0043932Y0061226D02*
X0043932Y0057289D01*
X0044916Y0057289D01*
X0046885Y0057289D01*
X0047279Y0057289D01*
X0049050Y0057289D01*
X0050822Y0057289D01*
X0050625Y0057486D01*
X0050822Y0057289D02*
X0050822Y0056304D01*
X0052200Y0055123D01*
X0054759Y0055123D01*
X0062239Y0055123D01*
X0062633Y0055517D01*
X0057712Y0050202D02*
X0057712Y0048627D01*
X0056727Y0047643D01*
X0054168Y0047643D01*
X0050822Y0050989D01*
X0052987Y0053155D01*
X0054759Y0053155D01*
X0051894Y0055123D02*
X0051893Y0055123D01*
X0051692Y0055123D01*
X0051692Y0054922D01*
X0050522Y0053752D01*
X0050273Y0053752D01*
X0050103Y0053681D01*
X0049502Y0054282D01*
X0049573Y0054323D01*
X0049851Y0054601D01*
X0050047Y0054941D01*
X0050149Y0055321D01*
X0050149Y0056895D01*
X0047279Y0056895D01*
X0047279Y0057682D01*
X0050149Y0057682D01*
X0050149Y0058864D01*
X0051511Y0058864D01*
X0051511Y0058375D01*
X0051511Y0055808D01*
X0051692Y0055627D01*
X0051692Y0055123D01*
X0051894Y0055123D01*
X0051692Y0055050D02*
X0050076Y0055050D01*
X0050149Y0056033D02*
X0051511Y0056033D01*
X0051511Y0057016D02*
X0047279Y0057016D01*
X0046885Y0057289D02*
X0043932Y0057289D01*
X0040979Y0057289D01*
X0041373Y0057016D02*
X0046491Y0057016D01*
X0046491Y0056895D02*
X0041373Y0056895D01*
X0041373Y0057682D01*
X0043621Y0057682D01*
X0046491Y0057682D01*
X0046491Y0056895D01*
X0050149Y0057999D02*
X0051511Y0057999D01*
X0050838Y0054068D02*
X0049716Y0054068D01*
X0050822Y0050989D02*
X0046885Y0050989D01*
X0046885Y0047052D01*
X0046885Y0050989D02*
X0040979Y0050989D01*
X0040979Y0047249D01*
X0036316Y0041738D02*
X0052283Y0041738D01*
X0052283Y0040753D01*
X0055153Y0040753D01*
X0055153Y0039966D01*
X0055940Y0039966D01*
X0055940Y0037112D01*
X0055247Y0037112D01*
X0054631Y0036495D01*
X0054494Y0036632D01*
X0054154Y0036829D01*
X0053774Y0036930D01*
X0051511Y0036930D01*
X0051511Y0032978D01*
X0050527Y0032978D01*
X0050527Y0036930D01*
X0048263Y0036930D01*
X0047884Y0036829D01*
X0047544Y0036632D01*
X0047266Y0036354D01*
X0047069Y0036014D01*
X0046968Y0035635D01*
X0046968Y0032978D01*
X0050527Y0032978D01*
X0050527Y0031993D01*
X0051511Y0031993D01*
X0051511Y0028041D01*
X0053774Y0028041D01*
X0054154Y0028142D01*
X0054494Y0028339D01*
X0054631Y0028476D01*
X0055247Y0027860D01*
X0061751Y0027860D01*
X0062441Y0028549D01*
X0062916Y0028075D01*
X0061736Y0026895D01*
X0060468Y0025627D01*
X0060468Y0025098D01*
X0060402Y0025164D01*
X0059830Y0025580D01*
X0059200Y0025901D01*
X0058527Y0026119D01*
X0057968Y0026208D01*
X0057968Y0022230D01*
X0056983Y0022230D01*
X0056983Y0026208D01*
X0056424Y0026119D01*
X0055751Y0025901D01*
X0055121Y0025580D01*
X0054549Y0025164D01*
X0054049Y0024664D01*
X0053633Y0024092D01*
X0053312Y0023462D01*
X0053094Y0022789D01*
X0053005Y0022230D01*
X0056983Y0022230D01*
X0056983Y0021245D01*
X0057968Y0021245D01*
X0057968Y0017267D01*
X0058527Y0017356D01*
X0059200Y0017575D01*
X0059830Y0017896D01*
X0060402Y0018311D01*
X0060468Y0018377D01*
X0060468Y0017438D01*
X0059441Y0016411D01*
X0053782Y0016411D01*
X0052802Y0015431D01*
X0052802Y0008887D01*
X0051996Y0008887D01*
X0052376Y0009267D01*
X0052797Y0010283D01*
X0052797Y0011381D01*
X0052376Y0012397D01*
X0051599Y0013174D01*
X0050584Y0013594D01*
X0049485Y0013594D01*
X0048470Y0013174D01*
X0048294Y0012997D01*
X0047574Y0012997D01*
X0047574Y0013297D01*
X0047086Y0013785D01*
X0047574Y0014273D01*
X0047574Y0019202D01*
X0046594Y0020182D01*
X0046098Y0020182D01*
X0046098Y0022083D01*
X0046274Y0022259D01*
X0046694Y0023275D01*
X0046694Y0024374D01*
X0046274Y0025389D01*
X0045497Y0026166D01*
X0044482Y0026586D01*
X0043383Y0026586D01*
X0042368Y0026166D01*
X0041591Y0025389D01*
X0041170Y0024374D01*
X0041170Y0023275D01*
X0041591Y0022259D01*
X0041767Y0022083D01*
X0041767Y0020182D01*
X0041664Y0020182D01*
X0040979Y0019498D01*
X0040295Y0020182D01*
X0035763Y0020182D01*
X0035763Y0023139D01*
X0035275Y0023627D01*
X0035763Y0024115D01*
X0035763Y0024120D01*
X0036493Y0023818D01*
X0037592Y0023818D01*
X0038607Y0024238D01*
X0039384Y0025015D01*
X0039805Y0026031D01*
X0039805Y0027129D01*
X0039384Y0028145D01*
X0038607Y0028922D01*
X0037592Y0029342D01*
X0036493Y0029342D01*
X0035763Y0029040D01*
X0035763Y0029045D01*
X0034980Y0029828D01*
X0035570Y0029828D01*
X0036550Y0030808D01*
X0036550Y0035738D01*
X0035722Y0036566D01*
X0035793Y0036607D01*
X0036071Y0036884D01*
X0036267Y0037225D01*
X0036369Y0037604D01*
X0036369Y0039178D01*
X0033499Y0039178D01*
X0033499Y0039966D01*
X0036369Y0039966D01*
X0036369Y0041540D01*
X0036316Y0041738D01*
X0036369Y0041292D02*
X0052283Y0041292D01*
X0052283Y0039966D02*
X0052283Y0038391D01*
X0052384Y0038012D01*
X0052581Y0037672D01*
X0052859Y0037394D01*
X0053199Y0037197D01*
X0053578Y0037096D01*
X0055153Y0037096D01*
X0055153Y0039966D01*
X0052283Y0039966D01*
X0052283Y0039326D02*
X0033499Y0039326D01*
X0033105Y0039572D02*
X0037239Y0039572D01*
X0036369Y0040309D02*
X0055153Y0040309D01*
X0055153Y0039326D02*
X0055940Y0039326D01*
X0055940Y0038343D02*
X0055153Y0038343D01*
X0055153Y0037361D02*
X0055940Y0037361D01*
X0052916Y0037361D02*
X0036304Y0037361D01*
X0036369Y0038343D02*
X0052295Y0038343D01*
X0051511Y0036378D02*
X0050527Y0036378D01*
X0050527Y0035395D02*
X0051511Y0035395D01*
X0051511Y0034412D02*
X0050527Y0034412D01*
X0050527Y0033430D02*
X0051511Y0033430D01*
X0050527Y0032447D02*
X0036550Y0032447D01*
X0036550Y0033430D02*
X0046968Y0033430D01*
X0046968Y0034412D02*
X0036550Y0034412D01*
X0036550Y0035395D02*
X0046968Y0035395D01*
X0047289Y0036378D02*
X0035910Y0036378D01*
X0033105Y0033273D02*
X0032318Y0032486D01*
X0032318Y0026580D01*
X0037042Y0026580D01*
X0039013Y0028516D02*
X0047367Y0028516D01*
X0047266Y0028617D02*
X0047544Y0028339D01*
X0047884Y0028142D01*
X0048263Y0028041D01*
X0050527Y0028041D01*
X0050527Y0031993D01*
X0046968Y0031993D01*
X0046968Y0029336D01*
X0047069Y0028957D01*
X0047266Y0028617D01*
X0046968Y0029499D02*
X0035309Y0029499D01*
X0036223Y0030481D02*
X0046968Y0030481D01*
X0046968Y0031464D02*
X0036550Y0031464D01*
X0039637Y0027533D02*
X0062374Y0027533D01*
X0062407Y0028516D02*
X0062475Y0028516D01*
X0061391Y0026550D02*
X0044569Y0026550D01*
X0043296Y0026550D02*
X0039805Y0026550D01*
X0039613Y0025568D02*
X0041769Y0025568D01*
X0041257Y0024585D02*
X0038953Y0024585D01*
X0041170Y0023602D02*
X0035300Y0023602D01*
X0035763Y0022619D02*
X0041441Y0022619D01*
X0041767Y0021636D02*
X0035763Y0021636D01*
X0035763Y0020654D02*
X0041767Y0020654D01*
X0041153Y0019671D02*
X0040806Y0019671D01*
X0043932Y0016934D02*
X0044129Y0016738D01*
X0043932Y0016934D02*
X0043932Y0023824D01*
X0046423Y0022619D02*
X0053067Y0022619D01*
X0053384Y0023602D02*
X0046694Y0023602D01*
X0046607Y0024585D02*
X0053992Y0024585D01*
X0055105Y0025568D02*
X0046095Y0025568D01*
X0046098Y0021636D02*
X0056983Y0021636D01*
X0056983Y0021245D02*
X0053005Y0021245D01*
X0053094Y0020686D01*
X0053312Y0020013D01*
X0053633Y0019383D01*
X0054049Y0018811D01*
X0054549Y0018311D01*
X0055121Y0017896D01*
X0055751Y0017575D01*
X0056424Y0017356D01*
X0056983Y0017267D01*
X0056983Y0021245D01*
X0056983Y0020654D02*
X0057968Y0020654D01*
X0057968Y0019671D02*
X0056983Y0019671D01*
X0056983Y0018688D02*
X0057968Y0018688D01*
X0057968Y0017705D02*
X0056983Y0017705D01*
X0055494Y0017705D02*
X0047574Y0017705D01*
X0047574Y0016723D02*
X0059753Y0016723D01*
X0059457Y0017705D02*
X0060468Y0017705D01*
X0062633Y0016541D02*
X0057830Y0011738D01*
X0057475Y0011738D01*
X0062149Y0011809D02*
X0066983Y0011809D01*
X0066983Y0012230D02*
X0066983Y0011245D01*
X0063005Y0011245D01*
X0063094Y0010686D01*
X0063312Y0010013D01*
X0063633Y0009383D01*
X0063994Y0008887D01*
X0062149Y0008887D01*
X0062149Y0012994D01*
X0064798Y0015644D01*
X0064798Y0017806D01*
X0064828Y0017776D01*
X0066546Y0017064D01*
X0068405Y0017064D01*
X0070123Y0017776D01*
X0071437Y0019090D01*
X0071885Y0020171D01*
X0072672Y0020959D01*
X0073943Y0022230D01*
X0076983Y0022230D01*
X0076983Y0025270D01*
X0077594Y0025880D01*
X0077594Y0028828D01*
X0078144Y0028828D01*
X0078381Y0028891D01*
X0078618Y0028828D01*
X0079365Y0028828D01*
X0079365Y0029533D01*
X0079365Y0029533D01*
X0079365Y0028828D01*
X0079778Y0028828D01*
X0079759Y0028781D01*
X0079759Y0027528D01*
X0080238Y0026371D01*
X0081124Y0025485D01*
X0081395Y0025373D01*
X0080794Y0024772D01*
X0080402Y0025164D01*
X0079830Y0025580D01*
X0079200Y0025901D01*
X0078527Y0026119D01*
X0077968Y0026208D01*
X0077968Y0022230D01*
X0076983Y0022230D01*
X0076983Y0021245D01*
X0077968Y0021245D01*
X0077968Y0017267D01*
X0078527Y0017356D01*
X0079200Y0017575D01*
X0079830Y0017896D01*
X0080153Y0018130D01*
X0080153Y0017634D01*
X0078776Y0016257D01*
X0078405Y0016411D01*
X0076546Y0016411D01*
X0074828Y0015699D01*
X0073514Y0014385D01*
X0072802Y0012667D01*
X0072802Y0010808D01*
X0073514Y0009090D01*
X0073717Y0008887D01*
X0070957Y0008887D01*
X0071317Y0009383D01*
X0071638Y0010013D01*
X0071857Y0010686D01*
X0071946Y0011245D01*
X0067968Y0011245D01*
X0067968Y0012230D01*
X0066983Y0012230D01*
X0066983Y0016208D01*
X0066424Y0016119D01*
X0065751Y0015901D01*
X0065121Y0015580D01*
X0064549Y0015164D01*
X0064049Y0014664D01*
X0063633Y0014092D01*
X0063312Y0013462D01*
X0063094Y0012789D01*
X0063005Y0012230D01*
X0066983Y0012230D01*
X0066983Y0012792D02*
X0067968Y0012792D01*
X0067968Y0012230D02*
X0067968Y0016208D01*
X0068527Y0016119D01*
X0069200Y0015901D01*
X0069830Y0015580D01*
X0070402Y0015164D01*
X0070902Y0014664D01*
X0071317Y0014092D01*
X0071638Y0013462D01*
X0071857Y0012789D01*
X0071946Y0012230D01*
X0067968Y0012230D01*
X0067968Y0011809D02*
X0072802Y0011809D01*
X0072802Y0010826D02*
X0071879Y0010826D01*
X0071552Y0009843D02*
X0073202Y0009843D01*
X0072854Y0012792D02*
X0071856Y0012792D01*
X0071479Y0013774D02*
X0073261Y0013774D01*
X0073886Y0014757D02*
X0070809Y0014757D01*
X0069515Y0015740D02*
X0074926Y0015740D01*
X0075751Y0017575D02*
X0076424Y0017356D01*
X0076983Y0017267D01*
X0076983Y0021245D01*
X0073005Y0021245D01*
X0073094Y0020686D01*
X0073312Y0020013D01*
X0073633Y0019383D01*
X0074049Y0018811D01*
X0074549Y0018311D01*
X0075121Y0017896D01*
X0075751Y0017575D01*
X0075494Y0017705D02*
X0069953Y0017705D01*
X0071035Y0018688D02*
X0074172Y0018688D01*
X0073487Y0019671D02*
X0071678Y0019671D01*
X0072367Y0020654D02*
X0073104Y0020654D01*
X0073350Y0021636D02*
X0076983Y0021636D01*
X0076983Y0020654D02*
X0077968Y0020654D01*
X0077968Y0019671D02*
X0076983Y0019671D01*
X0076983Y0018688D02*
X0077968Y0018688D01*
X0077968Y0017705D02*
X0076983Y0017705D01*
X0079241Y0016723D02*
X0064798Y0016723D01*
X0064798Y0017705D02*
X0064998Y0017705D01*
X0064798Y0015740D02*
X0065436Y0015740D01*
X0066983Y0015740D02*
X0067968Y0015740D01*
X0067968Y0014757D02*
X0066983Y0014757D01*
X0066983Y0013774D02*
X0067968Y0013774D01*
X0064142Y0014757D02*
X0063912Y0014757D01*
X0063472Y0013774D02*
X0062929Y0013774D01*
X0063095Y0012792D02*
X0062149Y0012792D01*
X0062149Y0010826D02*
X0063072Y0010826D01*
X0063399Y0009843D02*
X0062149Y0009843D01*
X0062633Y0016541D02*
X0062633Y0024730D01*
X0064483Y0026580D01*
X0071688Y0026580D01*
X0073460Y0028352D01*
X0073460Y0032092D01*
X0075428Y0032092D02*
X0075428Y0026777D01*
X0070507Y0021856D01*
X0067594Y0021856D01*
X0067475Y0021738D01*
X0069326Y0028549D02*
X0069523Y0028745D01*
X0067299Y0035438D02*
X0066062Y0035438D01*
X0066062Y0035290D01*
X0065228Y0035635D01*
X0062731Y0035635D01*
X0062731Y0036131D01*
X0061948Y0036915D01*
X0064310Y0036915D01*
X0065290Y0037895D01*
X0065290Y0040939D01*
X0065886Y0041534D01*
X0066135Y0041534D01*
X0067150Y0041955D01*
X0067298Y0042103D01*
X0067298Y0039375D01*
X0066978Y0039289D01*
X0066638Y0039093D01*
X0066360Y0038815D01*
X0066164Y0038475D01*
X0066062Y0038095D01*
X0066062Y0037407D01*
X0067299Y0037407D01*
X0067299Y0037407D01*
X0066062Y0037407D01*
X0066062Y0036718D01*
X0066141Y0036423D01*
X0066062Y0036127D01*
X0066062Y0035438D01*
X0067299Y0035438D01*
X0067299Y0035438D01*
X0066062Y0035395D02*
X0065807Y0035395D01*
X0066129Y0036378D02*
X0062485Y0036378D01*
X0064756Y0037361D02*
X0066062Y0037361D01*
X0066129Y0038343D02*
X0065290Y0038343D01*
X0065290Y0039326D02*
X0067116Y0039326D01*
X0067298Y0040309D02*
X0065290Y0040309D01*
X0065643Y0041292D02*
X0067298Y0041292D01*
X0069523Y0040753D02*
X0069523Y0044690D01*
X0065979Y0044690D01*
X0065586Y0044297D01*
X0061846Y0040556D01*
X0061846Y0040360D01*
X0056727Y0043903D02*
X0059680Y0046856D01*
X0068735Y0046856D01*
X0069523Y0047643D01*
X0069523Y0050202D01*
X0071491Y0050202D02*
X0071491Y0058076D01*
X0073460Y0050202D02*
X0073460Y0048430D01*
X0071491Y0046462D01*
X0071491Y0044690D01*
X0069523Y0044690D01*
X0071491Y0044690D02*
X0071491Y0040753D01*
X0073460Y0040753D02*
X0073460Y0045871D01*
X0075428Y0047840D01*
X0075428Y0050202D01*
X0077397Y0050202D02*
X0077397Y0047446D01*
X0078775Y0046068D01*
X0078775Y0044493D01*
X0077397Y0043115D01*
X0077397Y0040753D01*
X0079365Y0040753D02*
X0079365Y0042328D01*
X0081924Y0044887D01*
X0082515Y0044887D01*
X0083302Y0044887D01*
X0087239Y0044887D01*
X0087239Y0040753D01*
X0085015Y0040309D02*
X0081590Y0040309D01*
X0081590Y0039375D02*
X0081590Y0041490D01*
X0082379Y0042280D01*
X0082753Y0042125D01*
X0083852Y0042125D01*
X0084867Y0042545D01*
X0085015Y0042693D01*
X0085015Y0039375D01*
X0084695Y0039289D01*
X0084355Y0039093D01*
X0084077Y0038815D01*
X0083880Y0038475D01*
X0083779Y0038095D01*
X0083779Y0037407D01*
X0085016Y0037407D01*
X0085015Y0037407D01*
X0083779Y0037407D01*
X0083779Y0036718D01*
X0083858Y0036423D01*
X0083779Y0036127D01*
X0083779Y0035438D01*
X0083779Y0034750D01*
X0083880Y0034370D01*
X0084077Y0034030D01*
X0084355Y0033752D01*
X0084695Y0033556D01*
X0085015Y0033470D01*
X0085015Y0030911D01*
X0084486Y0030911D01*
X0083535Y0031304D01*
X0082282Y0031304D01*
X0081409Y0030943D01*
X0081409Y0032092D01*
X0081409Y0033454D01*
X0081530Y0033454D01*
X0081910Y0033556D01*
X0082250Y0033752D01*
X0082528Y0034030D01*
X0082724Y0034370D01*
X0082826Y0034750D01*
X0082826Y0035438D01*
X0081589Y0035438D01*
X0082826Y0035438D01*
X0082826Y0036127D01*
X0082747Y0036423D01*
X0082826Y0036718D01*
X0082826Y0037407D01*
X0082826Y0038095D01*
X0082724Y0038475D01*
X0082528Y0038815D01*
X0082250Y0039093D01*
X0081910Y0039289D01*
X0081590Y0039375D01*
X0081772Y0039326D02*
X0084832Y0039326D01*
X0083845Y0038343D02*
X0082759Y0038343D01*
X0082826Y0037407D02*
X0081589Y0037407D01*
X0081589Y0037407D01*
X0082826Y0037407D01*
X0082826Y0037361D02*
X0083779Y0037361D01*
X0083846Y0036378D02*
X0082759Y0036378D01*
X0082826Y0035395D02*
X0083779Y0035395D01*
X0083779Y0035438D02*
X0085016Y0035438D01*
X0085015Y0035438D01*
X0083779Y0035438D01*
X0083869Y0034412D02*
X0082735Y0034412D01*
X0081589Y0035438D02*
X0081589Y0035438D01*
X0079759Y0035438D02*
X0079365Y0035045D01*
X0079365Y0032092D01*
X0079365Y0028942D01*
X0078381Y0027958D01*
X0077397Y0028942D01*
X0077397Y0032092D01*
X0077397Y0036423D01*
X0076771Y0036423D02*
X0076692Y0036127D01*
X0074739Y0036127D01*
X0074739Y0036718D01*
X0076692Y0036718D01*
X0076771Y0036423D01*
X0076759Y0036378D02*
X0074739Y0036378D01*
X0074149Y0036378D02*
X0072129Y0036378D01*
X0072117Y0036423D02*
X0072196Y0036718D01*
X0074149Y0036718D01*
X0074149Y0036127D01*
X0072196Y0036127D01*
X0072117Y0036423D01*
X0075428Y0040753D02*
X0075428Y0044493D01*
X0076019Y0045084D01*
X0079365Y0048234D02*
X0080350Y0047249D01*
X0089405Y0047249D01*
X0091176Y0045478D01*
X0091176Y0040753D01*
X0089208Y0040753D02*
X0089208Y0044100D01*
X0088420Y0044887D01*
X0087239Y0044887D01*
X0085015Y0042274D02*
X0084213Y0042274D01*
X0085015Y0041292D02*
X0081590Y0041292D01*
X0082374Y0042274D02*
X0082392Y0042274D01*
X0079365Y0048234D02*
X0079365Y0050202D01*
X0082318Y0053155D02*
X0085468Y0053155D01*
X0089995Y0053155D01*
X0095113Y0048037D01*
X0095113Y0040753D01*
X0093145Y0040753D02*
X0093145Y0046856D01*
X0089995Y0050005D01*
X0088617Y0050005D01*
X0093145Y0055123D02*
X0082318Y0055123D01*
X0082318Y0059060D02*
X0086058Y0059060D01*
X0087042Y0058076D01*
X0088420Y0061029D02*
X0090586Y0058864D01*
X0090586Y0058076D01*
X0093348Y0058082D02*
X0093348Y0058626D01*
X0092927Y0059641D01*
X0092150Y0060418D01*
X0092054Y0060458D01*
X0091483Y0061029D01*
X0091286Y0061226D01*
X0091673Y0061613D01*
X0091923Y0061613D01*
X0092938Y0062034D01*
X0093715Y0062811D01*
X0094135Y0063826D01*
X0094135Y0064925D01*
X0093955Y0065360D01*
X0095813Y0065360D01*
X0097082Y0066628D01*
X0097683Y0067230D01*
X0100011Y0067230D01*
X0100011Y0060552D01*
X0098460Y0060552D01*
X0098460Y0057682D01*
X0097672Y0057682D01*
X0097672Y0060552D01*
X0096098Y0060552D01*
X0095718Y0060451D01*
X0095378Y0060254D01*
X0095100Y0059977D01*
X0094904Y0059636D01*
X0094802Y0059257D01*
X0094802Y0057705D01*
X0093891Y0058082D01*
X0093348Y0058082D01*
X0094093Y0057999D02*
X0094802Y0057999D01*
X0094802Y0058981D02*
X0093201Y0058981D01*
X0092604Y0059964D02*
X0095093Y0059964D01*
X0092687Y0061930D02*
X0100011Y0061930D01*
X0100011Y0062913D02*
X0093757Y0062913D01*
X0094135Y0063895D02*
X0100011Y0063895D01*
X0100011Y0064878D02*
X0094135Y0064878D01*
X0096315Y0065861D02*
X0100011Y0065861D01*
X0100011Y0066844D02*
X0097297Y0066844D01*
X0094916Y0067525D02*
X0090192Y0067525D01*
X0089011Y0067525D01*
X0087633Y0066147D01*
X0086452Y0064966D01*
X0082318Y0064966D01*
X0082318Y0066934D02*
X0074444Y0066934D01*
X0074247Y0066738D01*
X0082318Y0062997D02*
X0089995Y0062997D01*
X0091373Y0064375D01*
X0094916Y0067525D02*
X0098066Y0070675D01*
X0094621Y0070775D02*
X0093637Y0070775D01*
X0093637Y0071757D02*
X0094621Y0071757D01*
X0094621Y0072740D02*
X0093637Y0072740D01*
X0093053Y0073723D02*
X0095205Y0073723D01*
X0094621Y0074706D02*
X0093375Y0074706D01*
X0093456Y0075688D02*
X0094621Y0075688D01*
X0094621Y0077654D02*
X0093456Y0077654D01*
X0093456Y0078637D02*
X0094621Y0078637D01*
X0094802Y0079619D02*
X0093182Y0079619D01*
X0093890Y0080602D02*
X0095901Y0080602D01*
X0095901Y0081585D02*
X0094606Y0081585D01*
X0098066Y0084848D02*
X0096098Y0086816D01*
X0098066Y0084848D02*
X0098066Y0076974D01*
X0090192Y0070675D02*
X0089995Y0070871D01*
X0082318Y0070871D01*
X0082318Y0074808D02*
X0084877Y0074808D01*
X0085664Y0075596D01*
X0085664Y0083273D01*
X0085074Y0083667D02*
X0085074Y0087801D01*
X0088151Y0086499D02*
X0088552Y0086499D01*
X0093538Y0089572D02*
X0099050Y0089572D01*
X0093538Y0089572D02*
X0091570Y0091541D01*
X0087436Y0091541D01*
X0084347Y0094361D02*
X0084226Y0094361D01*
X0084287Y0094301D02*
X0083602Y0094986D01*
X0083302Y0094986D01*
X0083302Y0095675D01*
X0083798Y0095675D01*
X0084415Y0096291D01*
X0084551Y0096154D01*
X0084892Y0095957D01*
X0085271Y0095856D01*
X0087731Y0095856D01*
X0087731Y0098430D01*
X0087928Y0098430D01*
X0087928Y0095856D01*
X0090388Y0095856D01*
X0090768Y0095957D01*
X0091108Y0096154D01*
X0091386Y0096432D01*
X0091582Y0096772D01*
X0091684Y0097151D01*
X0091684Y0098430D01*
X0087928Y0098430D01*
X0087928Y0098627D01*
X0091684Y0098627D01*
X0091684Y0099906D01*
X0091582Y0100286D01*
X0091517Y0100399D01*
X0091582Y0100512D01*
X0091684Y0100891D01*
X0091684Y0102171D01*
X0087928Y0102171D01*
X0087928Y0102367D01*
X0091684Y0102367D01*
X0091684Y0103328D01*
X0093469Y0103328D01*
X0093160Y0103019D01*
X0092456Y0101319D01*
X0092456Y0099479D01*
X0093160Y0097779D01*
X0094280Y0096659D01*
X0093503Y0096659D01*
X0092345Y0096179D01*
X0091459Y0095293D01*
X0090979Y0094136D01*
X0090979Y0093706D01*
X0090881Y0093706D01*
X0090881Y0094005D01*
X0089901Y0094986D01*
X0084971Y0094986D01*
X0084287Y0094301D01*
X0083302Y0095344D02*
X0091509Y0095344D01*
X0091281Y0096326D02*
X0092700Y0096326D01*
X0092751Y0096856D02*
X0091078Y0098529D01*
X0087830Y0098529D01*
X0087830Y0102269D01*
X0087928Y0102223D02*
X0092830Y0102223D01*
X0092456Y0101240D02*
X0091684Y0101240D01*
X0091590Y0100258D02*
X0092456Y0100258D01*
X0092540Y0099275D02*
X0091684Y0099275D01*
X0091684Y0098292D02*
X0092947Y0098292D01*
X0093629Y0097309D02*
X0091684Y0097309D01*
X0091073Y0094361D02*
X0090525Y0094361D01*
X0087928Y0096326D02*
X0087731Y0096326D01*
X0087731Y0097309D02*
X0087928Y0097309D01*
X0087928Y0098292D02*
X0087731Y0098292D01*
X0087731Y0098627D02*
X0087731Y0101202D01*
X0087731Y0102171D01*
X0087928Y0102171D01*
X0087928Y0098627D01*
X0087731Y0098627D01*
X0087731Y0099275D02*
X0087928Y0099275D01*
X0087928Y0100258D02*
X0087731Y0100258D01*
X0087731Y0101240D02*
X0087928Y0101240D01*
X0091684Y0103206D02*
X0093347Y0103206D01*
X0077036Y0096326D02*
X0076246Y0096326D01*
X0065389Y0084533D02*
X0063141Y0084533D01*
X0063141Y0085045D02*
X0060271Y0085045D01*
X0060271Y0082175D01*
X0061845Y0082175D01*
X0062225Y0082276D01*
X0062565Y0082473D01*
X0062843Y0082750D01*
X0063039Y0083091D01*
X0063141Y0083470D01*
X0063141Y0085045D01*
X0063814Y0085438D02*
X0059877Y0085438D01*
X0059483Y0084533D02*
X0060271Y0084533D01*
X0060271Y0083551D02*
X0059483Y0083551D01*
X0059511Y0082568D02*
X0060271Y0082568D01*
X0059877Y0081585D02*
X0065389Y0081585D01*
X0065389Y0082568D02*
X0062660Y0082568D01*
X0063141Y0083551D02*
X0065389Y0083551D01*
X0053578Y0085438D02*
X0049838Y0085438D01*
X0050250Y0076671D02*
X0052090Y0076671D01*
X0051511Y0075688D02*
X0051233Y0075688D01*
X0045479Y0060947D02*
X0042385Y0060947D01*
X0027200Y0076580D02*
X0024444Y0076580D01*
X0018991Y0083551D02*
X0018007Y0083551D01*
X0018007Y0084533D02*
X0018991Y0084533D01*
X0018991Y0085516D02*
X0018007Y0085516D01*
X0018007Y0086499D02*
X0018991Y0086499D01*
X0019287Y0088391D02*
X0027200Y0088391D01*
X0026806Y0088464D02*
X0022911Y0088464D01*
X0022601Y0089447D02*
X0023936Y0089447D01*
X0023955Y0090430D02*
X0021998Y0090430D01*
X0020899Y0091413D02*
X0024568Y0091413D01*
X0023755Y0092395D02*
X0017928Y0092395D01*
X0014014Y0094606D02*
X0012523Y0093115D01*
X0011685Y0092277D01*
X0005570Y0092277D01*
X0005570Y0096786D01*
X0005879Y0096477D01*
X0007579Y0095773D01*
X0009419Y0095773D01*
X0011120Y0096477D01*
X0012239Y0097597D01*
X0012239Y0096820D01*
X0012719Y0095662D01*
X0013605Y0094776D01*
X0014014Y0094606D01*
X0013769Y0094361D02*
X0005570Y0094361D01*
X0005570Y0095344D02*
X0013037Y0095344D01*
X0012444Y0096326D02*
X0010756Y0096326D01*
X0011952Y0097309D02*
X0012239Y0097309D01*
X0012786Y0093378D02*
X0005570Y0093378D01*
X0005570Y0092395D02*
X0011803Y0092395D01*
X0006243Y0096326D02*
X0005570Y0096326D01*
X0015586Y0083551D02*
X0016559Y0083551D01*
X0027200Y0094690D02*
X0031334Y0094690D01*
X0031334Y0094887D01*
X0005599Y0063895D02*
X0005570Y0063895D01*
X0005570Y0050568D02*
X0005641Y0050497D01*
X0006432Y0050497D01*
X0006432Y0046918D01*
X0006837Y0045941D01*
X0007584Y0045193D01*
X0008794Y0043983D01*
X0008794Y0041832D01*
X0009582Y0041044D01*
X0009582Y0034122D01*
X0009931Y0033278D01*
X0009931Y0031596D01*
X0010612Y0029952D01*
X0011871Y0028693D01*
X0012472Y0028444D01*
X0012155Y0028282D01*
X0011608Y0027885D01*
X0011131Y0027408D01*
X0010734Y0026861D01*
X0010427Y0026259D01*
X0010218Y0025617D01*
X0010113Y0024949D01*
X0010113Y0024907D01*
X0014109Y0024907D01*
X0014109Y0024316D01*
X0010113Y0024316D01*
X0010113Y0024274D01*
X0010218Y0023606D01*
X0010427Y0022964D01*
X0010734Y0022362D01*
X0011131Y0021815D01*
X0011608Y0021338D01*
X0012155Y0020941D01*
X0012757Y0020634D01*
X0013400Y0020425D01*
X0014067Y0020319D01*
X0014109Y0020319D01*
X0014109Y0024316D01*
X0014700Y0024316D01*
X0014700Y0020319D01*
X0014742Y0020319D01*
X0015410Y0020425D01*
X0016052Y0020634D01*
X0016654Y0020941D01*
X0017201Y0021338D01*
X0017678Y0021815D01*
X0018076Y0022362D01*
X0018382Y0022964D01*
X0018591Y0023606D01*
X0018697Y0024274D01*
X0018697Y0024316D01*
X0014700Y0024316D01*
X0014700Y0024907D01*
X0018697Y0024907D01*
X0018697Y0024949D01*
X0018663Y0025165D01*
X0019413Y0024415D01*
X0022574Y0024415D01*
X0022574Y0024115D01*
X0023190Y0023499D01*
X0023053Y0023362D01*
X0022857Y0023022D01*
X0022755Y0022643D01*
X0022755Y0021068D01*
X0025625Y0021068D01*
X0025625Y0020281D01*
X0022755Y0020281D01*
X0022755Y0018706D01*
X0022857Y0018327D01*
X0023053Y0017987D01*
X0023331Y0017709D01*
X0023671Y0017512D01*
X0024051Y0017411D01*
X0025625Y0017411D01*
X0025625Y0020281D01*
X0026412Y0020281D01*
X0026412Y0017411D01*
X0027987Y0017411D01*
X0028366Y0017512D01*
X0028707Y0017709D01*
X0028984Y0017987D01*
X0029025Y0018058D01*
X0029853Y0017230D01*
X0034385Y0017230D01*
X0034385Y0016355D01*
X0034185Y0016155D01*
X0033798Y0016541D01*
X0027688Y0016541D01*
X0027072Y0015925D01*
X0026935Y0016061D01*
X0026595Y0016258D01*
X0026215Y0016360D01*
X0023755Y0016360D01*
X0023755Y0013785D01*
X0023558Y0013785D01*
X0023558Y0016360D01*
X0021098Y0016360D01*
X0020718Y0016258D01*
X0020378Y0016061D01*
X0020100Y0015784D01*
X0019904Y0015443D01*
X0019802Y0015064D01*
X0019802Y0013785D01*
X0023558Y0013785D01*
X0023558Y0013588D01*
X0019802Y0013588D01*
X0019802Y0012309D01*
X0019904Y0011929D01*
X0019969Y0011816D01*
X0019904Y0011703D01*
X0019802Y0011324D01*
X0019802Y0010045D01*
X0023558Y0010045D01*
X0023558Y0013588D01*
X0023755Y0013588D01*
X0023755Y0012619D01*
X0023755Y0010045D01*
X0023558Y0010045D01*
X0023558Y0009848D01*
X0019802Y0009848D01*
X0019802Y0008887D01*
X0018538Y0008887D01*
X0018538Y0009490D01*
X0018059Y0010648D01*
X0017173Y0011534D01*
X0016491Y0011816D01*
X0017173Y0012099D01*
X0018059Y0012985D01*
X0018538Y0014143D01*
X0018538Y0015396D01*
X0018059Y0016553D01*
X0017173Y0017439D01*
X0016015Y0017919D01*
X0014762Y0017919D01*
X0013605Y0017439D01*
X0012719Y0016553D01*
X0012239Y0015396D01*
X0012239Y0014618D01*
X0011120Y0015738D01*
X0009419Y0016442D01*
X0007760Y0016442D01*
X0008401Y0017083D01*
X0008401Y0018990D01*
X0008957Y0019547D01*
X0008957Y0021057D01*
X0008401Y0021614D01*
X0008401Y0021892D01*
X0007761Y0022532D01*
X0008401Y0023172D01*
X0008401Y0026193D01*
X0008957Y0026750D01*
X0008957Y0028538D01*
X0008401Y0029095D01*
X0008401Y0031329D01*
X0007355Y0032374D01*
X0008401Y0033419D01*
X0008401Y0036742D01*
X0007367Y0037776D01*
X0007566Y0037975D01*
X0008401Y0038810D01*
X0008401Y0040320D01*
X0007333Y0041388D01*
X0006776Y0041388D01*
X0006498Y0041666D01*
X0005570Y0041666D01*
X0005570Y0050568D01*
X0005570Y0050137D02*
X0006432Y0050137D01*
X0006432Y0049154D02*
X0005570Y0049154D01*
X0005570Y0048171D02*
X0006432Y0048171D01*
X0006432Y0047188D02*
X0005570Y0047188D01*
X0005570Y0046206D02*
X0006727Y0046206D01*
X0007555Y0045223D02*
X0005570Y0045223D01*
X0005570Y0044240D02*
X0008538Y0044240D01*
X0008794Y0043257D02*
X0005570Y0043257D01*
X0005570Y0042274D02*
X0008794Y0042274D01*
X0009335Y0041292D02*
X0007429Y0041292D01*
X0008401Y0040309D02*
X0009582Y0040309D01*
X0009582Y0039326D02*
X0008401Y0039326D01*
X0007934Y0038343D02*
X0009582Y0038343D01*
X0009582Y0037361D02*
X0007782Y0037361D01*
X0008401Y0036378D02*
X0009582Y0036378D01*
X0009582Y0035395D02*
X0008401Y0035395D01*
X0008401Y0034412D02*
X0009582Y0034412D01*
X0009869Y0033430D02*
X0008401Y0033430D01*
X0007428Y0032447D02*
X0009931Y0032447D01*
X0009986Y0031464D02*
X0008265Y0031464D01*
X0008401Y0030481D02*
X0010393Y0030481D01*
X0011066Y0029499D02*
X0008401Y0029499D01*
X0008957Y0028516D02*
X0012299Y0028516D01*
X0011256Y0027533D02*
X0008957Y0027533D01*
X0008758Y0026550D02*
X0010575Y0026550D01*
X0010210Y0025568D02*
X0008401Y0025568D01*
X0008401Y0024585D02*
X0014109Y0024585D01*
X0014405Y0024612D02*
X0018342Y0020675D01*
X0021294Y0020675D01*
X0021294Y0018115D01*
X0023657Y0015753D01*
X0023657Y0013686D01*
X0023657Y0009946D01*
X0023558Y0010826D02*
X0023755Y0010826D01*
X0023755Y0011809D02*
X0023558Y0011809D01*
X0023558Y0012792D02*
X0023755Y0012792D01*
X0023558Y0013774D02*
X0018386Y0013774D01*
X0018538Y0014757D02*
X0019802Y0014757D01*
X0020075Y0015740D02*
X0018396Y0015740D01*
X0017889Y0016723D02*
X0034385Y0016723D01*
X0034779Y0013686D02*
X0037830Y0016738D01*
X0034779Y0013686D02*
X0030743Y0013686D01*
X0029378Y0017705D02*
X0028701Y0017705D01*
X0026412Y0017705D02*
X0025625Y0017705D01*
X0025625Y0018688D02*
X0026412Y0018688D01*
X0026412Y0019671D02*
X0025625Y0019671D01*
X0025625Y0020654D02*
X0016091Y0020654D01*
X0014700Y0020654D02*
X0014109Y0020654D01*
X0014109Y0021636D02*
X0014700Y0021636D01*
X0014700Y0022619D02*
X0014109Y0022619D01*
X0014109Y0023602D02*
X0014700Y0023602D01*
X0014700Y0024585D02*
X0019243Y0024585D01*
X0018590Y0023602D02*
X0023087Y0023602D01*
X0022755Y0022619D02*
X0018207Y0022619D01*
X0017500Y0021636D02*
X0022755Y0021636D01*
X0021294Y0020675D02*
X0026019Y0020675D01*
X0022755Y0019671D02*
X0008957Y0019671D01*
X0008957Y0020654D02*
X0012718Y0020654D01*
X0011310Y0021636D02*
X0008401Y0021636D01*
X0007848Y0022619D02*
X0010603Y0022619D01*
X0010220Y0023602D02*
X0008401Y0023602D01*
X0008401Y0018688D02*
X0022760Y0018688D01*
X0023337Y0017705D02*
X0016530Y0017705D01*
X0014248Y0017705D02*
X0008401Y0017705D01*
X0008041Y0016723D02*
X0012888Y0016723D01*
X0012382Y0015740D02*
X0011115Y0015740D01*
X0012100Y0014757D02*
X0012239Y0014757D01*
X0016509Y0011809D02*
X0019965Y0011809D01*
X0019802Y0012792D02*
X0017866Y0012792D01*
X0017881Y0010826D02*
X0019802Y0010826D01*
X0019802Y0009843D02*
X0018392Y0009843D01*
X0023558Y0014757D02*
X0023755Y0014757D01*
X0023755Y0015740D02*
X0023558Y0015740D01*
X0030743Y0009946D02*
X0036944Y0009946D01*
X0037830Y0010832D01*
X0044129Y0010832D02*
X0050035Y0010832D01*
X0052797Y0010826D02*
X0052802Y0010826D01*
X0052802Y0009843D02*
X0052615Y0009843D01*
X0052620Y0011809D02*
X0052802Y0011809D01*
X0052802Y0012792D02*
X0051981Y0012792D01*
X0052802Y0013774D02*
X0047096Y0013774D01*
X0047574Y0014757D02*
X0052802Y0014757D01*
X0053112Y0015740D02*
X0047574Y0015740D01*
X0047574Y0018688D02*
X0054172Y0018688D01*
X0053487Y0019671D02*
X0047105Y0019671D01*
X0046098Y0020654D02*
X0053104Y0020654D01*
X0056983Y0022619D02*
X0057968Y0022619D01*
X0057968Y0023602D02*
X0056983Y0023602D01*
X0056983Y0024585D02*
X0057968Y0024585D01*
X0057968Y0025568D02*
X0056983Y0025568D01*
X0059846Y0025568D02*
X0060468Y0025568D01*
X0051511Y0028516D02*
X0050527Y0028516D01*
X0050527Y0029499D02*
X0051511Y0029499D01*
X0051511Y0030481D02*
X0050527Y0030481D01*
X0050527Y0031464D02*
X0051511Y0031464D01*
X0056727Y0043903D02*
X0025822Y0043903D01*
X0025625Y0044100D01*
X0023544Y0042274D02*
X0021788Y0042274D01*
X0021802Y0043257D02*
X0022984Y0043257D01*
X0023936Y0041292D02*
X0021158Y0041292D01*
X0018932Y0041292D02*
X0018145Y0041292D01*
X0018145Y0042274D02*
X0018932Y0042274D01*
X0018932Y0043257D02*
X0018145Y0043257D01*
X0015919Y0041292D02*
X0015144Y0041292D01*
X0014897Y0040309D02*
X0023936Y0040309D01*
X0022869Y0039572D02*
X0027200Y0039572D01*
X0033105Y0039572D01*
X0032712Y0039326D02*
X0027594Y0039326D01*
X0027594Y0039178D02*
X0027594Y0039966D01*
X0032712Y0039966D01*
X0032712Y0039178D01*
X0030464Y0039178D01*
X0027594Y0039178D01*
X0026806Y0039326D02*
X0014897Y0039326D01*
X0014897Y0038343D02*
X0023936Y0038343D01*
X0024001Y0037361D02*
X0014897Y0037361D01*
X0016697Y0036378D02*
X0024395Y0036378D01*
X0021085Y0035395D02*
X0017821Y0035395D01*
X0018448Y0034412D02*
X0020351Y0034412D01*
X0020107Y0033430D02*
X0018855Y0033430D01*
X0018878Y0032447D02*
X0020222Y0032447D01*
X0020772Y0031464D02*
X0018823Y0031464D01*
X0019471Y0030481D02*
X0024082Y0030481D01*
X0023028Y0029499D02*
X0020454Y0029499D01*
X0020310Y0026580D02*
X0014405Y0032486D01*
X0020310Y0026580D02*
X0026019Y0026580D01*
X0032318Y0026580D02*
X0032318Y0020675D01*
X0027200Y0033273D02*
X0022869Y0033273D01*
X0076983Y0024585D02*
X0077968Y0024585D01*
X0077968Y0025568D02*
X0077281Y0025568D01*
X0077594Y0026550D02*
X0080164Y0026550D01*
X0079846Y0025568D02*
X0081042Y0025568D01*
X0079759Y0027533D02*
X0077594Y0027533D01*
X0077594Y0028516D02*
X0079759Y0028516D01*
X0079365Y0029499D02*
X0079365Y0029499D01*
X0081409Y0031464D02*
X0085015Y0031464D01*
X0085015Y0032447D02*
X0081409Y0032447D01*
X0081409Y0032092D02*
X0081334Y0032092D01*
X0081334Y0032092D01*
X0081409Y0032092D01*
X0081409Y0033430D02*
X0085015Y0033430D01*
X0089912Y0036127D02*
X0089833Y0036423D01*
X0089912Y0036718D01*
X0091865Y0036718D01*
X0091865Y0036127D01*
X0089912Y0036127D01*
X0089845Y0036378D02*
X0091865Y0036378D01*
X0092456Y0036378D02*
X0094476Y0036378D01*
X0094488Y0036423D02*
X0094409Y0036127D01*
X0092456Y0036127D01*
X0092456Y0036718D01*
X0094409Y0036718D01*
X0094488Y0036423D01*
X0094916Y0036226D02*
X0095113Y0036029D01*
X0095113Y0032092D01*
X0095113Y0028942D01*
X0096098Y0027958D01*
X0097082Y0028942D01*
X0097082Y0032092D01*
X0097082Y0035045D01*
X0097475Y0035438D01*
X0099125Y0033454D02*
X0099247Y0033454D01*
X0099626Y0033556D01*
X0099966Y0033752D01*
X0100011Y0033797D01*
X0100011Y0021856D01*
X0099408Y0021856D01*
X0098250Y0021376D01*
X0097364Y0020490D01*
X0097082Y0019808D01*
X0096799Y0020490D01*
X0095913Y0021376D01*
X0094756Y0021856D01*
X0093503Y0021856D01*
X0092345Y0021376D01*
X0092149Y0021180D01*
X0092149Y0022667D01*
X0091949Y0023149D01*
X0095310Y0026510D01*
X0095310Y0028828D01*
X0095861Y0028828D01*
X0096098Y0028891D01*
X0096334Y0028828D01*
X0097082Y0028828D01*
X0097829Y0028828D01*
X0098209Y0028930D01*
X0098549Y0029126D01*
X0098827Y0029404D01*
X0099023Y0029744D01*
X0099125Y0030124D01*
X0099125Y0032092D01*
X0099125Y0033454D01*
X0099125Y0033430D02*
X0100011Y0033430D01*
X0100011Y0032447D02*
X0099125Y0032447D01*
X0099125Y0032092D02*
X0099050Y0032092D01*
X0099050Y0032092D01*
X0099125Y0032092D01*
X0099125Y0031464D02*
X0100011Y0031464D01*
X0100011Y0030481D02*
X0099125Y0030481D01*
X0098882Y0029499D02*
X0100011Y0029499D01*
X0100011Y0028516D02*
X0095310Y0028516D01*
X0095310Y0027533D02*
X0100011Y0027533D01*
X0100011Y0026550D02*
X0095310Y0026550D01*
X0094368Y0025568D02*
X0100011Y0025568D01*
X0100011Y0024585D02*
X0093385Y0024585D01*
X0092402Y0023602D02*
X0100011Y0023602D01*
X0100011Y0022619D02*
X0092149Y0022619D01*
X0092149Y0021636D02*
X0092973Y0021636D01*
X0095285Y0021636D02*
X0098879Y0021636D01*
X0097528Y0020654D02*
X0096636Y0020654D01*
X0093503Y0015556D02*
X0092345Y0016036D01*
X0091459Y0016922D01*
X0090979Y0018080D01*
X0090979Y0018633D01*
X0090123Y0017776D01*
X0088405Y0017064D01*
X0086546Y0017064D01*
X0084828Y0017776D01*
X0084483Y0018121D01*
X0084483Y0015841D01*
X0081903Y0013260D01*
X0082149Y0012667D01*
X0082149Y0010808D01*
X0081437Y0009090D01*
X0081234Y0008887D01*
X0083994Y0008887D01*
X0083633Y0009383D01*
X0083312Y0010013D01*
X0083094Y0010686D01*
X0083005Y0011245D01*
X0086983Y0011245D01*
X0086983Y0012230D01*
X0086983Y0016208D01*
X0086424Y0016119D01*
X0085751Y0015901D01*
X0085121Y0015580D01*
X0084549Y0015164D01*
X0084049Y0014664D01*
X0083633Y0014092D01*
X0083312Y0013462D01*
X0083094Y0012789D01*
X0083005Y0012230D01*
X0086983Y0012230D01*
X0087968Y0012230D01*
X0087968Y0016208D01*
X0088527Y0016119D01*
X0089200Y0015901D01*
X0089830Y0015580D01*
X0090402Y0015164D01*
X0090902Y0014664D01*
X0091317Y0014092D01*
X0091638Y0013462D01*
X0091857Y0012789D01*
X0091946Y0012230D01*
X0087968Y0012230D01*
X0087968Y0011245D01*
X0091946Y0011245D01*
X0091857Y0010686D01*
X0091638Y0010013D01*
X0091317Y0009383D01*
X0090957Y0008887D01*
X0093469Y0008887D01*
X0093160Y0009196D01*
X0092456Y0010896D01*
X0092456Y0012736D01*
X0093160Y0014437D01*
X0094280Y0015556D01*
X0093503Y0015556D01*
X0093060Y0015740D02*
X0089515Y0015740D01*
X0087968Y0015740D02*
X0086983Y0015740D01*
X0086983Y0014757D02*
X0087968Y0014757D01*
X0087968Y0013774D02*
X0086983Y0013774D01*
X0086983Y0012792D02*
X0087968Y0012792D01*
X0087968Y0011809D02*
X0092456Y0011809D01*
X0092479Y0012792D02*
X0091856Y0012792D01*
X0091479Y0013774D02*
X0092886Y0013774D01*
X0093481Y0014757D02*
X0090809Y0014757D01*
X0091658Y0016723D02*
X0084483Y0016723D01*
X0084483Y0017705D02*
X0084998Y0017705D01*
X0085436Y0015740D02*
X0084383Y0015740D01*
X0084142Y0014757D02*
X0083400Y0014757D01*
X0083472Y0013774D02*
X0082417Y0013774D01*
X0082097Y0012792D02*
X0083095Y0012792D01*
X0082149Y0011809D02*
X0086983Y0011809D01*
X0083072Y0010826D02*
X0082149Y0010826D01*
X0081749Y0009843D02*
X0083399Y0009843D01*
X0077475Y0011738D02*
X0077475Y0011895D01*
X0082318Y0016738D01*
X0082318Y0023234D01*
X0085664Y0026580D01*
X0089601Y0026580D01*
X0091176Y0028155D01*
X0091176Y0032092D01*
X0093145Y0032092D02*
X0093145Y0027407D01*
X0087475Y0021738D01*
X0089953Y0017705D02*
X0091134Y0017705D01*
X0091879Y0010826D02*
X0092485Y0010826D01*
X0092892Y0009843D02*
X0091552Y0009843D01*
X0080153Y0017705D02*
X0079457Y0017705D01*
X0077968Y0022619D02*
X0076983Y0022619D01*
X0076983Y0023602D02*
X0077968Y0023602D01*
X0086846Y0028549D02*
X0087239Y0028942D01*
X0097082Y0028828D02*
X0097082Y0029730D01*
X0097082Y0028828D01*
X0097082Y0029499D02*
X0097082Y0029499D01*
X0097082Y0029730D02*
X0097082Y0029730D01*
X0097082Y0040753D02*
X0097082Y0046068D01*
X0098066Y0047052D01*
X0098066Y0050989D01*
X0093342Y0055320D02*
X0093145Y0055123D01*
X0097672Y0057999D02*
X0098460Y0057999D01*
X0098066Y0057289D02*
X0098066Y0061423D01*
X0097672Y0059964D02*
X0098460Y0059964D01*
X0098460Y0058981D02*
X0097672Y0058981D01*
X0100011Y0060947D02*
X0091565Y0060947D01*
X0088420Y0061029D02*
X0082318Y0061029D01*
X0093637Y0069792D02*
X0094121Y0069792D01*
D33*
X0091373Y0064375D03*
X0087633Y0066147D03*
X0087042Y0058076D03*
X0090586Y0058076D03*
X0093342Y0055320D03*
X0088617Y0050005D03*
X0083302Y0044887D03*
X0083302Y0041541D03*
X0083302Y0039178D03*
X0076413Y0036423D03*
X0072475Y0036423D03*
X0064601Y0036423D03*
X0065586Y0044297D03*
X0076019Y0045084D03*
X0090192Y0036423D03*
X0094129Y0036423D03*
X0098066Y0047052D03*
X0098066Y0061423D03*
X0099050Y0065950D03*
X0094129Y0076974D03*
X0094916Y0083667D03*
X0096098Y0086816D03*
X0099050Y0089572D03*
X0091373Y0087801D03*
X0085074Y0087801D03*
X0081137Y0086816D03*
X0081137Y0083667D03*
X0074641Y0092328D03*
X0070901Y0087013D03*
X0067554Y0088391D03*
X0063814Y0085438D03*
X0050822Y0079730D03*
X0046688Y0081108D03*
X0049838Y0085438D03*
X0050428Y0091344D03*
X0050428Y0094493D03*
X0047082Y0096462D03*
X0050428Y0098037D03*
X0034090Y0097446D03*
X0031334Y0094887D03*
X0027200Y0099415D03*
X0019326Y0101383D03*
X0008499Y0094887D03*
X0034090Y0081501D03*
X0043735Y0072840D03*
X0046688Y0066738D03*
X0050822Y0070871D03*
X0043932Y0061226D03*
X0037042Y0063982D03*
X0031137Y0063982D03*
X0037042Y0069887D03*
X0050625Y0057486D03*
X0050822Y0050989D03*
X0046885Y0047052D03*
X0040979Y0047249D03*
X0035074Y0047052D03*
X0037239Y0039572D03*
X0040586Y0030714D03*
X0037042Y0026580D03*
X0043932Y0023824D03*
X0050035Y0010832D03*
X0022869Y0033273D03*
X0018342Y0037407D03*
X0022869Y0039572D03*
X0025625Y0044100D03*
X0008499Y0037604D03*
X0006727Y0060241D03*
X0049050Y0037801D03*
X0051216Y0037801D03*
X0051609Y0040360D03*
X0064601Y0060045D03*
X0064601Y0067919D03*
X0072475Y0067919D03*
X0072475Y0060045D03*
X0092751Y0096856D03*
X0074838Y0102171D03*
X0074641Y0098627D03*
X0098066Y0022643D03*
X0018342Y0011816D03*
D34*
X0015389Y0008864D03*
X0015389Y0014769D03*
X0047672Y0026974D03*
X0064601Y0032486D03*
X0078381Y0027958D03*
X0082909Y0028155D03*
X0094129Y0018706D03*
X0100035Y0018706D03*
X0096098Y0027958D03*
X0029759Y0050989D03*
X0029562Y0057289D03*
X0015389Y0097446D03*
X0015389Y0103352D03*
X0094129Y0093509D03*
X0100035Y0093509D03*
D35*
X0029562Y0057289D02*
X0025231Y0057289D01*
X0018342Y0057289D01*
X0017751Y0057879D01*
X0018538Y0050989D02*
X0025231Y0050989D01*
X0029759Y0050989D01*
X0018538Y0050989D02*
X0017948Y0050399D01*
X0017751Y0050399D01*
X0017751Y0045084D01*
X0018538Y0044297D01*
X0012239Y0044297D02*
X0009090Y0047446D01*
X0009090Y0054139D01*
X0012239Y0044297D02*
X0012239Y0034651D01*
X0014405Y0032486D01*
D36*
X0047672Y0026974D02*
X0051019Y0030320D01*
X0051019Y0032486D01*
X0058499Y0032486D02*
X0064601Y0032486D01*
D37*
X0064601Y0029730D01*
X0065783Y0028549D01*
X0069326Y0028549D01*
X0070704Y0028549D01*
X0082909Y0028155D02*
X0083302Y0028549D01*
X0086846Y0028549D01*
X0088617Y0028549D01*
X0055546Y0040360D02*
X0051609Y0040360D01*
X0051216Y0037801D02*
X0049050Y0037801D01*
X0051019Y0037604D02*
X0051216Y0037801D01*
X0051019Y0037604D02*
X0051019Y0032486D01*
D38*
X0008499Y0011816D03*
X0097082Y0011816D03*
X0097082Y0100399D03*
X0008499Y0100399D03*
D39*
X0069523Y0032092D02*
X0069523Y0028745D01*
X0070704Y0028549D02*
X0071491Y0029336D01*
X0071491Y0032092D01*
X0087239Y0032092D02*
X0087239Y0028942D01*
X0088617Y0028549D02*
X0089208Y0029139D01*
X0089208Y0032092D01*
M02*
