G75*
%MOIN*%
%OFA0B0*%
%FSLAX25Y25*%
%IPPOS*%
%LPD*%
%AMOC8*
5,1,8,0,0,1.08239X$1,22.5*
%
%ADD10C,0.00000*%
%ADD11C,0.01200*%
%ADD12C,0.01000*%
%ADD13C,0.00800*%
%ADD14R,0.78740X0.11811*%
%ADD15C,0.00984*%
%ADD16C,0.00600*%
%ADD17C,0.00591*%
%ADD18C,0.00787*%
D10*
X0009483Y0006895D02*
X0096098Y0006895D01*
X0096250Y0006897D01*
X0096402Y0006903D01*
X0096554Y0006913D01*
X0096705Y0006926D01*
X0096856Y0006944D01*
X0097007Y0006965D01*
X0097157Y0006991D01*
X0097306Y0007020D01*
X0097455Y0007053D01*
X0097602Y0007090D01*
X0097749Y0007130D01*
X0097894Y0007175D01*
X0098038Y0007223D01*
X0098181Y0007275D01*
X0098323Y0007330D01*
X0098463Y0007389D01*
X0098602Y0007452D01*
X0098739Y0007518D01*
X0098874Y0007588D01*
X0099007Y0007661D01*
X0099138Y0007738D01*
X0099268Y0007818D01*
X0099395Y0007901D01*
X0099520Y0007987D01*
X0099643Y0008077D01*
X0099763Y0008170D01*
X0099881Y0008266D01*
X0099997Y0008365D01*
X0100110Y0008467D01*
X0100220Y0008571D01*
X0100328Y0008679D01*
X0100432Y0008789D01*
X0100534Y0008902D01*
X0100633Y0009018D01*
X0100729Y0009136D01*
X0100822Y0009256D01*
X0100912Y0009379D01*
X0100998Y0009504D01*
X0101081Y0009631D01*
X0101161Y0009761D01*
X0101238Y0009892D01*
X0101311Y0010025D01*
X0101381Y0010160D01*
X0101447Y0010297D01*
X0101510Y0010436D01*
X0101569Y0010576D01*
X0101624Y0010718D01*
X0101676Y0010861D01*
X0101724Y0011005D01*
X0101769Y0011150D01*
X0101809Y0011297D01*
X0101846Y0011444D01*
X0101879Y0011593D01*
X0101908Y0011742D01*
X0101934Y0011892D01*
X0101955Y0012043D01*
X0101973Y0012194D01*
X0101986Y0012345D01*
X0101996Y0012497D01*
X0102002Y0012649D01*
X0102004Y0012801D01*
X0102003Y0012801D02*
X0102003Y0099415D01*
X0102004Y0099415D02*
X0102002Y0099567D01*
X0101996Y0099719D01*
X0101986Y0099871D01*
X0101973Y0100022D01*
X0101955Y0100173D01*
X0101934Y0100324D01*
X0101908Y0100474D01*
X0101879Y0100623D01*
X0101846Y0100772D01*
X0101809Y0100919D01*
X0101769Y0101066D01*
X0101724Y0101211D01*
X0101676Y0101355D01*
X0101624Y0101498D01*
X0101569Y0101640D01*
X0101510Y0101780D01*
X0101447Y0101919D01*
X0101381Y0102056D01*
X0101311Y0102191D01*
X0101238Y0102324D01*
X0101161Y0102455D01*
X0101081Y0102585D01*
X0100998Y0102712D01*
X0100912Y0102837D01*
X0100822Y0102960D01*
X0100729Y0103080D01*
X0100633Y0103198D01*
X0100534Y0103314D01*
X0100432Y0103427D01*
X0100328Y0103537D01*
X0100220Y0103645D01*
X0100110Y0103749D01*
X0099997Y0103851D01*
X0099881Y0103950D01*
X0099763Y0104046D01*
X0099643Y0104139D01*
X0099520Y0104229D01*
X0099395Y0104315D01*
X0099268Y0104398D01*
X0099138Y0104478D01*
X0099007Y0104555D01*
X0098874Y0104628D01*
X0098739Y0104698D01*
X0098602Y0104764D01*
X0098463Y0104827D01*
X0098323Y0104886D01*
X0098181Y0104941D01*
X0098038Y0104993D01*
X0097894Y0105041D01*
X0097749Y0105086D01*
X0097602Y0105126D01*
X0097455Y0105163D01*
X0097306Y0105196D01*
X0097157Y0105225D01*
X0097007Y0105251D01*
X0096856Y0105272D01*
X0096705Y0105290D01*
X0096554Y0105303D01*
X0096402Y0105313D01*
X0096250Y0105319D01*
X0096098Y0105321D01*
X0096098Y0105320D02*
X0009483Y0105320D01*
X0009483Y0105321D02*
X0009331Y0105319D01*
X0009179Y0105313D01*
X0009027Y0105303D01*
X0008876Y0105290D01*
X0008725Y0105272D01*
X0008574Y0105251D01*
X0008424Y0105225D01*
X0008275Y0105196D01*
X0008126Y0105163D01*
X0007979Y0105126D01*
X0007832Y0105086D01*
X0007687Y0105041D01*
X0007543Y0104993D01*
X0007400Y0104941D01*
X0007258Y0104886D01*
X0007118Y0104827D01*
X0006979Y0104764D01*
X0006842Y0104698D01*
X0006707Y0104628D01*
X0006574Y0104555D01*
X0006443Y0104478D01*
X0006313Y0104398D01*
X0006186Y0104315D01*
X0006061Y0104229D01*
X0005938Y0104139D01*
X0005818Y0104046D01*
X0005700Y0103950D01*
X0005584Y0103851D01*
X0005471Y0103749D01*
X0005361Y0103645D01*
X0005253Y0103537D01*
X0005149Y0103427D01*
X0005047Y0103314D01*
X0004948Y0103198D01*
X0004852Y0103080D01*
X0004759Y0102960D01*
X0004669Y0102837D01*
X0004583Y0102712D01*
X0004500Y0102585D01*
X0004420Y0102455D01*
X0004343Y0102324D01*
X0004270Y0102191D01*
X0004200Y0102056D01*
X0004134Y0101919D01*
X0004071Y0101780D01*
X0004012Y0101640D01*
X0003957Y0101498D01*
X0003905Y0101355D01*
X0003857Y0101211D01*
X0003812Y0101066D01*
X0003772Y0100919D01*
X0003735Y0100772D01*
X0003702Y0100623D01*
X0003673Y0100474D01*
X0003647Y0100324D01*
X0003626Y0100173D01*
X0003608Y0100022D01*
X0003595Y0099871D01*
X0003585Y0099719D01*
X0003579Y0099567D01*
X0003577Y0099415D01*
X0003578Y0099415D02*
X0003578Y0012801D01*
X0003577Y0012801D02*
X0003579Y0012649D01*
X0003585Y0012497D01*
X0003595Y0012345D01*
X0003608Y0012194D01*
X0003626Y0012043D01*
X0003647Y0011892D01*
X0003673Y0011742D01*
X0003702Y0011593D01*
X0003735Y0011444D01*
X0003772Y0011297D01*
X0003812Y0011150D01*
X0003857Y0011005D01*
X0003905Y0010861D01*
X0003957Y0010718D01*
X0004012Y0010576D01*
X0004071Y0010436D01*
X0004134Y0010297D01*
X0004200Y0010160D01*
X0004270Y0010025D01*
X0004343Y0009892D01*
X0004420Y0009761D01*
X0004500Y0009631D01*
X0004583Y0009504D01*
X0004669Y0009379D01*
X0004759Y0009256D01*
X0004852Y0009136D01*
X0004948Y0009018D01*
X0005047Y0008902D01*
X0005149Y0008789D01*
X0005253Y0008679D01*
X0005361Y0008571D01*
X0005471Y0008467D01*
X0005584Y0008365D01*
X0005700Y0008266D01*
X0005818Y0008170D01*
X0005938Y0008077D01*
X0006061Y0007987D01*
X0006186Y0007901D01*
X0006313Y0007818D01*
X0006443Y0007738D01*
X0006574Y0007661D01*
X0006707Y0007588D01*
X0006842Y0007518D01*
X0006979Y0007452D01*
X0007118Y0007389D01*
X0007258Y0007330D01*
X0007400Y0007275D01*
X0007543Y0007223D01*
X0007687Y0007175D01*
X0007832Y0007130D01*
X0007979Y0007090D01*
X0008126Y0007053D01*
X0008275Y0007020D01*
X0008424Y0006991D01*
X0008574Y0006965D01*
X0008725Y0006944D01*
X0008876Y0006926D01*
X0009027Y0006913D01*
X0009179Y0006903D01*
X0009331Y0006897D01*
X0009483Y0006895D01*
D11*
X0023592Y0056708D02*
X0025818Y0056708D01*
X0026932Y0057821D01*
X0022479Y0062274D01*
X0022479Y0057821D01*
X0023592Y0056708D01*
X0026932Y0057821D02*
X0026932Y0062274D01*
X0025818Y0063387D01*
X0023592Y0063387D01*
X0022479Y0062274D01*
X0029729Y0056708D02*
X0034182Y0056708D01*
X0031955Y0056708D02*
X0031955Y0063387D01*
X0034182Y0061161D01*
X0036979Y0060047D02*
X0041432Y0060047D01*
X0044229Y0060047D02*
X0044229Y0057821D01*
X0045343Y0056708D01*
X0047569Y0056708D01*
X0048683Y0057821D01*
X0048683Y0060047D02*
X0046456Y0061161D01*
X0045343Y0061161D01*
X0044229Y0060047D01*
X0044229Y0063387D02*
X0048683Y0063387D01*
X0048683Y0060047D01*
X0051480Y0056708D02*
X0055933Y0056708D01*
X0053706Y0056708D02*
X0053706Y0063387D01*
X0055933Y0061161D01*
X0058730Y0062274D02*
X0063183Y0057821D01*
X0062070Y0056708D01*
X0059843Y0056708D01*
X0058730Y0057821D01*
X0058730Y0062274D01*
X0059843Y0063387D01*
X0062070Y0063387D01*
X0063183Y0062274D01*
X0063183Y0057821D01*
X0065980Y0056708D02*
X0070433Y0056708D01*
X0065980Y0061161D01*
X0065980Y0062274D01*
X0067094Y0063387D01*
X0069320Y0063387D01*
X0070433Y0062274D01*
X0080481Y0063387D02*
X0080481Y0056708D01*
X0082707Y0058934D01*
X0084934Y0056708D01*
X0084934Y0063387D01*
X0087731Y0061161D02*
X0087731Y0056708D01*
X0087731Y0060047D02*
X0092184Y0060047D01*
X0092184Y0061161D02*
X0089958Y0063387D01*
X0087731Y0061161D01*
X0092184Y0061161D02*
X0092184Y0056708D01*
X0096095Y0057821D02*
X0096095Y0063387D01*
X0097208Y0063387D02*
X0094981Y0063387D01*
X0096095Y0057821D02*
X0097208Y0056708D01*
X0098321Y0056708D01*
X0099435Y0057821D01*
D12*
X0099535Y0052663D02*
X0099535Y0049716D01*
X0098552Y0048734D01*
X0097570Y0049716D01*
X0096587Y0048734D01*
X0095605Y0049716D01*
X0095605Y0052663D01*
X0093191Y0052663D02*
X0093191Y0049716D01*
X0092208Y0048734D01*
X0091226Y0049716D01*
X0090243Y0048734D01*
X0089261Y0049716D01*
X0089261Y0052663D01*
X0086847Y0052663D02*
X0086847Y0049716D01*
X0085864Y0048734D01*
X0084882Y0049716D01*
X0083899Y0048734D01*
X0082917Y0049716D01*
X0082917Y0052663D01*
X0080503Y0049716D02*
X0079520Y0049716D01*
X0079520Y0048734D01*
X0080503Y0048734D01*
X0080503Y0049716D01*
X0076348Y0049716D02*
X0076348Y0053646D01*
X0075366Y0052663D02*
X0077331Y0052663D01*
X0076348Y0049716D02*
X0075366Y0048734D01*
X0073101Y0049716D02*
X0073101Y0051681D01*
X0072119Y0052663D01*
X0069171Y0052663D01*
X0066757Y0052663D02*
X0063810Y0052663D01*
X0062827Y0051681D01*
X0062827Y0049716D01*
X0063810Y0048734D01*
X0066757Y0048734D01*
X0066757Y0046769D02*
X0066757Y0052663D01*
X0069171Y0048734D02*
X0072119Y0048734D01*
X0073101Y0049716D01*
X0060413Y0051681D02*
X0056483Y0051681D01*
X0054069Y0052663D02*
X0054069Y0048734D01*
X0052104Y0048734D02*
X0052104Y0051681D01*
X0051122Y0052663D01*
X0050139Y0051681D01*
X0050139Y0048734D01*
X0047725Y0049716D02*
X0047725Y0051681D01*
X0046743Y0052663D01*
X0044778Y0052663D01*
X0043795Y0051681D01*
X0043795Y0050699D01*
X0047725Y0050699D01*
X0047725Y0049716D02*
X0046743Y0048734D01*
X0044778Y0048734D01*
X0041381Y0048734D02*
X0040399Y0048734D01*
X0040399Y0049716D01*
X0041381Y0049716D01*
X0041381Y0048734D01*
X0038209Y0049716D02*
X0038209Y0051681D01*
X0037227Y0052663D01*
X0034279Y0052663D01*
X0031865Y0051681D02*
X0031865Y0049716D01*
X0030883Y0048734D01*
X0028918Y0048734D01*
X0027935Y0049716D01*
X0027935Y0051681D01*
X0028918Y0052663D01*
X0030883Y0052663D01*
X0031865Y0051681D01*
X0034279Y0048734D02*
X0037227Y0048734D01*
X0038209Y0049716D01*
X0025521Y0048734D02*
X0025521Y0052663D01*
X0024539Y0052663D01*
X0023556Y0051681D01*
X0022574Y0052663D01*
X0021591Y0051681D01*
X0021591Y0048734D01*
X0023556Y0048734D02*
X0023556Y0051681D01*
X0052104Y0051681D02*
X0053087Y0052663D01*
X0054069Y0052663D01*
X0057466Y0054628D02*
X0057466Y0048734D01*
X0060413Y0051681D02*
X0057466Y0054628D01*
D13*
X0049728Y0045279D02*
X0047371Y0045279D01*
X0046585Y0044493D01*
X0046585Y0042921D01*
X0047371Y0042135D01*
X0049728Y0042135D01*
X0049728Y0040563D02*
X0049728Y0045279D01*
X0048157Y0042135D02*
X0046585Y0040563D01*
X0044653Y0041349D02*
X0044653Y0042921D01*
X0043867Y0043707D01*
X0042295Y0043707D01*
X0041509Y0042921D01*
X0041509Y0042135D01*
X0044653Y0042135D01*
X0044653Y0041349D02*
X0043867Y0040563D01*
X0042295Y0040563D01*
X0039578Y0043707D02*
X0038006Y0040563D01*
X0036434Y0043707D01*
X0034503Y0041349D02*
X0033717Y0041349D01*
X0033717Y0040563D01*
X0034503Y0040563D01*
X0034503Y0041349D01*
X0026890Y0040563D02*
X0023746Y0040563D01*
X0025318Y0040563D02*
X0025318Y0045279D01*
X0026890Y0043707D01*
X0056675Y0043707D02*
X0057461Y0043707D01*
X0059033Y0042135D01*
X0059033Y0040563D02*
X0059033Y0043707D01*
X0060964Y0042921D02*
X0060964Y0042135D01*
X0064108Y0042135D01*
X0064108Y0042921D02*
X0063322Y0043707D01*
X0061750Y0043707D01*
X0060964Y0042921D01*
X0061750Y0040563D02*
X0063322Y0040563D01*
X0064108Y0041349D01*
X0064108Y0042921D01*
X0065920Y0043707D02*
X0067492Y0043707D01*
X0066706Y0044493D02*
X0066706Y0041349D01*
X0065920Y0040563D01*
X0069423Y0041349D02*
X0070209Y0040563D01*
X0072567Y0040563D01*
X0074498Y0041349D02*
X0074498Y0042921D01*
X0075284Y0043707D01*
X0076856Y0043707D01*
X0077642Y0042921D01*
X0077642Y0041349D01*
X0076856Y0040563D01*
X0075284Y0040563D01*
X0074498Y0041349D01*
X0072567Y0038991D02*
X0072567Y0043707D01*
X0070209Y0043707D01*
X0069423Y0042921D01*
X0069423Y0041349D01*
X0079573Y0040563D02*
X0081931Y0040563D01*
X0082717Y0041349D01*
X0082717Y0042921D01*
X0081931Y0043707D01*
X0079573Y0043707D01*
X0084529Y0040563D02*
X0086101Y0040563D01*
X0085315Y0040563D02*
X0085315Y0043707D01*
X0086101Y0043707D01*
X0085315Y0045279D02*
X0085315Y0046065D01*
X0088032Y0042921D02*
X0088032Y0040563D01*
X0088032Y0042921D02*
X0088818Y0043707D01*
X0091176Y0043707D01*
X0091176Y0040563D01*
X0092987Y0040563D02*
X0094559Y0040563D01*
X0093773Y0040563D02*
X0093773Y0043707D01*
X0094559Y0043707D01*
X0093773Y0045279D02*
X0093773Y0046065D01*
X0096491Y0042921D02*
X0096491Y0040563D01*
X0098063Y0040563D02*
X0098063Y0042921D01*
X0097277Y0043707D01*
X0096491Y0042921D01*
X0098063Y0042921D02*
X0098849Y0043707D01*
X0099635Y0043707D01*
X0099635Y0040563D01*
D14*
X0060664Y0032486D03*
D15*
X0046885Y0066541D02*
X0042948Y0066541D01*
X0042948Y0075202D01*
X0046885Y0075202D01*
X0046885Y0066541D01*
X0039011Y0066541D02*
X0035074Y0066541D01*
X0035074Y0075202D01*
X0039011Y0075202D01*
X0039011Y0066541D01*
X0039011Y0075202D02*
X0042948Y0075202D01*
X0046885Y0075202D02*
X0048460Y0075202D01*
X0048460Y0083076D01*
X0053972Y0084257D01*
X0056727Y0093706D01*
X0054365Y0094493D01*
X0052003Y0087013D01*
X0048460Y0086619D01*
X0048460Y0083076D01*
X0048460Y0086619D02*
X0041767Y0086619D01*
X0041767Y0088982D01*
X0046885Y0088982D01*
X0046885Y0097643D01*
X0040979Y0097643D01*
X0035074Y0097643D01*
X0035074Y0088982D01*
X0039798Y0088982D01*
X0039798Y0086619D01*
X0033499Y0086619D01*
X0029956Y0087013D01*
X0030743Y0094887D01*
X0028381Y0095281D01*
X0027200Y0084257D01*
X0033105Y0083076D01*
X0033499Y0086619D02*
X0033499Y0075202D01*
X0035074Y0075202D01*
X0039798Y0086619D02*
X0041767Y0086619D01*
X0041767Y0088982D02*
X0039798Y0088982D01*
X0036649Y0093312D02*
X0036651Y0093391D01*
X0036657Y0093470D01*
X0036667Y0093549D01*
X0036681Y0093627D01*
X0036698Y0093704D01*
X0036720Y0093780D01*
X0036745Y0093855D01*
X0036775Y0093928D01*
X0036807Y0094000D01*
X0036844Y0094071D01*
X0036884Y0094139D01*
X0036927Y0094205D01*
X0036973Y0094269D01*
X0037023Y0094331D01*
X0037076Y0094390D01*
X0037131Y0094446D01*
X0037190Y0094500D01*
X0037251Y0094550D01*
X0037314Y0094598D01*
X0037380Y0094642D01*
X0037448Y0094683D01*
X0037518Y0094720D01*
X0037589Y0094754D01*
X0037663Y0094784D01*
X0037737Y0094810D01*
X0037813Y0094832D01*
X0037890Y0094851D01*
X0037968Y0094866D01*
X0038046Y0094877D01*
X0038125Y0094884D01*
X0038204Y0094887D01*
X0038283Y0094886D01*
X0038362Y0094881D01*
X0038441Y0094872D01*
X0038519Y0094859D01*
X0038596Y0094842D01*
X0038673Y0094822D01*
X0038748Y0094797D01*
X0038822Y0094769D01*
X0038895Y0094737D01*
X0038965Y0094702D01*
X0039034Y0094663D01*
X0039101Y0094620D01*
X0039166Y0094574D01*
X0039228Y0094526D01*
X0039288Y0094474D01*
X0039345Y0094419D01*
X0039399Y0094361D01*
X0039450Y0094301D01*
X0039498Y0094238D01*
X0039543Y0094173D01*
X0039585Y0094105D01*
X0039623Y0094036D01*
X0039657Y0093965D01*
X0039688Y0093892D01*
X0039716Y0093817D01*
X0039739Y0093742D01*
X0039759Y0093665D01*
X0039775Y0093588D01*
X0039787Y0093509D01*
X0039795Y0093431D01*
X0039799Y0093352D01*
X0039799Y0093272D01*
X0039795Y0093193D01*
X0039787Y0093115D01*
X0039775Y0093036D01*
X0039759Y0092959D01*
X0039739Y0092882D01*
X0039716Y0092807D01*
X0039688Y0092732D01*
X0039657Y0092659D01*
X0039623Y0092588D01*
X0039585Y0092519D01*
X0039543Y0092451D01*
X0039498Y0092386D01*
X0039450Y0092323D01*
X0039399Y0092263D01*
X0039345Y0092205D01*
X0039288Y0092150D01*
X0039228Y0092098D01*
X0039166Y0092050D01*
X0039101Y0092004D01*
X0039034Y0091961D01*
X0038965Y0091922D01*
X0038895Y0091887D01*
X0038822Y0091855D01*
X0038748Y0091827D01*
X0038673Y0091802D01*
X0038596Y0091782D01*
X0038519Y0091765D01*
X0038441Y0091752D01*
X0038362Y0091743D01*
X0038283Y0091738D01*
X0038204Y0091737D01*
X0038125Y0091740D01*
X0038046Y0091747D01*
X0037968Y0091758D01*
X0037890Y0091773D01*
X0037813Y0091792D01*
X0037737Y0091814D01*
X0037663Y0091840D01*
X0037589Y0091870D01*
X0037518Y0091904D01*
X0037448Y0091941D01*
X0037380Y0091982D01*
X0037314Y0092026D01*
X0037251Y0092074D01*
X0037190Y0092124D01*
X0037131Y0092178D01*
X0037076Y0092234D01*
X0037023Y0092293D01*
X0036973Y0092355D01*
X0036927Y0092419D01*
X0036884Y0092485D01*
X0036844Y0092553D01*
X0036807Y0092624D01*
X0036775Y0092696D01*
X0036745Y0092769D01*
X0036720Y0092844D01*
X0036698Y0092920D01*
X0036681Y0092997D01*
X0036667Y0093075D01*
X0036657Y0093154D01*
X0036651Y0093233D01*
X0036649Y0093312D01*
X0030350Y0094887D02*
X0031137Y0096856D01*
X0029168Y0097249D02*
X0029168Y0095281D01*
X0040585Y0103942D02*
X0040587Y0103981D01*
X0040593Y0104020D01*
X0040603Y0104058D01*
X0040616Y0104095D01*
X0040633Y0104130D01*
X0040653Y0104164D01*
X0040677Y0104195D01*
X0040704Y0104224D01*
X0040733Y0104250D01*
X0040765Y0104273D01*
X0040799Y0104293D01*
X0040835Y0104309D01*
X0040872Y0104321D01*
X0040911Y0104330D01*
X0040950Y0104335D01*
X0040989Y0104336D01*
X0041028Y0104333D01*
X0041067Y0104326D01*
X0041104Y0104315D01*
X0041141Y0104301D01*
X0041176Y0104283D01*
X0041209Y0104262D01*
X0041240Y0104237D01*
X0041268Y0104210D01*
X0041293Y0104180D01*
X0041315Y0104147D01*
X0041334Y0104113D01*
X0041349Y0104077D01*
X0041361Y0104039D01*
X0041369Y0104001D01*
X0041373Y0103962D01*
X0041373Y0103922D01*
X0041369Y0103883D01*
X0041361Y0103845D01*
X0041349Y0103807D01*
X0041334Y0103771D01*
X0041315Y0103737D01*
X0041293Y0103704D01*
X0041268Y0103674D01*
X0041240Y0103647D01*
X0041209Y0103622D01*
X0041176Y0103601D01*
X0041141Y0103583D01*
X0041104Y0103569D01*
X0041067Y0103558D01*
X0041028Y0103551D01*
X0040989Y0103548D01*
X0040950Y0103549D01*
X0040911Y0103554D01*
X0040872Y0103563D01*
X0040835Y0103575D01*
X0040799Y0103591D01*
X0040765Y0103611D01*
X0040733Y0103634D01*
X0040704Y0103660D01*
X0040677Y0103689D01*
X0040653Y0103720D01*
X0040633Y0103754D01*
X0040616Y0103789D01*
X0040603Y0103826D01*
X0040593Y0103864D01*
X0040587Y0103903D01*
X0040585Y0103942D01*
X0042160Y0093312D02*
X0042162Y0093391D01*
X0042168Y0093470D01*
X0042178Y0093549D01*
X0042192Y0093627D01*
X0042209Y0093704D01*
X0042231Y0093780D01*
X0042256Y0093855D01*
X0042286Y0093928D01*
X0042318Y0094000D01*
X0042355Y0094071D01*
X0042395Y0094139D01*
X0042438Y0094205D01*
X0042484Y0094269D01*
X0042534Y0094331D01*
X0042587Y0094390D01*
X0042642Y0094446D01*
X0042701Y0094500D01*
X0042762Y0094550D01*
X0042825Y0094598D01*
X0042891Y0094642D01*
X0042959Y0094683D01*
X0043029Y0094720D01*
X0043100Y0094754D01*
X0043174Y0094784D01*
X0043248Y0094810D01*
X0043324Y0094832D01*
X0043401Y0094851D01*
X0043479Y0094866D01*
X0043557Y0094877D01*
X0043636Y0094884D01*
X0043715Y0094887D01*
X0043794Y0094886D01*
X0043873Y0094881D01*
X0043952Y0094872D01*
X0044030Y0094859D01*
X0044107Y0094842D01*
X0044184Y0094822D01*
X0044259Y0094797D01*
X0044333Y0094769D01*
X0044406Y0094737D01*
X0044476Y0094702D01*
X0044545Y0094663D01*
X0044612Y0094620D01*
X0044677Y0094574D01*
X0044739Y0094526D01*
X0044799Y0094474D01*
X0044856Y0094419D01*
X0044910Y0094361D01*
X0044961Y0094301D01*
X0045009Y0094238D01*
X0045054Y0094173D01*
X0045096Y0094105D01*
X0045134Y0094036D01*
X0045168Y0093965D01*
X0045199Y0093892D01*
X0045227Y0093817D01*
X0045250Y0093742D01*
X0045270Y0093665D01*
X0045286Y0093588D01*
X0045298Y0093509D01*
X0045306Y0093431D01*
X0045310Y0093352D01*
X0045310Y0093272D01*
X0045306Y0093193D01*
X0045298Y0093115D01*
X0045286Y0093036D01*
X0045270Y0092959D01*
X0045250Y0092882D01*
X0045227Y0092807D01*
X0045199Y0092732D01*
X0045168Y0092659D01*
X0045134Y0092588D01*
X0045096Y0092519D01*
X0045054Y0092451D01*
X0045009Y0092386D01*
X0044961Y0092323D01*
X0044910Y0092263D01*
X0044856Y0092205D01*
X0044799Y0092150D01*
X0044739Y0092098D01*
X0044677Y0092050D01*
X0044612Y0092004D01*
X0044545Y0091961D01*
X0044476Y0091922D01*
X0044406Y0091887D01*
X0044333Y0091855D01*
X0044259Y0091827D01*
X0044184Y0091802D01*
X0044107Y0091782D01*
X0044030Y0091765D01*
X0043952Y0091752D01*
X0043873Y0091743D01*
X0043794Y0091738D01*
X0043715Y0091737D01*
X0043636Y0091740D01*
X0043557Y0091747D01*
X0043479Y0091758D01*
X0043401Y0091773D01*
X0043324Y0091792D01*
X0043248Y0091814D01*
X0043174Y0091840D01*
X0043100Y0091870D01*
X0043029Y0091904D01*
X0042959Y0091941D01*
X0042891Y0091982D01*
X0042825Y0092026D01*
X0042762Y0092074D01*
X0042701Y0092124D01*
X0042642Y0092178D01*
X0042587Y0092234D01*
X0042534Y0092293D01*
X0042484Y0092355D01*
X0042438Y0092419D01*
X0042395Y0092485D01*
X0042355Y0092553D01*
X0042318Y0092624D01*
X0042286Y0092696D01*
X0042256Y0092769D01*
X0042231Y0092844D01*
X0042209Y0092920D01*
X0042192Y0092997D01*
X0042178Y0093075D01*
X0042168Y0093154D01*
X0042162Y0093233D01*
X0042160Y0093312D01*
X0055153Y0094493D02*
X0055546Y0096462D01*
X0057515Y0095675D02*
X0056334Y0093706D01*
X0074444Y0095281D02*
X0076413Y0094493D01*
X0076413Y0096462D01*
X0074444Y0095478D01*
X0088224Y0095478D01*
X0088224Y0081895D01*
X0088224Y0081698D02*
X0087239Y0083667D01*
X0089208Y0083667D01*
X0088224Y0081698D01*
X0089798Y0093903D02*
X0086649Y0097052D01*
X0086649Y0093903D02*
X0089798Y0097052D01*
D16*
X0081037Y0096565D02*
X0077697Y0098792D01*
X0077697Y0096565D02*
X0081037Y0098792D01*
X0089437Y0086322D02*
X0089437Y0085766D01*
X0090550Y0084652D01*
X0090550Y0082982D01*
X0090550Y0084652D02*
X0091664Y0085766D01*
X0091664Y0086322D01*
D17*
X0041767Y0100399D02*
X0040192Y0099612D01*
X0040979Y0099218D01*
X0040979Y0097643D01*
X0041767Y0100399D02*
X0040192Y0101186D01*
X0041767Y0101974D01*
X0040979Y0102367D01*
X0040979Y0103549D01*
X0041982Y0025326D02*
X0039583Y0025326D01*
X0039261Y0022150D01*
X0038193Y0021808D01*
X0037197Y0021295D01*
X0034723Y0023312D01*
X0033027Y0021616D01*
X0035044Y0019142D01*
X0034531Y0018146D01*
X0034189Y0017078D01*
X0031013Y0016756D01*
X0031013Y0014357D01*
X0034189Y0014034D01*
X0034531Y0012967D01*
X0035044Y0011971D01*
X0033027Y0009497D01*
X0034723Y0007801D01*
X0037197Y0009818D01*
X0038193Y0009304D01*
X0039605Y0012715D01*
X0039050Y0013015D01*
X0038567Y0013423D01*
X0038178Y0013920D01*
X0037899Y0014487D01*
X0037741Y0015098D01*
X0037712Y0015729D01*
X0037812Y0016353D01*
X0038037Y0016943D01*
X0038378Y0017474D01*
X0038820Y0017925D01*
X0039345Y0018276D01*
X0039931Y0018512D01*
X0040553Y0018624D01*
X0041184Y0018606D01*
X0041799Y0018460D01*
X0042370Y0018191D01*
X0042875Y0017811D01*
X0043291Y0017336D01*
X0043602Y0016786D01*
X0043794Y0016185D01*
X0043859Y0015556D01*
X0043799Y0014956D01*
X0043624Y0014379D01*
X0043340Y0013848D01*
X0042958Y0013381D01*
X0042492Y0012999D01*
X0041960Y0012715D01*
X0043372Y0009304D01*
X0044368Y0009818D01*
X0046842Y0007801D01*
X0048538Y0009497D01*
X0046521Y0011971D01*
X0047034Y0012967D01*
X0047376Y0014034D01*
X0050552Y0014357D01*
X0050552Y0016756D01*
X0047376Y0017078D01*
X0047034Y0018146D01*
X0046521Y0019142D01*
X0048538Y0021616D01*
X0046842Y0023312D01*
X0044368Y0021295D01*
X0043372Y0021808D01*
X0042305Y0022150D01*
X0041982Y0025326D01*
X0041999Y0025156D02*
X0039566Y0025156D01*
X0039506Y0024567D02*
X0042059Y0024567D01*
X0042119Y0023978D02*
X0039446Y0023978D01*
X0039386Y0023389D02*
X0042179Y0023389D01*
X0042239Y0022800D02*
X0039327Y0022800D01*
X0039267Y0022211D02*
X0042298Y0022211D01*
X0043734Y0021622D02*
X0037831Y0021622D01*
X0036796Y0021622D02*
X0033032Y0021622D01*
X0033503Y0021033D02*
X0048062Y0021033D01*
X0048533Y0021622D02*
X0044769Y0021622D01*
X0045491Y0022211D02*
X0047944Y0022211D01*
X0047355Y0022800D02*
X0046214Y0022800D01*
X0047582Y0020443D02*
X0033983Y0020443D01*
X0034463Y0019854D02*
X0047102Y0019854D01*
X0046622Y0019265D02*
X0034944Y0019265D01*
X0034804Y0018676D02*
X0046761Y0018676D01*
X0047053Y0018087D02*
X0042508Y0018087D01*
X0043149Y0017498D02*
X0047242Y0017498D01*
X0049044Y0016909D02*
X0043533Y0016909D01*
X0043751Y0016320D02*
X0050552Y0016320D01*
X0050552Y0015731D02*
X0043841Y0015731D01*
X0043818Y0015142D02*
X0050552Y0015142D01*
X0050552Y0014553D02*
X0043677Y0014553D01*
X0043402Y0013964D02*
X0047353Y0013964D01*
X0047165Y0013375D02*
X0042949Y0013375D01*
X0042092Y0012786D02*
X0046941Y0012786D01*
X0046638Y0012197D02*
X0042174Y0012197D01*
X0042418Y0011608D02*
X0046817Y0011608D01*
X0047298Y0011018D02*
X0042662Y0011018D01*
X0042906Y0010429D02*
X0047778Y0010429D01*
X0048258Y0009840D02*
X0043150Y0009840D01*
X0045063Y0009251D02*
X0048293Y0009251D01*
X0047704Y0008662D02*
X0045786Y0008662D01*
X0046508Y0008073D02*
X0047115Y0008073D01*
X0039391Y0012197D02*
X0034928Y0012197D01*
X0034748Y0011608D02*
X0039147Y0011608D01*
X0038903Y0011018D02*
X0034268Y0011018D01*
X0033787Y0010429D02*
X0038659Y0010429D01*
X0038415Y0009840D02*
X0033307Y0009840D01*
X0033272Y0009251D02*
X0036502Y0009251D01*
X0035779Y0008662D02*
X0033861Y0008662D01*
X0034450Y0008073D02*
X0035057Y0008073D01*
X0034624Y0012786D02*
X0039474Y0012786D01*
X0038624Y0013375D02*
X0034400Y0013375D01*
X0034212Y0013964D02*
X0038157Y0013964D01*
X0037882Y0014553D02*
X0031013Y0014553D01*
X0031013Y0015142D02*
X0037739Y0015142D01*
X0037712Y0015731D02*
X0031013Y0015731D01*
X0031013Y0016320D02*
X0037806Y0016320D01*
X0038024Y0016909D02*
X0032521Y0016909D01*
X0034324Y0017498D02*
X0038401Y0017498D01*
X0039063Y0018087D02*
X0034512Y0018087D01*
X0033621Y0022211D02*
X0036074Y0022211D01*
X0035351Y0022800D02*
X0034210Y0022800D01*
D18*
X0034680Y0064966D02*
X0035074Y0066541D01*
X0034680Y0064966D02*
X0039405Y0064966D01*
X0039011Y0066541D01*
X0042554Y0064966D02*
X0042948Y0066541D01*
X0042554Y0064966D02*
X0047279Y0064966D01*
X0046885Y0066541D01*
M02*
